<svg width="171" height="168" viewBox="0 0 171 168" fill="none" xmlns="http://www.w3.org/2000/svg">
<g filter="url(#filter0_d_399_3657)">
<path d="M11 146V15C11 10.5817 14.5817 7 19 7H152C156.418 7 160 10.5817 160 15V146C160 150.418 156.418 154 152 154H19C14.5817 154 11 150.418 11 146Z" fill="#26883E"/>
<g filter="url(#filter1_d_399_3657)">
<path d="M41.7291 117.898L59.2874 18.3203L77.2437 7.5431L153.259 20.9466L133.316 134.048L41.7291 117.898Z" fill="white"/>
<path d="M75.4868 27.0921L59.2513 18.5252L77.2437 7.5431L75.4868 27.0921Z" fill="#99EAAD"/>
<path d="M76.5112 8.72149L74.9491 26.1026L60.514 18.4857L76.5112 8.72149Z" stroke="#2A9F47" stroke-opacity="0.25" stroke-width="1.24832"/>
<path d="M62.4375 47.1855L137.633 60.4446" stroke="#2A9F47" stroke-opacity="0.25" stroke-width="1.24832"/>
<path d="M58.9336 67.0601L134.129 80.3191" stroke="#2A9F47" stroke-opacity="0.25" stroke-width="1.24832"/>
<path d="M56.6211 80.1729L131.817 93.4319" stroke="#2A9F47" stroke-opacity="0.25" stroke-width="1.24832"/>
<path d="M54.3086 93.2861L129.504 106.545" stroke="#2A9F47" stroke-opacity="0.25" stroke-width="1.24832"/>
<path d="M51.9961 106.399L127.192 119.658" stroke="#2A9F47" stroke-opacity="0.25" stroke-width="1.24832"/>
<path d="M58.2852 70.7476L133.481 84.0066" stroke="#2A9F47" stroke-opacity="0.25" stroke-width="1.24832"/>
<path d="M55.9727 83.8608L131.168 97.1199" stroke="#2A9F47" stroke-opacity="0.25" stroke-width="1.24832"/>
<path d="M53.6602 96.9741L128.856 110.233" stroke="#2A9F47" stroke-opacity="0.25" stroke-width="1.24832"/>
<path d="M51.3477 110.087L126.543 123.346" stroke="#2A9F47" stroke-opacity="0.25" stroke-width="1.24832"/>
<mask id="path-14-outside-1_399_3657" maskUnits="userSpaceOnUse" x="66.1562" y="32.1709" width="74.6123" height="22.698" fill="black">
<rect fill="white" x="66.1562" y="32.1709" width="74.6123" height="22.698"/>
<path d="M77.298 34.4142L72.8926 42.1914L70.3636 41.7454L68.8838 32.9306L71.0347 33.3098L71.9865 39.9358L75.159 34.037L77.298 34.4142ZM80.1635 34.9195L78.7006 43.2155L76.6798 42.8592L78.1426 34.5631L80.1635 34.9195ZM87.5866 44.7823L85.5658 44.426L83.0882 38.713L82.1859 43.83L80.1651 43.4737L81.6279 35.1777L83.6487 35.534L86.1222 41.2707L87.0286 36.13L89.0494 36.4863L87.5866 44.7823ZM94.5429 46.0942C93.9363 45.9872 93.41 45.7929 92.9642 45.5112C92.5183 45.2295 92.1837 44.8699 91.9602 44.4325C91.7447 43.9964 91.6769 43.5052 91.757 42.9588L93.9079 43.3381C93.8852 43.6509 93.9499 43.906 94.1019 44.1034C94.2553 44.2929 94.4778 44.4134 94.7693 44.4648C95.0687 44.5175 95.3168 44.4923 95.5138 44.3889C95.7121 44.2776 95.8328 44.0999 95.8759 43.8557C95.912 43.6508 95.871 43.4689 95.7528 43.31C95.6424 43.1524 95.4925 43.0123 95.3029 42.8895C95.1213 42.7681 94.855 42.6196 94.5042 42.444C93.9976 42.1841 93.5895 41.9416 93.2799 41.7164C92.9703 41.4912 92.7219 41.1956 92.5346 40.8295C92.3473 40.4634 92.2995 40.0204 92.3912 39.5004C92.5274 38.7283 92.9133 38.1749 93.5491 37.8402C94.1863 37.4977 94.9539 37.4056 95.8521 37.5639C96.766 37.7251 97.4637 38.0756 97.9453 38.6154C98.4282 39.1473 98.6207 39.8068 98.5225 40.5937L96.3362 40.2082C96.3677 39.9375 96.3061 39.7114 96.1512 39.5298C95.9978 39.3402 95.7793 39.2205 95.4957 39.1705C95.2514 39.1274 95.0427 39.1596 94.8694 39.2672C94.6974 39.3668 94.59 39.5388 94.5469 39.783C94.4997 40.0509 94.5889 40.2819 94.8146 40.476C95.0403 40.6702 95.4058 40.9011 95.911 41.1689C96.4147 41.4446 96.8175 41.6943 97.1192 41.9181C97.4288 42.1433 97.6779 42.435 97.8666 42.7932C98.0553 43.1514 98.1058 43.5787 98.0183 44.075C97.935 44.5477 97.7372 44.9556 97.4248 45.2986C97.1204 45.6429 96.7196 45.8891 96.2224 46.037C95.7251 46.1849 95.1653 46.2039 94.5429 46.0942ZM102.025 40.4435L101.729 42.1216L104.435 42.5988L104.16 44.1588L101.454 43.6816L101.133 45.5015L104.194 46.0412L103.908 47.6602L98.8264 46.7642L100.289 38.4682L105.371 39.3642L105.085 40.9832L102.025 40.4435ZM110.643 47.3368L107.546 46.7908L106.792 48.1687L104.676 47.7957L109.141 40.029L111.481 40.4416L113.02 49.2669L110.881 48.8897L110.643 47.3368ZM110.398 45.6852L109.905 42.4667L108.353 45.3247L110.398 45.6852ZM118.164 50.1739L116.991 46.738L116.506 46.6526L115.954 49.7843L113.933 49.4279L115.396 41.1319L118.788 41.73C119.442 41.8453 119.977 42.0574 120.394 42.3665C120.818 42.6769 121.109 43.0532 121.267 43.4953C121.426 43.9295 121.462 44.3908 121.376 44.8793C121.279 45.4308 121.035 45.8954 120.643 46.2732C120.259 46.6523 119.748 46.879 119.11 46.9532L120.445 50.5761L118.164 50.1739ZM116.758 45.2226L118.011 45.4435C118.381 45.5088 118.673 45.4668 118.886 45.3176C119.107 45.1697 119.247 44.9303 119.305 44.5994C119.361 44.2843 119.31 44.0195 119.153 43.8049C119.004 43.5918 118.744 43.4525 118.374 43.3872L117.121 43.1664L116.758 45.2226ZM122.033 46.567C122.178 45.7477 122.483 45.0502 122.951 44.4745C123.419 43.891 124 43.4775 124.692 43.2341C125.394 42.9843 126.147 42.9302 126.951 43.0719C127.936 43.2455 128.733 43.6541 129.342 44.2978C129.952 44.9414 130.296 45.7331 130.374 46.6729L128.152 46.2812C128.047 45.9053 127.858 45.5997 127.582 45.3644C127.315 45.1304 126.988 44.9793 126.602 44.9113C125.98 44.8015 125.437 44.9293 124.975 45.2945C124.512 45.6598 124.217 46.2048 124.089 46.9296C123.962 47.6544 124.053 48.2675 124.362 48.7689C124.672 49.2703 125.138 49.5759 125.76 49.6856C126.146 49.7537 126.505 49.7235 126.836 49.5951C127.176 49.4681 127.458 49.2458 127.685 48.9283L129.907 49.3201C129.512 50.1765 128.918 50.803 128.125 51.1993C127.334 51.5878 126.446 51.6952 125.461 51.5215C124.657 51.3798 123.968 51.0754 123.392 50.6084C122.826 50.1348 122.422 49.5477 122.18 48.8471C121.938 48.1464 121.889 47.3864 122.033 46.567ZM139.292 45.3455L137.829 53.6415L135.809 53.2851L136.411 49.8698L133.267 49.3155L132.665 52.7309L130.644 52.3745L132.107 44.0785L134.128 44.4348L133.555 47.6847L136.698 48.239L137.271 44.9891L139.292 45.3455Z"/>
</mask>
<path d="M77.298 34.4142L72.8926 42.1914L70.3636 41.7454L68.8838 32.9306L71.0347 33.3098L71.9865 39.9358L75.159 34.037L77.298 34.4142ZM80.1635 34.9195L78.7006 43.2155L76.6798 42.8592L78.1426 34.5631L80.1635 34.9195ZM87.5866 44.7823L85.5658 44.426L83.0882 38.713L82.1859 43.83L80.1651 43.4737L81.6279 35.1777L83.6487 35.534L86.1222 41.2707L87.0286 36.13L89.0494 36.4863L87.5866 44.7823ZM94.5429 46.0942C93.9363 45.9872 93.41 45.7929 92.9642 45.5112C92.5183 45.2295 92.1837 44.8699 91.9602 44.4325C91.7447 43.9964 91.6769 43.5052 91.757 42.9588L93.9079 43.3381C93.8852 43.6509 93.9499 43.906 94.1019 44.1034C94.2553 44.2929 94.4778 44.4134 94.7693 44.4648C95.0687 44.5175 95.3168 44.4923 95.5138 44.3889C95.7121 44.2776 95.8328 44.0999 95.8759 43.8557C95.912 43.6508 95.871 43.4689 95.7528 43.31C95.6424 43.1524 95.4925 43.0123 95.3029 42.8895C95.1213 42.7681 94.855 42.6196 94.5042 42.444C93.9976 42.1841 93.5895 41.9416 93.2799 41.7164C92.9703 41.4912 92.7219 41.1956 92.5346 40.8295C92.3473 40.4634 92.2995 40.0204 92.3912 39.5004C92.5274 38.7283 92.9133 38.1749 93.5491 37.8402C94.1863 37.4977 94.9539 37.4056 95.8521 37.5639C96.766 37.7251 97.4637 38.0756 97.9453 38.6154C98.4282 39.1473 98.6207 39.8068 98.5225 40.5937L96.3362 40.2082C96.3677 39.9375 96.3061 39.7114 96.1512 39.5298C95.9978 39.3402 95.7793 39.2205 95.4957 39.1705C95.2514 39.1274 95.0427 39.1596 94.8694 39.2672C94.6974 39.3668 94.59 39.5388 94.5469 39.783C94.4997 40.0509 94.5889 40.2819 94.8146 40.476C95.0403 40.6702 95.4058 40.9011 95.911 41.1689C96.4147 41.4446 96.8175 41.6943 97.1192 41.9181C97.4288 42.1433 97.6779 42.435 97.8666 42.7932C98.0553 43.1514 98.1058 43.5787 98.0183 44.075C97.935 44.5477 97.7372 44.9556 97.4248 45.2986C97.1204 45.6429 96.7196 45.8891 96.2224 46.037C95.7251 46.1849 95.1653 46.2039 94.5429 46.0942ZM102.025 40.4435L101.729 42.1216L104.435 42.5988L104.16 44.1588L101.454 43.6816L101.133 45.5015L104.194 46.0412L103.908 47.6602L98.8264 46.7642L100.289 38.4682L105.371 39.3642L105.085 40.9832L102.025 40.4435ZM110.643 47.3368L107.546 46.7908L106.792 48.1687L104.676 47.7957L109.141 40.029L111.481 40.4416L113.02 49.2669L110.881 48.8897L110.643 47.3368ZM110.398 45.6852L109.905 42.4667L108.353 45.3247L110.398 45.6852ZM118.164 50.1739L116.991 46.738L116.506 46.6526L115.954 49.7843L113.933 49.4279L115.396 41.1319L118.788 41.73C119.442 41.8453 119.977 42.0574 120.394 42.3665C120.818 42.6769 121.109 43.0532 121.267 43.4953C121.426 43.9295 121.462 44.3908 121.376 44.8793C121.279 45.4308 121.035 45.8954 120.643 46.2732C120.259 46.6523 119.748 46.879 119.11 46.9532L120.445 50.5761L118.164 50.1739ZM116.758 45.2226L118.011 45.4435C118.381 45.5088 118.673 45.4668 118.886 45.3176C119.107 45.1697 119.247 44.9303 119.305 44.5994C119.361 44.2843 119.31 44.0195 119.153 43.8049C119.004 43.5918 118.744 43.4525 118.374 43.3872L117.121 43.1664L116.758 45.2226ZM122.033 46.567C122.178 45.7477 122.483 45.0502 122.951 44.4745C123.419 43.891 124 43.4775 124.692 43.2341C125.394 42.9843 126.147 42.9302 126.951 43.0719C127.936 43.2455 128.733 43.6541 129.342 44.2978C129.952 44.9414 130.296 45.7331 130.374 46.6729L128.152 46.2812C128.047 45.9053 127.858 45.5997 127.582 45.3644C127.315 45.1304 126.988 44.9793 126.602 44.9113C125.98 44.8015 125.437 44.9293 124.975 45.2945C124.512 45.6598 124.217 46.2048 124.089 46.9296C123.962 47.6544 124.053 48.2675 124.362 48.7689C124.672 49.2703 125.138 49.5759 125.76 49.6856C126.146 49.7537 126.505 49.7235 126.836 49.5951C127.176 49.4681 127.458 49.2458 127.685 48.9283L129.907 49.3201C129.512 50.1765 128.918 50.803 128.125 51.1993C127.334 51.5878 126.446 51.6952 125.461 51.5215C124.657 51.3798 123.968 51.0754 123.392 50.6084C122.826 50.1348 122.422 49.5477 122.18 48.8471C121.938 48.1464 121.889 47.3864 122.033 46.567ZM139.292 45.3455L137.829 53.6415L135.809 53.2851L136.411 49.8698L133.267 49.3155L132.665 52.7309L130.644 52.3745L132.107 44.0785L134.128 44.4348L133.555 47.6847L136.698 48.239L137.271 44.9891L139.292 45.3455Z" fill="black"/>
<path d="M77.298 34.4142L77.6601 34.6193L77.9504 34.1067L77.3703 34.0044L77.298 34.4142ZM72.8926 42.1914L72.8204 42.6012L73.1098 42.6522L73.2547 42.3965L72.8926 42.1914ZM70.3636 41.7454L69.9533 41.8143L70.0019 42.1042L70.2914 42.1552L70.3636 41.7454ZM68.8838 32.9306L68.9561 32.5208L68.3759 32.4185L68.4735 32.9995L68.8838 32.9306ZM71.0347 33.3098L71.4465 33.2506L71.4037 32.9524L71.1069 32.9L71.0347 33.3098ZM71.9865 39.9358L71.5746 39.9949L71.7544 41.2459L72.353 40.1329L71.9865 39.9358ZM75.159 34.037L75.2313 33.6273L74.935 33.575L74.7926 33.84L75.159 34.037ZM76.936 34.2091L72.5306 41.9863L73.2547 42.3965L77.6601 34.6193L76.936 34.2091ZM72.9649 41.7816L70.4359 41.3357L70.2914 42.1552L72.8204 42.6012L72.9649 41.7816ZM70.774 41.6766L69.2942 32.8617L68.4735 32.9995L69.9533 41.8143L70.774 41.6766ZM68.8116 33.3403L70.9624 33.7196L71.1069 32.9L68.9561 32.5208L68.8116 33.3403ZM70.6228 33.369L71.5746 39.9949L72.3984 39.8766L71.4465 33.2506L70.6228 33.369ZM72.353 40.1329L75.5255 34.2341L74.7926 33.84L71.6201 39.7387L72.353 40.1329ZM75.0868 34.4468L77.2258 34.824L77.3703 34.0044L75.2313 33.6273L75.0868 34.4468ZM80.1635 34.9195L80.5732 34.9917L80.6455 34.5819L80.2357 34.5097L80.1635 34.9195ZM78.7006 43.2155L78.6284 43.6253L79.0382 43.6975L79.1104 43.2877L78.7006 43.2155ZM76.6798 42.8592L76.27 42.7869L76.1978 43.1967L76.6076 43.2689L76.6798 42.8592ZM78.1426 34.5631L78.2149 34.1534L77.8051 34.0811L77.7328 34.4909L78.1426 34.5631ZM79.7537 34.8472L78.2909 43.1432L79.1104 43.2877L80.5732 34.9917L79.7537 34.8472ZM78.7729 42.8057L76.7521 42.4494L76.6076 43.2689L78.6284 43.6253L78.7729 42.8057ZM77.0896 42.9314L78.5524 34.6354L77.7328 34.4909L76.27 42.7869L77.0896 42.9314ZM78.0704 34.9729L80.0912 35.3293L80.2357 34.5097L78.2149 34.1534L78.0704 34.9729ZM87.5866 44.7823L87.5144 45.1921L87.9241 45.2644L87.9964 44.8546L87.5866 44.7823ZM85.5658 44.426L85.184 44.5916L85.2731 44.7969L85.4935 44.8358L85.5658 44.426ZM83.0882 38.713L83.47 38.5474L82.9189 37.2768L82.6784 38.6407L83.0882 38.713ZM82.1859 43.83L82.1137 44.2398L82.5235 44.3121L82.5957 43.9023L82.1859 43.83ZM80.1651 43.4737L79.7553 43.4015L79.6831 43.8112L80.0929 43.8835L80.1651 43.4737ZM81.6279 35.1777L81.7002 34.7679L81.2904 34.6956L81.2181 35.1054L81.6279 35.1777ZM83.6487 35.534L84.0309 35.3693L83.942 35.1632L83.721 35.1242L83.6487 35.534ZM86.1222 41.2707L85.7401 41.4354L86.2905 42.7121L86.5319 41.3429L86.1222 41.2707ZM87.0286 36.13L87.1009 35.7202L86.6911 35.6479L86.6188 36.0577L87.0286 36.13ZM89.0494 36.4863L89.4592 36.5586L89.5315 36.1488L89.1217 36.0765L89.0494 36.4863ZM87.6589 44.3725L85.6381 44.0162L85.4935 44.8358L87.5144 45.1921L87.6589 44.3725ZM85.9475 44.2604L83.47 38.5474L82.7065 38.8785L85.184 44.5916L85.9475 44.2604ZM82.6784 38.6407L81.7761 43.7578L82.5957 43.9023L83.498 38.7852L82.6784 38.6407ZM82.2582 43.4203L80.2374 43.0639L80.0929 43.8835L82.1137 44.2398L82.2582 43.4203ZM80.5749 43.546L82.0377 35.2499L81.2181 35.1054L79.7553 43.4015L80.5749 43.546ZM81.5557 35.5875L83.5765 35.9438L83.721 35.1242L81.7002 34.7679L81.5557 35.5875ZM83.2666 35.6988L85.7401 41.4354L86.5043 41.1059L84.0309 35.3693L83.2666 35.6988ZM86.5319 41.3429L87.4384 36.2022L86.6188 36.0577L85.7124 41.1984L86.5319 41.3429ZM86.9564 36.5398L88.9772 36.8961L89.1217 36.0765L87.1009 35.7202L86.9564 36.5398ZM88.6396 36.414L87.1768 44.7101L87.9964 44.8546L89.4592 36.5586L88.6396 36.414ZM92.9642 45.5112L92.7419 45.863L92.9642 45.5112ZM91.9602 44.4325L91.5872 44.6169L91.5897 44.6218L91.9602 44.4325ZM91.757 42.9588L91.8293 42.549L91.4075 42.4746L91.3453 42.8985L91.757 42.9588ZM93.9079 43.3381L94.3229 43.3681L94.35 42.9935L93.9801 42.9283L93.9079 43.3381ZM94.1019 44.1034L93.7721 44.3574L93.7785 44.3652L94.1019 44.1034ZM95.5138 44.3889L95.7072 44.7575L95.7173 44.7518L95.5138 44.3889ZM95.7528 43.31L95.4118 43.5488L95.4189 43.5583L95.7528 43.31ZM95.3029 42.8895L95.0717 43.2355L95.0767 43.2387L95.3029 42.8895ZM94.5042 42.444L94.3142 42.8143L94.3179 42.8161L94.5042 42.444ZM92.5346 40.8295L92.9051 40.64L92.5346 40.8295ZM93.5491 37.8402L93.7429 38.2084L93.7461 38.2067L93.5491 37.8402ZM97.9453 38.6154L97.6348 38.8924L97.6372 38.8951L97.9453 38.6154ZM98.5225 40.5937L98.4503 41.0035L98.8813 41.0795L98.9354 40.6452L98.5225 40.5937ZM96.3362 40.2082L95.9229 40.1601L95.8776 40.5498L96.264 40.618L96.3362 40.2082ZM96.1512 39.5298L95.8277 39.7917L95.8345 39.7997L96.1512 39.5298ZM94.8694 39.2672L95.0781 39.6273L95.0888 39.6207L94.8694 39.2672ZM94.8146 40.476L95.086 40.1606L94.8146 40.476ZM95.911 41.1689L96.1107 40.8039L96.1058 40.8013L95.911 41.1689ZM97.1192 41.9181L96.8713 42.2524L96.8745 42.2546L97.1192 41.9181ZM97.8666 42.7932L97.4984 42.9871L97.4984 42.9871L97.8666 42.7932ZM97.4248 45.2986L97.1171 45.0184L97.1131 45.023L97.4248 45.2986ZM96.2224 46.037L96.1037 45.6381L96.1037 45.6381L96.2224 46.037ZM94.6152 45.6844C94.053 45.5853 93.5795 45.4078 93.1864 45.1594L92.7419 45.863C93.2405 46.178 93.8195 46.3892 94.4706 46.504L94.6152 45.6844ZM93.1864 45.1594C92.7989 44.9146 92.5178 44.6093 92.3308 44.2432L91.5897 44.6218C91.8496 45.1306 92.2377 45.5444 92.7419 45.863L93.1864 45.1594ZM92.3332 44.2481C92.1601 43.8978 92.0992 43.4937 92.1687 43.0192L91.3453 42.8985C91.2547 43.5167 91.3293 44.0951 91.5872 44.6169L92.3332 44.2481ZM91.6848 43.3686L93.8356 43.7478L93.9801 42.9283L91.8293 42.549L91.6848 43.3686ZM93.4928 43.308C93.4648 43.6954 93.5429 44.0596 93.7722 44.3573L94.4316 43.8495C94.3568 43.7524 94.3056 43.6063 94.3229 43.3681L93.4928 43.308ZM93.7785 44.3652C94.0079 44.6485 94.3288 44.8096 94.697 44.8745L94.8415 44.055C94.6268 44.0171 94.5028 43.9373 94.4253 43.8416L93.7785 44.3652ZM94.697 44.8745C95.0542 44.9375 95.4034 44.9168 95.7072 44.7573L95.3204 44.0204C95.2303 44.0677 95.0831 44.0976 94.8415 44.055L94.697 44.8745ZM95.7173 44.7518C96.0353 44.5735 96.2232 44.2824 96.2857 43.9279L95.4661 43.7834C95.4425 43.9174 95.3889 43.9818 95.3102 44.026L95.7173 44.7518ZM96.2857 43.9279C96.3405 43.6167 96.2769 43.3175 96.0867 43.0617L95.4189 43.5583C95.465 43.6203 95.4834 43.685 95.4661 43.7834L96.2857 43.9279ZM96.0936 43.0713C95.9477 42.8629 95.756 42.6872 95.5292 42.5402L95.0767 43.2387C95.229 43.3374 95.3372 43.442 95.4119 43.5487L96.0936 43.0713ZM95.5341 42.5435C95.331 42.4078 95.0466 42.2502 94.6904 42.0719L94.3179 42.8161C94.6634 42.989 94.9116 43.1284 95.0718 43.2355L95.5341 42.5435ZM94.6941 42.0738C94.1984 41.8195 93.8107 41.5879 93.5247 41.3799L93.0352 42.0529C93.3683 42.2952 93.7968 42.5488 94.3142 42.8142L94.6941 42.0738ZM93.5247 41.3799C93.2718 41.1959 93.0648 40.9523 92.9051 40.64L92.1642 41.019C92.3789 41.4388 92.6688 41.7864 93.0352 42.0529L93.5247 41.3799ZM92.9051 40.64C92.7694 40.3749 92.7205 40.0289 92.801 39.5726L91.9814 39.4281C91.8785 40.0118 91.9252 40.5519 92.1642 41.019L92.9051 40.64ZM92.801 39.5726C92.9171 38.914 93.2325 38.4772 93.7429 38.2084L93.3553 37.472C92.5942 37.8727 92.1376 38.5426 91.9814 39.4281L92.801 39.5726ZM93.7461 38.2067C94.2815 37.9189 94.9493 37.8273 95.7798 37.9737L95.9243 37.1542C94.9585 36.9839 94.0911 37.0764 93.3521 37.4737L93.7461 38.2067ZM95.7798 37.9737C96.628 38.1233 97.2312 38.44 97.6348 38.8924L98.2558 38.3384C97.6962 37.7111 96.9039 37.3269 95.9243 37.1542L95.7798 37.9737ZM97.6372 38.8951C98.0295 39.3272 98.1945 39.8616 98.1096 40.5422L98.9354 40.6452C99.0468 39.7519 98.8269 38.9675 98.2533 38.3357L97.6372 38.8951ZM98.5948 40.1839L96.4085 39.7984L96.264 40.618L98.4503 41.0035L98.5948 40.1839ZM96.7496 40.2563C96.7923 39.8887 96.7086 39.5423 96.4679 39.2598L95.8345 39.7997C95.9035 39.8805 95.9431 39.9864 95.9229 40.1601L96.7496 40.2563ZM96.4747 39.2679C96.247 38.9867 95.9315 38.8248 95.5679 38.7607L95.4234 39.5802C95.6271 39.6162 95.7486 39.6937 95.8278 39.7916L96.4747 39.2679ZM95.5679 38.7607C95.2457 38.7039 94.9281 38.741 94.65 38.9136L95.0888 39.6207C95.1572 39.5783 95.2572 39.5509 95.4234 39.5802L95.5679 38.7607ZM94.6607 38.9072C94.3569 39.0833 94.1957 39.3782 94.1371 39.7108L94.9567 39.8553C94.9842 39.6993 95.038 39.6504 95.0781 39.6272L94.6607 38.9072ZM94.1371 39.7108C94.0616 40.139 94.2189 40.5125 94.5433 40.7915L95.086 40.1606C94.9589 40.0512 94.9377 39.9627 94.9567 39.8553L94.1371 39.7108ZM94.5433 40.7915C94.805 41.0166 95.2037 41.265 95.7161 41.5366L96.1058 40.8013C95.6079 40.5373 95.2756 40.3237 95.086 40.1606L94.5433 40.7915ZM95.7112 41.534C96.206 41.8047 96.5907 42.0442 96.8713 42.2523L97.3671 41.5839C97.0443 41.3445 96.6235 41.0845 96.1107 40.8039L95.7112 41.534ZM96.8745 42.2546C97.1296 42.4402 97.3377 42.6819 97.4984 42.9871L98.2348 42.5993C98.0182 42.1881 97.728 41.8464 97.364 41.5816L96.8745 42.2546ZM97.4984 42.9871C97.6345 43.2454 97.684 43.5746 97.6085 44.0028L98.4281 44.1473C98.5277 43.5828 98.4761 43.0574 98.2348 42.5993L97.4984 42.9871ZM97.6085 44.0028C97.5384 44.4008 97.3745 44.7358 97.1172 45.0184L97.7325 45.5787C98.0998 45.1754 98.3316 44.6947 98.4281 44.1473L97.6085 44.0028ZM97.1131 45.023C96.8667 45.3017 96.5362 45.5095 96.1037 45.6381L96.341 46.4358C96.903 46.2686 97.3742 45.9841 97.7366 45.5742L97.1131 45.023ZM96.1037 45.6381C95.6805 45.764 95.1876 45.7854 94.6152 45.6844L94.4706 46.504C95.143 46.6225 95.7698 46.6057 96.341 46.4358L96.1037 45.6381ZM102.025 40.4435L102.097 40.0338L101.687 39.9615L101.615 40.3713L102.025 40.4435ZM101.729 42.1217L101.319 42.0494L101.247 42.4592L101.656 42.5314L101.729 42.1217ZM104.435 42.5988L104.845 42.6711L104.917 42.2613L104.507 42.189L104.435 42.5988ZM104.16 44.1588L104.088 44.5686L104.497 44.6408L104.57 44.231L104.16 44.1588ZM101.454 43.6816L101.526 43.2718L101.116 43.1995L101.044 43.6093L101.454 43.6816ZM101.133 45.5015L100.723 45.4293L100.651 45.839L101.06 45.9113L101.133 45.5015ZM104.194 46.0412L104.603 46.1135L104.676 45.7037L104.266 45.6314L104.194 46.0412ZM103.908 47.6602L103.836 48.07L104.246 48.1423L104.318 47.7325L103.908 47.6602ZM98.8264 46.7642L98.4167 46.692L98.3444 47.1017L98.7542 47.174L98.8264 46.7642ZM100.289 38.4682L100.362 38.0584L99.9517 37.9861L99.8795 38.3959L100.289 38.4682ZM105.371 39.3642L105.781 39.4365L105.853 39.0267L105.443 38.9544L105.371 39.3642ZM105.085 40.9832L105.013 41.393L105.423 41.4653L105.495 41.0555L105.085 40.9832ZM101.615 40.3713L101.319 42.0494L102.138 42.1939L102.434 40.5158L101.615 40.3713ZM101.656 42.5314L104.363 43.0086L104.507 42.189L101.801 41.7119L101.656 42.5314ZM104.025 42.5266L103.75 44.0865L104.57 44.231L104.845 42.6711L104.025 42.5266ZM104.232 43.749L101.526 43.2718L101.381 44.0914L104.088 44.5686L104.232 43.749ZM101.044 43.6093L100.723 45.4293L101.543 45.5738L101.863 43.7538L101.044 43.6093ZM101.06 45.9113L104.121 46.451L104.266 45.6314L101.205 45.0917L101.06 45.9113ZM103.784 45.969L103.498 47.588L104.318 47.7325L104.603 46.1135L103.784 45.969ZM103.98 47.2504L98.8987 46.3544L98.7542 47.174L103.836 48.07L103.98 47.2504ZM99.2362 46.8365L100.699 38.5404L99.8795 38.3959L98.4167 46.692L99.2362 46.8365ZM100.217 38.878L105.299 39.774L105.443 38.9544L100.362 38.0584L100.217 38.878ZM104.961 39.292L104.676 40.911L105.495 41.0555L105.781 39.4365L104.961 39.292ZM105.158 40.5735L102.097 40.0338L101.952 40.8533L105.013 41.393L105.158 40.5735ZM110.643 47.3368L111.054 47.2738L111.009 46.9788L110.715 46.927L110.643 47.3368ZM107.546 46.7908L107.619 46.381L107.325 46.3292L107.182 46.5909L107.546 46.7908ZM106.792 48.1687L106.72 48.5785L107.013 48.6303L107.157 48.3686L106.792 48.1687ZM104.676 47.7957L104.316 47.5883L104.02 48.1025L104.604 48.2055L104.676 47.7957ZM109.141 40.029L109.213 39.6192L108.926 39.5685L108.78 39.8216L109.141 40.029ZM111.481 40.4416L111.891 40.3701L111.841 40.0825L111.553 40.0318L111.481 40.4416ZM113.02 49.2669L112.947 49.6766L113.531 49.7796L113.43 49.1954L113.02 49.2669ZM110.881 48.8897L110.469 48.9527L110.515 49.2477L110.808 49.2995L110.881 48.8897ZM110.398 45.6852L110.326 46.0949L110.897 46.1957L110.809 45.6222L110.398 45.6852ZM109.905 42.4667L110.317 42.4038L110.129 41.1817L109.54 42.2682L109.905 42.4667ZM108.353 45.3247L107.988 45.1261L107.712 45.6341L108.281 45.7345L108.353 45.3247ZM110.715 46.927L107.619 46.381L107.474 47.2006L110.57 47.7466L110.715 46.927ZM107.182 46.5909L106.427 47.9688L107.157 48.3686L107.911 46.9907L107.182 46.5909ZM106.864 47.7589L104.749 47.3859L104.604 48.2055L106.72 48.5785L106.864 47.7589ZM105.037 48.0031L109.502 40.2363L108.78 39.8216L104.316 47.5883L105.037 48.0031ZM109.069 40.4388L111.409 40.8513L111.553 40.0318L109.213 39.6192L109.069 40.4388ZM111.071 40.513L112.61 49.3383L113.43 49.1954L111.891 40.3701L111.071 40.513ZM113.092 48.8571L110.953 48.4799L110.808 49.2995L112.947 49.6766L113.092 48.8571ZM111.292 48.8267L111.054 47.2738L110.231 47.3998L110.469 48.9527L111.292 48.8267ZM110.809 45.6222L110.317 42.4038L109.494 42.5297L109.986 45.7481L110.809 45.6222ZM109.54 42.2682L107.988 45.1261L108.719 45.5232L110.271 42.6653L109.54 42.2682ZM108.281 45.7345L110.326 46.0949L110.47 45.2754L108.426 44.9149L108.281 45.7345ZM118.164 50.1739L117.77 50.3084L117.85 50.541L118.092 50.5837L118.164 50.1739ZM116.991 46.738L117.385 46.6036L117.305 46.3709L117.063 46.3282L116.991 46.738ZM116.506 46.6526L116.579 46.2428L116.169 46.1705L116.096 46.5803L116.506 46.6526ZM115.954 49.7843L115.882 50.1941L116.292 50.2663L116.364 49.8565L115.954 49.7843ZM113.933 49.4279L113.523 49.3557L113.451 49.7655L113.861 49.8377L113.933 49.4279ZM115.396 41.1319L115.468 40.7221L115.059 40.6499L114.986 41.0597L115.396 41.1319ZM120.394 42.3665L120.146 42.7007L120.148 42.7024L120.394 42.3665ZM121.267 43.4953L120.875 43.635L120.876 43.6384L121.267 43.4953ZM120.643 46.2732L120.354 45.9737L120.351 45.9772L120.643 46.2732ZM119.11 46.9532L119.062 46.5399L118.536 46.601L118.719 47.0971L119.11 46.9532ZM120.445 50.5761L120.373 50.9859L121.086 51.1116L120.835 50.4322L120.445 50.5761ZM116.758 45.2226L116.349 45.1504L116.276 45.5602L116.686 45.6324L116.758 45.2226ZM118.886 45.3176L118.655 44.9716L118.648 44.9767L118.886 45.3176ZM119.153 43.8049L118.812 44.0436L118.817 44.0508L119.153 43.8049ZM117.121 43.1664L117.193 42.7566L116.783 42.6843L116.711 43.0941L117.121 43.1664ZM118.558 50.0395L117.385 46.6036L116.597 46.8725L117.77 50.3084L118.558 50.0395ZM117.063 46.3282L116.579 46.2428L116.434 47.0624L116.919 47.1478L117.063 46.3282ZM116.096 46.5803L115.544 49.712L116.364 49.8565L116.916 46.7248L116.096 46.5803ZM116.026 49.3745L114.006 49.0182L113.861 49.8377L115.882 50.1941L116.026 49.3745ZM114.343 49.5002L115.806 41.2042L114.986 41.0597L113.523 49.3557L114.343 49.5002ZM115.324 41.5417L118.715 42.1398L118.86 41.3202L115.468 40.7221L115.324 41.5417ZM118.715 42.1398C119.323 42.2469 119.793 42.4394 120.146 42.7007L120.641 42.0323C120.16 41.6755 119.56 41.4437 118.86 41.3202L118.715 42.1398ZM120.148 42.7024C120.514 42.9697 120.749 43.2808 120.875 43.635L121.659 43.3555C121.47 42.8256 121.123 42.3841 120.639 42.0306L120.148 42.7024ZM120.876 43.6384C121.008 43.9987 121.041 44.3854 120.966 44.807L121.786 44.9515C121.884 44.3963 121.844 43.8602 121.658 43.3522L120.876 43.6384ZM120.966 44.807C120.884 45.2746 120.68 45.6589 120.354 45.9737L120.932 46.5726C121.389 46.1319 121.674 45.5869 121.786 44.9515L120.966 44.807ZM120.351 45.9772C120.045 46.2791 119.626 46.4743 119.062 46.5399L119.158 47.3665C119.87 47.2837 120.474 47.0255 120.935 46.5691L120.351 45.9772ZM118.719 47.0971L120.054 50.72L120.835 50.4322L119.5 46.8093L118.719 47.0971ZM120.517 50.1663L118.236 49.7642L118.092 50.5837L120.373 50.9859L120.517 50.1663ZM116.686 45.6324L117.939 45.8533L118.083 45.0337L116.831 44.8129L116.686 45.6324ZM117.939 45.8533C118.369 45.9292 118.788 45.8945 119.125 45.6584L118.648 44.9767C118.558 45.0391 118.393 45.0884 118.083 45.0337L117.939 45.8533ZM119.118 45.6634C119.456 45.4368 119.643 45.0831 119.715 44.6717L118.896 44.5272C118.851 44.7776 118.758 44.9026 118.655 44.9717L119.118 45.6634ZM119.715 44.6717C119.786 44.2693 119.726 43.8834 119.489 43.559L118.817 44.0508C118.894 44.1555 118.936 44.2993 118.896 44.5272L119.715 44.6717ZM119.494 43.5662C119.258 43.2291 118.876 43.0534 118.446 42.9775L118.301 43.797C118.612 43.8517 118.75 43.9544 118.812 44.0436L119.494 43.5662ZM118.446 42.9775L117.193 42.7566L117.049 43.5761L118.301 43.797L118.446 42.9775ZM116.711 43.0941L116.349 45.1504L117.168 45.2949L117.531 43.2386L116.711 43.0941ZM122.951 44.4745L123.274 44.7367L123.275 44.735L122.951 44.4745ZM124.692 43.2341L124.83 43.6267L124.832 43.6262L124.692 43.2341ZM129.342 44.2978L129.644 44.0116L129.644 44.0116L129.342 44.2978ZM130.374 46.6729L130.301 47.0827L130.833 47.1764L130.788 46.6385L130.374 46.6729ZM128.152 46.2812L127.751 46.3925L127.821 46.6454L128.08 46.691L128.152 46.2812ZM127.582 45.3644L127.308 45.6775L127.312 45.6806L127.582 45.3644ZM124.975 45.2945L125.233 45.6211L124.975 45.2945ZM126.836 49.5951L126.69 49.2054L126.686 49.2071L126.836 49.5951ZM127.685 48.9283L127.757 48.5185L127.499 48.473L127.346 48.6866L127.685 48.9283ZM129.907 49.3201L130.285 49.4942L130.511 49.004L129.979 48.9103L129.907 49.3201ZM128.125 51.1993L128.309 51.5728L128.311 51.5715L128.125 51.1993ZM123.392 50.6084L123.125 50.9277L123.13 50.9315L123.392 50.6084ZM122.18 48.8471L122.573 48.7112L122.18 48.8471ZM122.443 46.6393C122.577 45.8809 122.856 45.251 123.274 44.7367L122.627 44.2124C122.111 44.8494 121.779 45.6144 121.623 46.4948L122.443 46.6393ZM123.275 44.735C123.696 44.2109 124.212 43.8439 124.83 43.6267L124.554 42.8416C123.787 43.1112 123.142 43.5711 122.626 44.214L123.275 44.735ZM124.832 43.6262C125.46 43.4027 126.139 43.3512 126.879 43.4817L127.023 42.6621C126.155 42.5091 125.329 42.5658 124.553 42.8421L124.832 43.6262ZM126.879 43.4817C127.787 43.6419 128.5 44.0133 129.04 44.5839L129.644 44.0116C128.966 43.295 128.084 42.8491 127.023 42.6621L126.879 43.4817ZM129.04 44.5839C129.58 45.1543 129.888 45.8553 129.959 46.7073L130.788 46.6385C130.703 45.6109 130.323 44.7285 129.644 44.0116L129.04 44.5839ZM130.446 46.2631L128.224 45.8714L128.08 46.691L130.301 47.0827L130.446 46.2631ZM128.553 46.1699C128.428 45.7207 128.196 45.3415 127.853 45.0481L127.312 45.6806C127.519 45.858 127.667 46.09 127.751 46.3925L128.553 46.1699ZM127.856 45.0512C127.526 44.7621 127.127 44.5813 126.674 44.5015L126.53 45.321C126.849 45.3773 127.104 45.4986 127.308 45.6775L127.856 45.0512ZM126.674 44.5015C125.945 44.3728 125.28 44.5233 124.717 44.968L125.233 45.6211C125.595 45.3352 126.015 45.2302 126.53 45.321L126.674 44.5015ZM124.717 44.968C124.156 45.4111 123.821 46.058 123.68 46.8573L124.499 47.0019C124.614 46.3516 124.869 45.9084 125.233 45.6211L124.717 44.968ZM123.68 46.8573C123.539 47.6567 123.633 48.3792 124.008 48.9876L124.716 48.5503C124.473 48.1558 124.385 47.6521 124.499 47.0019L123.68 46.8573ZM124.008 48.9876C124.385 49.5979 124.958 49.9667 125.688 50.0954L125.833 49.2758C125.318 49.185 124.959 48.9427 124.716 48.5503L124.008 48.9876ZM125.688 50.0954C126.141 50.1753 126.577 50.1417 126.987 49.9831L126.686 49.2071C126.433 49.3053 126.152 49.3321 125.833 49.2758L125.688 50.0954ZM126.982 49.9848C127.405 49.8264 127.753 49.5495 128.024 49.17L127.346 48.6866C127.164 48.9421 126.946 49.1097 126.69 49.2054L126.982 49.9848ZM127.613 49.3381L129.835 49.7299L129.979 48.9103L127.757 48.5185L127.613 49.3381ZM129.529 49.1459C129.171 49.9224 128.642 50.4759 127.939 50.8271L128.311 51.5715C129.195 51.13 129.853 50.4307 130.285 49.4942L129.529 49.1459ZM127.942 50.8258C127.24 51.1702 126.443 51.2722 125.533 51.1117L125.389 51.9313C126.448 52.1181 127.428 52.0053 128.309 51.5728L127.942 50.8258ZM125.533 51.1117C124.792 50.981 124.17 50.7034 123.654 50.2853L123.13 50.9315C123.766 51.4475 124.523 51.7786 125.389 51.9313L125.533 51.1117ZM123.659 50.2892C123.151 49.8643 122.79 49.3407 122.573 48.7112L121.786 48.9829C122.053 49.7548 122.501 50.4054 123.125 50.9276L123.659 50.2892ZM122.573 48.7112C122.357 48.0853 122.309 47.3977 122.443 46.6393L121.623 46.4948C121.468 47.3751 121.518 48.2075 121.786 48.9829L122.573 48.7112ZM139.292 45.3455L139.702 45.4177L139.774 45.0079L139.364 44.9357L139.292 45.3455ZM137.829 53.6415L137.757 54.0513L138.167 54.1235L138.239 53.7137L137.829 53.6415ZM135.809 53.2851L135.399 53.2129L135.326 53.6227L135.736 53.6949L135.809 53.2851ZM136.411 49.8698L136.821 49.9421L136.893 49.5323L136.483 49.46L136.411 49.8698ZM133.267 49.3155L133.339 48.9058L132.93 48.8335L132.857 49.2433L133.267 49.3155ZM132.665 52.7309L132.593 53.1406L133.003 53.2129L133.075 52.8031L132.665 52.7309ZM130.644 52.3745L130.234 52.3023L130.162 52.7121L130.572 52.7843L130.644 52.3745ZM132.107 44.0785L132.179 43.6687L131.769 43.5965L131.697 44.0063L132.107 44.0785ZM134.128 44.4348L134.538 44.5071L134.61 44.0973L134.2 44.0251L134.128 44.4348ZM133.555 47.6847L133.145 47.6125L133.073 48.0222L133.483 48.0945L133.555 47.6847ZM136.698 48.239L136.626 48.6488L137.036 48.721L137.108 48.3112L136.698 48.239ZM137.271 44.9891L137.344 44.5793L136.934 44.5071L136.862 44.9169L137.271 44.9891ZM138.882 45.2732L137.42 53.5692L138.239 53.7137L139.702 45.4177L138.882 45.2732ZM137.902 53.2317L135.881 52.8754L135.736 53.6949L137.757 54.0513L137.902 53.2317ZM136.218 53.3574L136.821 49.9421L136.001 49.7976L135.399 53.2129L136.218 53.3574ZM136.483 49.46L133.339 48.9058L133.195 49.7253L136.338 50.2796L136.483 49.46ZM132.857 49.2433L132.255 52.6586L133.075 52.8031L133.677 49.3878L132.857 49.2433ZM132.737 52.3211L130.716 51.9648L130.572 52.7843L132.593 53.1406L132.737 52.3211ZM131.054 52.4468L132.517 44.1508L131.697 44.0063L130.234 52.3023L131.054 52.4468ZM132.035 44.4883L134.056 44.8446L134.2 44.0251L132.179 43.6687L132.035 44.4883ZM133.718 44.3626L133.145 47.6125L133.965 47.757L134.538 44.5071L133.718 44.3626ZM133.483 48.0945L136.626 48.6488L136.771 47.8292L133.627 47.2749L133.483 48.0945ZM137.108 48.3112L137.681 45.0614L136.862 44.9169L136.289 48.1667L137.108 48.3112ZM137.199 45.3989L139.22 45.7552L139.364 44.9357L137.344 44.5793L137.199 45.3989Z" fill="#2A9F47" fill-opacity="0.25" mask="url(#path-14-outside-1_399_3657)"/>
</g>
<g filter="url(#filter2_d_399_3657)">
<path d="M26.1813 130.68L17.3687 29.9508L31.9238 14.8934L108.818 8.166L118.827 122.575L26.1813 130.68Z" fill="white"/>
<path d="M35.2864 34.2309L17.3868 30.158L31.9238 14.8934L35.2864 34.2309Z" fill="#99EAAD"/>
<path d="M31.5212 16.2212L34.5109 33.4144L18.5962 29.7931L31.5212 16.2212Z" stroke="#2A9F47" stroke-opacity="0.25" stroke-width="1.24832"/>
<path d="M27.8828 57.0171L103.948 50.3623" stroke="#2A9F47" stroke-opacity="0.25" stroke-width="1.24832"/>
<path d="M29.6406 77.1211L105.706 70.4663" stroke="#2A9F47" stroke-opacity="0.25" stroke-width="1.24832"/>
<path d="M30.8008 90.3857L106.866 83.7309" stroke="#2A9F47" stroke-opacity="0.25" stroke-width="1.24832"/>
<path d="M31.9609 103.651L108.026 96.996" stroke="#2A9F47" stroke-opacity="0.25" stroke-width="1.24832"/>
<path d="M33.125 116.916L109.19 110.261" stroke="#2A9F47" stroke-opacity="0.25" stroke-width="1.24832"/>
<path d="M29.9688 80.8516L106.034 74.1967" stroke="#2A9F47" stroke-opacity="0.25" stroke-width="1.24832"/>
<path d="M31.1289 94.1162L107.194 87.4614" stroke="#2A9F47" stroke-opacity="0.25" stroke-width="1.24832"/>
<path d="M32.2891 107.381L108.354 100.726" stroke="#2A9F47" stroke-opacity="0.25" stroke-width="1.24832"/>
<path d="M33.4492 120.646L109.514 113.991" stroke="#2A9F47" stroke-opacity="0.25" stroke-width="1.24832"/>
<mask id="path-28-outside-2_399_3657" maskUnits="userSpaceOnUse" x="29.2653" y="34.6526" width="74.59" height="16.4115" fill="black">
<rect fill="white" x="29.2653" y="34.6526" width="74.59" height="16.4115"/>
<path d="M38.9307 40.8347L36.6883 49.4871L34.1301 49.7109L30.4193 41.5793L32.5949 41.389L35.2293 47.5428L36.767 41.024L38.9307 40.8347ZM41.8293 40.5811L42.5635 48.973L40.5193 49.1519L39.7851 40.7599L41.8293 40.5811ZM51.5522 48.1866L49.508 48.3655L45.6362 43.4884L46.0891 48.6646L44.0449 48.8434L43.3107 40.4515L45.3549 40.2726L49.2288 45.1737L48.7738 39.9735L50.818 39.7947L51.5522 48.1866ZM58.611 47.6534C57.9974 47.7071 57.4387 47.6556 56.9352 47.4989C56.4316 47.3422 56.0153 47.0814 55.6863 46.7167C55.3652 46.3513 55.1726 45.8944 55.1086 45.3459L57.2843 45.1555C57.3433 45.4635 57.4718 45.6932 57.6698 45.8445C57.867 45.9879 58.1131 46.0467 58.408 46.0209C58.7108 45.9944 58.944 45.9057 59.1074 45.7549C59.2702 45.5961 59.3408 45.3932 59.3192 45.1461C59.3011 44.9389 59.2143 44.7738 59.059 44.6509C58.9117 44.5273 58.7306 44.4307 58.5157 44.3612C58.3088 44.2909 58.0132 44.2164 57.6289 44.1376C57.0723 44.0177 56.6153 43.889 56.258 43.7516C55.9007 43.6142 55.5842 43.393 55.3085 43.0878C55.0329 42.7827 54.8721 42.3671 54.826 41.8412C54.7577 41.0601 54.9873 40.4257 55.5148 39.9379C56.0416 39.4421 56.7592 39.1544 57.6678 39.075C58.5922 38.9941 59.3569 39.152 59.9618 39.5488C60.566 39.9376 60.9225 40.5248 61.0314 41.3103L58.8198 41.5038C58.7802 41.2342 58.6621 41.0317 58.4656 40.8964C58.2683 40.753 58.0262 40.6939 57.7393 40.719C57.4923 40.7406 57.299 40.8258 57.1594 40.9745C57.0191 41.1152 56.9598 41.3092 56.9814 41.5562C57.0051 41.8272 57.1511 42.0272 57.4194 42.1563C57.6877 42.2854 58.1004 42.4139 58.6577 42.5419C59.2157 42.6778 59.6693 42.8147 60.0187 42.9528C60.376 43.0902 60.6922 43.3075 60.9671 43.6046C61.2421 43.9018 61.4015 44.3014 61.4454 44.8035C61.4873 45.2817 61.4017 45.7268 61.1888 46.139C60.9839 46.5504 60.6604 46.8919 60.2184 47.1634C59.7764 47.435 59.2406 47.5983 58.611 47.6534ZM64.3753 40.2589L64.5238 41.9564L67.2613 41.7169L67.3994 43.2948L64.6619 43.5343L64.8229 45.3753L67.9191 45.1044L68.0624 46.7422L62.922 47.1919L62.1878 38.8L67.3282 38.3502L67.4715 39.988L64.3753 40.2589ZM74.4839 44.6867L71.3518 44.9607L70.9794 46.487L68.8396 46.6742L71.1418 38.0166L73.5088 37.8095L77.2794 45.9358L75.1156 46.1251L74.4839 44.6867ZM73.8198 43.1547L72.511 40.1735L71.7517 43.3357L73.8198 43.1547ZM82.4831 45.4805L80.4606 42.4653L79.9705 42.5082L80.2477 45.6761L78.2035 45.8549L77.4693 37.463L80.9002 37.1628C81.5617 37.105 82.1336 37.1714 82.6161 37.362C83.1065 37.552 83.485 37.8401 83.7517 38.2264C84.0177 38.6046 84.1723 39.0408 84.2155 39.5349C84.2643 40.0928 84.1485 40.6048 83.8681 41.071C83.5956 41.5366 83.1606 41.8878 82.563 42.1248L84.7903 45.2787L82.4831 45.4805ZM79.844 41.0617L81.1111 40.9509C81.4857 40.9181 81.7566 40.802 81.9239 40.6027C82.0991 40.4027 82.1721 40.1353 82.1428 39.8006C82.1149 39.4818 81.9973 39.2391 81.79 39.0726C81.5907 38.9053 81.3037 38.838 80.9292 38.8708L79.662 38.9817L79.844 41.0617ZM85.287 40.9951C85.2145 40.1663 85.3293 39.4134 85.6315 38.7365C85.9329 38.0516 86.3867 37.5019 86.9929 37.0875C87.6064 36.6645 88.3196 36.4174 89.1325 36.3462C90.1287 36.2591 91.0044 36.4475 91.7597 36.9114C92.515 37.3753 93.052 38.0511 93.3705 38.9387L91.1231 39.1354C90.9251 38.7993 90.6626 38.5533 90.3358 38.3972C90.0169 38.2404 89.6622 38.179 89.2717 38.2132C88.6421 38.2683 88.1512 38.5321 87.7991 39.0046C87.4469 39.4771 87.3029 40.0799 87.3671 40.8131C87.4312 41.5463 87.6777 42.115 88.1066 42.5191C88.5354 42.9233 89.0646 43.0978 89.6942 43.0428C90.0847 43.0086 90.4234 42.8866 90.7102 42.6768C91.005 42.4663 91.2207 42.1784 91.3574 41.8131L93.6048 41.6165C93.4452 42.546 93.0338 43.3047 92.3705 43.8927C91.7065 44.4728 90.8765 44.8064 89.8803 44.8936C89.0674 44.9647 88.3225 44.8492 87.6455 44.547C86.9759 44.2362 86.4335 43.7737 86.0184 43.1596C85.6033 42.5454 85.3595 41.8239 85.287 40.9951ZM101.642 35.3482L102.376 43.7401L100.332 43.919L100.029 40.4642L96.8496 40.7424L97.1519 44.1972L95.1077 44.376L94.3735 35.9841L96.4177 35.8052L96.7053 39.0927L99.8851 38.8145L99.5975 35.527L101.642 35.3482Z"/>
</mask>
<path d="M38.9307 40.8347L36.6883 49.4871L34.1301 49.7109L30.4193 41.5793L32.5949 41.389L35.2293 47.5428L36.767 41.024L38.9307 40.8347ZM41.8293 40.5811L42.5635 48.973L40.5193 49.1519L39.7851 40.7599L41.8293 40.5811ZM51.5522 48.1866L49.508 48.3655L45.6362 43.4884L46.0891 48.6646L44.0449 48.8434L43.3107 40.4515L45.3549 40.2726L49.2288 45.1737L48.7738 39.9735L50.818 39.7947L51.5522 48.1866ZM58.611 47.6534C57.9974 47.7071 57.4387 47.6556 56.9352 47.4989C56.4316 47.3422 56.0153 47.0814 55.6863 46.7167C55.3652 46.3513 55.1726 45.8944 55.1086 45.3459L57.2843 45.1555C57.3433 45.4635 57.4718 45.6932 57.6698 45.8445C57.867 45.9879 58.1131 46.0467 58.408 46.0209C58.7108 45.9944 58.944 45.9057 59.1074 45.7549C59.2702 45.5961 59.3408 45.3932 59.3192 45.1461C59.3011 44.9389 59.2143 44.7738 59.059 44.6509C58.9117 44.5273 58.7306 44.4307 58.5157 44.3612C58.3088 44.2909 58.0132 44.2164 57.6289 44.1376C57.0723 44.0177 56.6153 43.889 56.258 43.7516C55.9007 43.6142 55.5842 43.393 55.3085 43.0878C55.0329 42.7827 54.8721 42.3671 54.826 41.8412C54.7577 41.0601 54.9873 40.4257 55.5148 39.9379C56.0416 39.4421 56.7592 39.1544 57.6678 39.075C58.5922 38.9941 59.3569 39.152 59.9618 39.5488C60.566 39.9376 60.9225 40.5248 61.0314 41.3103L58.8198 41.5038C58.7802 41.2342 58.6621 41.0317 58.4656 40.8964C58.2683 40.753 58.0262 40.6939 57.7393 40.719C57.4923 40.7406 57.299 40.8258 57.1594 40.9745C57.0191 41.1152 56.9598 41.3092 56.9814 41.5562C57.0051 41.8272 57.1511 42.0272 57.4194 42.1563C57.6877 42.2854 58.1004 42.4139 58.6577 42.5419C59.2157 42.6778 59.6693 42.8147 60.0187 42.9528C60.376 43.0902 60.6922 43.3075 60.9671 43.6046C61.2421 43.9018 61.4015 44.3014 61.4454 44.8035C61.4873 45.2817 61.4017 45.7268 61.1888 46.139C60.9839 46.5504 60.6604 46.8919 60.2184 47.1634C59.7764 47.435 59.2406 47.5983 58.611 47.6534ZM64.3753 40.2589L64.5238 41.9564L67.2613 41.7169L67.3994 43.2948L64.6619 43.5343L64.8229 45.3753L67.9191 45.1044L68.0624 46.7422L62.922 47.1919L62.1878 38.8L67.3282 38.3502L67.4715 39.988L64.3753 40.2589ZM74.4839 44.6867L71.3518 44.9607L70.9794 46.487L68.8396 46.6742L71.1418 38.0166L73.5088 37.8095L77.2794 45.9358L75.1156 46.1251L74.4839 44.6867ZM73.8198 43.1547L72.511 40.1735L71.7517 43.3357L73.8198 43.1547ZM82.4831 45.4805L80.4606 42.4653L79.9705 42.5082L80.2477 45.6761L78.2035 45.8549L77.4693 37.463L80.9002 37.1628C81.5617 37.105 82.1336 37.1714 82.6161 37.362C83.1065 37.552 83.485 37.8401 83.7517 38.2264C84.0177 38.6046 84.1723 39.0408 84.2155 39.5349C84.2643 40.0928 84.1485 40.6048 83.8681 41.071C83.5956 41.5366 83.1606 41.8878 82.563 42.1248L84.7903 45.2787L82.4831 45.4805ZM79.844 41.0617L81.1111 40.9509C81.4857 40.9181 81.7566 40.802 81.9239 40.6027C82.0991 40.4027 82.1721 40.1353 82.1428 39.8006C82.1149 39.4818 81.9973 39.2391 81.79 39.0726C81.5907 38.9053 81.3037 38.838 80.9292 38.8708L79.662 38.9817L79.844 41.0617ZM85.287 40.9951C85.2145 40.1663 85.3293 39.4134 85.6315 38.7365C85.9329 38.0516 86.3867 37.5019 86.9929 37.0875C87.6064 36.6645 88.3196 36.4174 89.1325 36.3462C90.1287 36.2591 91.0044 36.4475 91.7597 36.9114C92.515 37.3753 93.052 38.0511 93.3705 38.9387L91.1231 39.1354C90.9251 38.7993 90.6626 38.5533 90.3358 38.3972C90.0169 38.2404 89.6622 38.179 89.2717 38.2132C88.6421 38.2683 88.1512 38.5321 87.7991 39.0046C87.4469 39.4771 87.3029 40.0799 87.3671 40.8131C87.4312 41.5463 87.6777 42.115 88.1066 42.5191C88.5354 42.9233 89.0646 43.0978 89.6942 43.0428C90.0847 43.0086 90.4234 42.8866 90.7102 42.6768C91.005 42.4663 91.2207 42.1784 91.3574 41.8131L93.6048 41.6165C93.4452 42.546 93.0338 43.3047 92.3705 43.8927C91.7065 44.4728 90.8765 44.8064 89.8803 44.8936C89.0674 44.9647 88.3225 44.8492 87.6455 44.547C86.9759 44.2362 86.4335 43.7737 86.0184 43.1596C85.6033 42.5454 85.3595 41.8239 85.287 40.9951ZM101.642 35.3482L102.376 43.7401L100.332 43.919L100.029 40.4642L96.8496 40.7424L97.1519 44.1972L95.1077 44.376L94.3735 35.9841L96.4177 35.8052L96.7053 39.0927L99.8851 38.8145L99.5975 35.527L101.642 35.3482Z" fill="black"/>
<path d="M38.9307 40.8347L39.3335 40.9391L39.4813 40.3688L38.8945 40.4202L38.9307 40.8347ZM36.6883 49.4871L36.7246 49.9016L37.0174 49.876L37.0911 49.5914L36.6883 49.4871ZM34.1301 49.7109L33.7515 49.8836L33.8736 50.151L34.1664 50.1254L34.1301 49.7109ZM30.4193 41.5793L30.383 41.1648L29.7961 41.2162L30.0407 41.7521L30.4193 41.5793ZM32.5949 41.389L32.9775 41.2252L32.8589 40.9482L32.5587 40.9745L32.5949 41.389ZM35.2293 47.5428L34.8468 47.7066L35.3442 48.8684L35.6343 47.6383L35.2293 47.5428ZM36.767 41.024L36.7307 40.6095L36.4311 40.6357L36.362 40.9285L36.767 41.024ZM38.5279 40.7303L36.2855 49.3827L37.0911 49.5914L39.3335 40.9391L38.5279 40.7303ZM36.6521 49.0725L34.0938 49.2963L34.1664 50.1254L36.7246 49.9016L36.6521 49.0725ZM34.5086 49.5381L30.7978 41.4066L30.0407 41.7521L33.7515 49.8836L34.5086 49.5381ZM30.4555 41.9939L32.6312 41.8035L32.5587 40.9745L30.383 41.1648L30.4555 41.9939ZM32.2124 41.5528L34.8468 47.7066L35.6118 47.3791L32.9775 41.2252L32.2124 41.5528ZM35.6343 47.6383L37.172 41.1195L36.362 40.9285L34.8243 47.4473L35.6343 47.6383ZM36.8033 41.4385L38.967 41.2492L38.8945 40.4202L36.7307 40.6095L36.8033 41.4385ZM41.8293 40.5811L42.2438 40.5448L42.2076 40.1303L41.793 40.1666L41.8293 40.5811ZM42.5635 48.973L42.5998 49.3876L43.0143 49.3513L42.978 48.9368L42.5635 48.973ZM40.5193 49.1519L40.1048 49.1882L40.141 49.6027L40.5556 49.5664L40.5193 49.1519ZM39.7851 40.7599L39.7488 40.3454L39.3343 40.3817L39.3706 40.7962L39.7851 40.7599ZM41.4148 40.6174L42.149 49.0093L42.978 48.9368L42.2438 40.5448L41.4148 40.6174ZM42.5272 48.5585L40.483 48.7374L40.5556 49.5664L42.5998 49.3876L42.5272 48.5585ZM40.9338 49.1156L40.1996 40.7237L39.3706 40.7962L40.1048 49.1882L40.9338 49.1156ZM39.8214 41.1745L41.8656 40.9956L41.793 40.1666L39.7488 40.3454L39.8214 41.1745ZM51.5522 48.1866L51.5885 48.6012L52.003 48.5649L51.9668 48.1504L51.5522 48.1866ZM49.508 48.3655L49.1821 48.6242L49.3213 48.7995L49.5443 48.78L49.508 48.3655ZM45.6362 43.4884L45.9621 43.2296L45.101 42.1449L45.2217 43.5246L45.6362 43.4884ZM46.0891 48.6646L46.1254 49.0791L46.5399 49.0428L46.5036 48.6283L46.0891 48.6646ZM44.0449 48.8434L43.6304 48.8797L43.6666 49.2942L44.0812 49.258L44.0449 48.8434ZM43.3107 40.4515L43.2744 40.037L42.8599 40.0732L42.8962 40.4878L43.3107 40.4515ZM45.3549 40.2726L45.6813 40.0146L45.5422 39.8386L45.3186 39.8581L45.3549 40.2726ZM49.2288 45.1737L48.9023 45.4317L49.7645 46.5224L49.6433 45.1374L49.2288 45.1737ZM48.7738 39.9735L48.7376 39.559L48.323 39.5953L48.3593 40.0098L48.7738 39.9735ZM50.818 39.7947L51.2326 39.7584L51.1963 39.3439L50.7818 39.3802L50.818 39.7947ZM51.516 47.7721L49.4718 47.9509L49.5443 48.78L51.5885 48.6012L51.516 47.7721ZM49.8339 48.1068L45.9621 43.2296L45.3103 43.7471L49.1821 48.6242L49.8339 48.1068ZM45.2217 43.5246L45.6746 48.7009L46.5036 48.6283L46.0508 43.4521L45.2217 43.5246ZM46.0528 48.2501L44.0086 48.4289L44.0812 49.258L46.1254 49.0791L46.0528 48.2501ZM44.4594 48.8072L43.7252 40.4152L42.8962 40.4878L43.6304 48.8797L44.4594 48.8072ZM43.347 40.866L45.3912 40.6872L45.3186 39.8581L43.2744 40.037L43.347 40.866ZM45.0284 40.5307L48.9023 45.4317L49.5552 44.9156L45.6813 40.0146L45.0284 40.5307ZM49.6433 45.1374L49.1884 39.9373L48.3593 40.0098L48.8143 45.2099L49.6433 45.1374ZM48.8101 40.3881L50.8543 40.2092L50.7818 39.3802L48.7376 39.559L48.8101 40.3881ZM50.4035 39.831L51.1377 48.2229L51.9668 48.1504L51.2326 39.7584L50.4035 39.831ZM56.9352 47.4989L56.8115 47.8962L56.9352 47.4989ZM55.6863 46.7167L55.3736 46.9914L55.3773 46.9955L55.6863 46.7167ZM55.1086 45.3459L55.0723 44.9313L54.6456 44.9687L54.6953 45.3941L55.1086 45.3459ZM57.2843 45.1555L57.6929 45.0771L57.6222 44.7083L57.248 44.741L57.2843 45.1555ZM57.6698 45.8445L57.417 46.1752L57.4252 46.1811L57.6698 45.8445ZM59.1074 45.7549L59.3897 46.0608L59.398 46.0528L59.1074 45.7549ZM59.059 44.6509L58.7915 44.9698L58.8008 44.9772L59.059 44.6509ZM58.5157 44.3612L58.382 44.7552L58.3876 44.7571L58.5157 44.3612ZM57.6289 44.1376L57.5412 44.5444L57.5453 44.5452L57.6289 44.1376ZM55.3085 43.0878L55.6173 42.8089L55.3085 43.0878ZM55.5148 39.9379L55.7973 40.2434L55.8 40.2409L55.5148 39.9379ZM59.9618 39.5488L59.7336 39.8968L59.7366 39.8987L59.9618 39.5488ZM61.0314 41.3103L61.0677 41.7248L61.5036 41.6867L61.4436 41.2532L61.0314 41.3103ZM58.8198 41.5038L58.4082 41.5643L58.4652 41.9525L58.8561 41.9183L58.8198 41.5038ZM58.4656 40.8964L58.2208 41.2331L58.2295 41.239L58.4656 40.8964ZM57.1594 40.9745L57.4543 41.2683L57.4628 41.2592L57.1594 40.9745ZM57.4194 42.1563L57.5998 41.7814L57.4194 42.1563ZM58.6577 42.5419L58.7562 42.1375L58.7508 42.1363L58.6577 42.5419ZM60.0187 42.9528L59.8657 43.3398L59.8694 43.3412L60.0187 42.9528ZM60.9671 43.6046L60.6617 43.8872L60.6617 43.8872L60.9671 43.6046ZM61.1888 46.139L60.8191 45.948L60.8164 45.9534L61.1888 46.139ZM60.2184 47.1634L60.0006 46.8089L60.0006 46.8089L60.2184 47.1634ZM58.5748 47.2389C58.0061 47.2886 57.5028 47.2397 57.0588 47.1015L56.8115 47.8962C57.3747 48.0714 57.9886 48.1255 58.6473 48.0679L58.5748 47.2389ZM57.0588 47.1015C56.6211 46.9653 56.2705 46.7432 55.9952 46.438L55.3773 46.9955C55.76 47.4197 56.2421 47.719 56.8115 47.8962L57.0588 47.1015ZM55.9988 46.4421C55.7409 46.1485 55.5775 45.7739 55.5219 45.2976L54.6953 45.3941C54.7678 46.0148 54.9895 46.5541 55.3737 46.9914L55.9988 46.4421ZM55.1448 45.7604L57.3205 45.57L57.248 44.741L55.0723 44.9313L55.1448 45.7604ZM56.8756 45.2339C56.9488 45.6154 57.1185 45.9469 57.4171 46.1751L57.9225 45.514C57.8252 45.4395 57.7379 45.3117 57.6929 45.0771L56.8756 45.2339ZM57.4252 46.1811C57.72 46.3955 58.0717 46.468 58.4442 46.4354L58.3717 45.6063C58.1544 45.6254 58.014 45.5803 57.9144 45.5079L57.4252 46.1811ZM58.4442 46.4354C58.8056 46.4038 59.1374 46.2934 59.3896 46.0607L58.8253 45.4491C58.7505 45.5181 58.616 45.585 58.3717 45.6063L58.4442 46.4354ZM59.398 46.0528C59.6589 45.7982 59.7651 45.4684 59.7337 45.1099L58.9047 45.1824C58.9165 45.3179 58.8815 45.394 58.8169 45.457L59.398 46.0528ZM59.7337 45.1099C59.7062 44.795 59.5673 44.5225 59.3173 44.3246L58.8008 44.9772C58.8614 45.0252 58.896 45.0828 58.9047 45.1824L59.7337 45.1099ZM59.3265 44.3322C59.1316 44.1686 58.901 44.0485 58.6438 43.9653L58.3876 44.7571C58.5602 44.8129 58.6918 44.8859 58.7916 44.9697L59.3265 44.3322ZM58.6495 43.9671C58.4181 43.8886 58.1027 43.81 57.7124 43.73L57.5453 44.5452C57.9237 44.6228 58.1995 44.6933 58.382 44.7552L58.6495 43.9671ZM57.7165 43.7308C57.1719 43.6135 56.7375 43.4902 56.4073 43.3632L56.1087 44.14C56.4932 44.2878 56.9727 44.4219 57.5412 44.5444L57.7165 43.7308ZM56.4073 43.3632C56.1155 43.251 55.8525 43.0692 55.6173 42.8089L54.9998 43.3668C55.3159 43.7167 55.6859 43.9775 56.1087 44.14L56.4073 43.3632ZM55.6173 42.8089C55.4177 42.588 55.281 42.2664 55.2406 41.8049L54.4115 41.8774C54.4632 42.4678 54.6481 42.9774 54.9998 43.3668L55.6173 42.8089ZM55.2406 41.8049C55.1823 41.1386 55.3738 40.6351 55.7973 40.2434L55.2323 39.6324C54.6008 40.2164 54.3332 40.9816 54.4115 41.8774L55.2406 41.8049ZM55.8 40.2409C56.2426 39.8243 56.8639 39.563 57.704 39.4895L57.6315 38.6604C56.6546 38.7459 55.8406 39.0598 55.2296 39.6349L55.8 40.2409ZM57.704 39.4895C58.562 39.4144 59.2266 39.5642 59.7336 39.8967L60.19 39.2009C59.4872 38.7398 58.6224 38.5737 57.6315 38.6604L57.704 39.4895ZM59.7366 39.8987C60.2274 40.2146 60.5251 40.6881 60.6192 41.3674L61.4436 41.2532C61.32 40.3615 60.9045 39.6607 60.187 39.1989L59.7366 39.8987ZM60.9951 40.8958L58.7836 41.0893L58.8561 41.9183L61.0677 41.7248L60.9951 40.8958ZM59.2315 41.4432C59.1777 41.0771 59.0072 40.7642 58.7016 40.5537L58.2295 41.239C58.317 41.2993 58.3827 41.3913 58.4082 41.5643L59.2315 41.4432ZM58.7102 40.5598C58.4175 40.347 58.0709 40.2723 57.7031 40.3044L57.7756 41.1335C57.9816 41.1155 58.1191 41.159 58.2209 41.233L58.7102 40.5598ZM57.7031 40.3044C57.3771 40.333 57.08 40.451 56.856 40.6898L57.4628 41.2592C57.5179 41.2005 57.6074 41.1482 57.7756 41.1335L57.7031 40.3044ZM56.8646 40.6808C56.6168 40.9295 56.5375 41.2561 56.5669 41.5925L57.3959 41.5199C57.3821 41.3622 57.4214 41.301 57.4541 41.2682L56.8646 40.6808ZM56.5669 41.5925C56.6048 42.0257 56.8535 42.3458 57.2389 42.5313L57.5998 41.7814C57.4488 41.7087 57.4054 41.6287 57.3959 41.5199L56.5669 41.5925ZM57.2389 42.5313C57.55 42.681 57.9994 42.8177 58.5646 42.9474L58.7508 42.1363C58.2015 42.0102 57.8253 41.8899 57.5998 41.7814L57.2389 42.5313ZM58.5592 42.9462C59.1073 43.0796 59.5408 43.2114 59.8657 43.3398L60.1716 42.5658C59.7979 42.4181 59.3241 42.2759 58.7562 42.1376L58.5592 42.9462ZM59.8694 43.3412C60.1638 43.4544 60.4274 43.634 60.6617 43.8872L61.2725 43.322C60.9569 42.9809 60.5882 42.726 60.168 42.5644L59.8694 43.3412ZM60.6617 43.8872C60.8599 44.1015 60.993 44.4066 61.0309 44.8398L61.8599 44.7672C61.81 44.1962 61.6242 43.7021 61.2725 43.322L60.6617 43.8872ZM61.0309 44.8398C61.0661 45.2424 60.9946 45.6084 60.8191 45.948L61.5585 46.3299C61.8089 45.8453 61.9084 45.321 61.8599 44.7672L61.0309 44.8398ZM60.8164 45.9534C60.6505 46.2865 60.385 46.5727 60.0006 46.8089L60.4363 47.518C60.9358 47.211 61.3173 46.8143 61.5613 46.3245L60.8164 45.9534ZM60.0006 46.8089C59.6244 47.04 59.1538 47.1882 58.5748 47.2389L58.6473 48.0679C59.3274 48.0084 59.9285 47.8299 60.4363 47.518L60.0006 46.8089ZM64.3753 40.2589L64.339 39.8443L63.9245 39.8806L63.9608 40.2951L64.3753 40.2589ZM64.5238 41.9564L64.1093 41.9926L64.1455 42.4072L64.5601 42.3709L64.5238 41.9564ZM67.2613 41.7169L67.6759 41.6806L67.6396 41.2661L67.2251 41.3023L67.2613 41.7169ZM67.3994 43.2948L67.4357 43.7094L67.8502 43.6731L67.8139 43.2586L67.3994 43.2948ZM64.6619 43.5343L64.6256 43.1198L64.2111 43.1561L64.2473 43.5706L64.6619 43.5343ZM64.8229 45.3753L64.4084 45.4116L64.4447 45.8261L64.8592 45.7898L64.8229 45.3753ZM67.9191 45.1044L68.3336 45.0682L68.2974 44.6536L67.8828 44.6899L67.9191 45.1044ZM68.0624 46.7422L68.0986 47.1567L68.5132 47.1204L68.4769 46.7059L68.0624 46.7422ZM62.922 47.1919L62.5075 47.2282L62.5438 47.6427L62.9583 47.6064L62.922 47.1919ZM62.1878 38.8L62.1515 38.3854L61.737 38.4217L61.7733 38.8362L62.1878 38.8ZM67.3282 38.3502L67.7427 38.314L67.7064 37.8994L67.2919 37.9357L67.3282 38.3502ZM67.4715 39.988L67.5077 40.4025L67.9223 40.3662L67.886 39.9517L67.4715 39.988ZM63.9608 40.2951L64.1093 41.9926L64.9383 41.9201L64.7898 40.2226L63.9608 40.2951ZM64.5601 42.3709L67.2976 42.1314L67.2251 41.3023L64.4875 41.5419L64.5601 42.3709ZM66.8468 41.7531L66.9849 43.3311L67.8139 43.2586L67.6759 41.6806L66.8468 41.7531ZM67.3631 42.8803L64.6256 43.1198L64.6981 43.9489L67.4357 43.7094L67.3631 42.8803ZM64.2473 43.5706L64.4084 45.4116L65.2374 45.339L65.0764 43.4981L64.2473 43.5706ZM64.8592 45.7898L67.9554 45.519L67.8828 44.6899L64.7867 44.9608L64.8592 45.7898ZM67.5046 45.1407L67.6479 46.7784L68.4769 46.7059L68.3336 45.0682L67.5046 45.1407ZM68.0261 46.3277L62.8857 46.7774L62.9583 47.6064L68.0986 47.1567L68.0261 46.3277ZM63.3365 47.1556L62.6023 38.7637L61.7733 38.8362L62.5075 47.2282L63.3365 47.1556ZM62.2241 39.2145L67.3644 38.7648L67.2919 37.9357L62.1515 38.3854L62.2241 39.2145ZM66.9137 38.3865L67.0569 40.0242L67.886 39.9517L67.7427 38.314L66.9137 38.3865ZM67.4352 39.5735L64.339 39.8443L64.4116 40.6734L67.5077 40.4025L67.4352 39.5735ZM74.4839 44.6867L74.8648 44.5194L74.7448 44.2462L74.4476 44.2722L74.4839 44.6867ZM71.3518 44.9607L71.3156 44.5462L71.0183 44.5722L70.9476 44.8621L71.3518 44.9607ZM70.9794 46.487L71.0157 46.9015L71.3129 46.8755L71.3837 46.5856L70.9794 46.487ZM68.8396 46.6742L68.4375 46.5672L68.2851 47.1404L68.8759 47.0887L68.8396 46.6742ZM71.1418 38.0166L71.1055 37.6021L70.8147 37.6275L70.7397 37.9097L71.1418 38.0166ZM73.5088 37.8095L73.8862 37.6344L73.7633 37.3695L73.4725 37.395L73.5088 37.8095ZM77.2794 45.9358L77.3156 46.3503L77.9064 46.2986L77.6568 45.7607L77.2794 45.9358ZM75.1156 46.1251L74.7346 46.2924L74.8546 46.5656L75.1519 46.5396L75.1156 46.1251ZM73.8198 43.1547L73.8561 43.5693L74.434 43.5187L74.2008 42.9875L73.8198 43.1547ZM72.511 40.1735L72.892 40.0062L72.395 38.8742L72.1064 40.0763L72.511 40.1735ZM71.7517 43.3357L71.3471 43.2385L71.2121 43.8006L71.788 43.7502L71.7517 43.3357ZM74.4476 44.2722L71.3156 44.5462L71.3881 45.3752L74.5201 45.1012L74.4476 44.2722ZM70.9476 44.8621L70.5752 46.3883L71.3837 46.5856L71.7561 45.0593L70.9476 44.8621ZM70.9432 46.0724L68.8033 46.2597L68.8759 47.0887L71.0157 46.9015L70.9432 46.0724ZM69.2417 46.7811L71.5439 38.1235L70.7397 37.9097L68.4375 46.5672L69.2417 46.7811ZM71.1781 38.4311L73.545 38.224L73.4725 37.395L71.1055 37.6021L71.1781 38.4311ZM73.1313 37.9846L76.9019 46.1109L77.6568 45.7607L73.8862 37.6344L73.1313 37.9846ZM77.2431 45.5213L75.0794 45.7106L75.1519 46.5396L77.3156 46.3503L77.2431 45.5213ZM75.4966 45.9578L74.8648 44.5194L74.1029 44.854L74.7346 46.2924L75.4966 45.9578ZM74.2008 42.9875L72.892 40.0062L72.13 40.3407L73.4388 43.322L74.2008 42.9875ZM72.1064 40.0763L71.3471 43.2385L72.1563 43.4328L72.9156 40.2706L72.1064 40.0763ZM71.788 43.7502L73.8561 43.5693L73.7835 42.7402L71.7154 42.9211L71.788 43.7502ZM82.4831 45.4805L82.1376 45.7123L82.2745 45.9165L82.5194 45.895L82.4831 45.4805ZM80.4607 42.4653L80.8062 42.2335L80.6693 42.0294L80.4244 42.0508L80.4607 42.4653ZM79.9705 42.5082L79.9343 42.0937L79.5197 42.1299L79.556 42.5445L79.9705 42.5082ZM80.2477 45.6761L80.2839 46.0906L80.6985 46.0544L80.6622 45.6398L80.2477 45.6761ZM78.2035 45.8549L77.789 45.8912L77.8252 46.3057L78.2398 46.2695L78.2035 45.8549ZM77.4693 37.463L77.433 37.0485L77.0185 37.0847L77.0548 37.4993L77.4693 37.463ZM82.6161 37.362L82.4631 37.749L82.4658 37.7501L82.6161 37.362ZM83.7517 38.2264L83.4093 38.4628L83.4113 38.4657L83.7517 38.2264ZM83.8681 41.071L83.5115 40.8565L83.509 40.8608L83.8681 41.071ZM82.563 42.1248L82.4096 41.738L81.918 41.9329L82.2231 42.3648L82.563 42.1248ZM84.7903 45.2787L84.8266 45.6932L85.5479 45.6301L85.1302 45.0386L84.7903 45.2787ZM79.844 41.0617L79.4294 41.098L79.4657 41.5125L79.8802 41.4763L79.844 41.0617ZM81.9239 40.6027L81.6108 40.3285L81.6051 40.3352L81.9239 40.6027ZM81.79 39.0726L81.5225 39.3914L81.5294 39.3969L81.79 39.0726ZM79.662 38.9817L79.6257 38.5672L79.2112 38.6034L79.2475 39.0179L79.662 38.9817ZM82.8287 45.2487L80.8062 42.2335L80.1151 42.6971L82.1376 45.7123L82.8287 45.2487ZM80.4244 42.0508L79.9343 42.0937L80.0068 42.9227L80.4969 42.8798L80.4244 42.0508ZM79.556 42.5445L79.8332 45.7124L80.6622 45.6398L80.385 42.4719L79.556 42.5445ZM80.2114 45.2616L78.1672 45.4404L78.2398 46.2695L80.2839 46.0906L80.2114 45.2616ZM78.618 45.8187L77.8838 37.4267L77.0548 37.4993L77.789 45.8912L78.618 45.8187ZM77.5056 37.8775L80.9364 37.5774L80.8639 36.7483L77.433 37.0485L77.5056 37.8775ZM80.9364 37.5774C81.551 37.5236 82.0552 37.5878 82.4631 37.749L82.769 36.9751C82.2121 36.7549 81.5723 36.6863 80.8639 36.7483L80.9364 37.5774ZM82.4658 37.7501C82.8881 37.9137 83.1956 38.1533 83.4093 38.4628L84.0941 37.9899C83.7745 37.5269 83.3249 37.1904 82.7664 36.974L82.4658 37.7501ZM83.4113 38.4657C83.6321 38.7796 83.7637 39.1446 83.801 39.5712L84.6301 39.4986C84.5809 38.937 84.4033 38.4296 84.0921 37.987L83.4113 38.4657ZM83.801 39.5712C83.8424 40.0442 83.7452 40.468 83.5115 40.8566L84.2247 41.2855C84.5518 40.7416 84.6863 40.1414 84.6301 39.4986L83.801 39.5712ZM83.509 40.8608C83.292 41.2316 82.938 41.5284 82.4096 41.738L82.7164 42.5116C83.3832 42.2472 83.8993 41.8415 84.2272 41.2812L83.509 40.8608ZM82.2231 42.3648L84.4504 45.5187L85.1302 45.0386L82.9029 41.8848L82.2231 42.3648ZM84.7541 44.8641L82.4469 45.066L82.5194 45.895L84.8266 45.6932L84.7541 44.8641ZM79.8802 41.4763L81.1474 41.3654L81.0749 40.5363L79.8077 40.6472L79.8802 41.4763ZM81.1474 41.3654C81.5828 41.3273 81.9781 41.1855 82.2426 40.8702L81.6051 40.3352C81.5352 40.4186 81.3886 40.5089 81.0749 40.5363L81.1474 41.3654ZM82.2369 40.8769C82.5054 40.5703 82.5937 40.1805 82.5573 39.7643L81.7283 39.8368C81.7504 40.0901 81.6928 40.235 81.6109 40.3285L82.2369 40.8769ZM82.5573 39.7643C82.5217 39.3573 82.364 39 82.0506 38.7482L81.5294 39.3969C81.6306 39.4783 81.7081 39.6063 81.7283 39.8368L82.5573 39.7643ZM82.0575 38.7538C81.7422 38.4892 81.3283 38.4182 80.8929 38.4563L80.9654 39.2853C81.2791 39.2579 81.4392 39.3214 81.5225 39.3913L82.0575 38.7538ZM80.8929 38.4563L79.6257 38.5672L79.6983 39.3962L80.9654 39.2853L80.8929 38.4563ZM79.2475 39.0179L79.4294 41.098L80.2585 41.0255L80.0765 38.9454L79.2475 39.0179ZM85.6315 38.7365L86.0114 38.9061L86.0123 38.9041L85.6315 38.7365ZM86.9929 37.0875L87.2278 37.431L87.2292 37.4301L86.9929 37.0875ZM91.7597 36.9114L91.9775 36.5568L91.9775 36.5568L91.7597 36.9114ZM93.3705 38.9387L93.4068 39.3533L93.9445 39.3062L93.7622 38.7982L93.3705 38.9387ZM91.1231 39.1354L90.7646 39.3466L90.8979 39.5728L91.1594 39.5499L91.1231 39.1354ZM90.3358 38.3972L90.1522 38.7706L90.1565 38.7726L90.3358 38.3972ZM87.7991 39.0046L88.1327 39.2532L87.7991 39.0046ZM90.7102 42.6768L90.4684 42.3382L90.4645 42.341L90.7102 42.6768ZM91.3574 41.8131L91.3211 41.3986L91.0597 41.4215L90.9677 41.6673L91.3574 41.8131ZM93.6048 41.6165L94.0149 41.6869L94.1063 41.1549L93.5685 41.202L93.6048 41.6165ZM92.3705 43.8927L92.6443 44.2061L92.6465 44.2041L92.3705 43.8927ZM87.6455 44.547L87.4703 44.9245L87.4759 44.927L87.6455 44.547ZM86.0184 43.1596L86.3632 42.9266L86.0184 43.1596ZM85.7015 40.9588C85.6344 40.1917 85.7415 39.5108 86.0114 38.9061L85.2515 38.5669C84.9171 39.3159 84.7946 40.1408 84.8725 41.0314L85.7015 40.9588ZM86.0123 38.9041C86.2831 38.2889 86.687 37.8007 87.2278 37.431L86.7581 36.744C86.0865 37.2032 85.5827 37.8143 85.2506 38.5688L86.0123 38.9041ZM87.2292 37.4301C87.7778 37.0517 88.4206 36.8262 89.1687 36.7608L89.0962 35.9317C88.2185 36.0085 87.435 36.2772 86.7567 36.745L87.2292 37.4301ZM89.1687 36.7608C90.0879 36.6803 90.8723 36.8547 91.5419 37.266L91.9775 36.5568C91.1365 36.0403 90.1694 35.8378 89.0962 35.9317L89.1687 36.7608ZM91.5419 37.266C92.2113 37.6771 92.6901 38.2746 92.9789 39.0793L93.7622 38.7982C93.4139 37.8276 92.8188 37.0736 91.9775 36.5568L91.5419 37.266ZM93.3343 38.5242L91.0869 38.7208L91.1594 39.5499L93.4068 39.3533L93.3343 38.5242ZM91.4816 38.9241C91.2449 38.5225 90.9225 38.2163 90.5151 38.0217L90.1565 38.7726C90.4028 38.8903 90.6053 39.0762 90.7646 39.3466L91.4816 38.9241ZM90.5194 38.0238C90.1255 37.83 89.6936 37.7586 89.2354 37.7987L89.308 38.6277C89.6309 38.5995 89.9084 38.6507 90.1522 38.7706L90.5194 38.0238ZM89.2354 37.7987C88.4973 37.8633 87.8941 38.1807 87.4654 38.7559L88.1327 39.2532C88.4083 38.8834 88.787 38.6733 89.308 38.6277L89.2354 37.7987ZM87.4654 38.7559C87.0382 39.3292 86.8818 40.0408 86.9525 40.8494L87.7816 40.7768C87.724 40.119 87.8557 39.6249 88.1327 39.2532L87.4654 38.7559ZM86.9525 40.8494C87.0233 41.658 87.3008 42.3316 87.8212 42.822L88.3919 42.2163C88.0546 41.8984 87.8391 41.4346 87.7816 40.7768L86.9525 40.8494ZM87.8212 42.822C88.3432 43.314 88.9923 43.5219 89.7305 43.4573L89.658 42.6282C89.137 42.6738 88.7276 42.5327 88.3919 42.2163L87.8212 42.822ZM89.7305 43.4573C90.1886 43.4172 90.6016 43.2718 90.9559 43.0127L90.4645 42.341C90.2453 42.5014 89.9809 42.6 89.658 42.6282L89.7305 43.4573ZM90.952 43.0155C91.3194 42.7531 91.5838 42.3956 91.7471 41.9589L90.9677 41.6673C90.8577 41.9613 90.6906 42.1796 90.4684 42.3382L90.952 43.0155ZM91.3937 42.2277L93.6411 42.031L93.5685 41.202L91.3211 41.3986L91.3937 42.2277ZM93.1947 41.5461C93.05 42.3887 92.6823 43.0603 92.0945 43.5814L92.6465 44.2041C93.3853 43.5491 93.8404 42.7032 94.0149 41.6869L93.1947 41.5461ZM92.0967 43.5794C91.5079 44.0938 90.7646 44.3985 89.844 44.4791L89.9165 45.3081C90.9883 45.2143 91.9051 44.8519 92.6443 44.2061L92.0967 43.5794ZM89.844 44.4791C89.0943 44.5447 88.4211 44.4376 87.8152 44.1671L87.4759 44.927C88.2238 45.2608 89.0405 45.3848 89.9165 45.3081L89.844 44.4791ZM87.8207 44.1696C87.22 43.8908 86.7361 43.4783 86.3632 42.9266L85.6737 43.3926C86.131 44.0691 86.7318 44.5817 87.4704 44.9245L87.8207 44.1696ZM86.3632 42.9266C85.9923 42.3779 85.7686 41.726 85.7015 40.9588L84.8725 41.0314C84.9504 41.9219 85.2143 42.713 85.6737 43.3926L86.3632 42.9266ZM101.642 35.3482L102.056 35.3119L102.02 34.8974L101.605 34.9337L101.642 35.3482ZM102.376 43.7401L102.412 44.1547L102.827 44.1184L102.79 43.7039L102.376 43.7401ZM100.332 43.919L99.9172 43.9552L99.9535 44.3698L100.368 44.3335L100.332 43.919ZM100.029 40.4642L100.444 40.4279L100.408 40.0134L99.9932 40.0497L100.029 40.4642ZM96.8496 40.7424L96.8133 40.3279L96.3988 40.3641L96.4351 40.7786L96.8496 40.7424ZM97.1519 44.1972L97.1881 44.6117L97.6026 44.5754L97.5664 44.1609L97.1519 44.1972ZM95.1077 44.376L94.6931 44.4123L94.7294 44.8268L95.1439 44.7905L95.1077 44.376ZM94.3735 35.9841L94.3372 35.5696L93.9227 35.6058L93.9589 36.0203L94.3735 35.9841ZM96.4177 35.8052L96.8322 35.769L96.7959 35.3544L96.3814 35.3907L96.4177 35.8052ZM96.7053 39.0927L96.2907 39.1289L96.327 39.5435L96.7415 39.5072L96.7053 39.0927ZM99.8851 38.8145L99.9214 39.229L100.336 39.1927L100.3 38.7782L99.8851 38.8145ZM99.5975 35.527L99.5612 35.1125L99.1467 35.1488L99.183 35.5633L99.5975 35.527ZM101.227 35.3845L101.961 43.7764L102.79 43.7039L102.056 35.3119L101.227 35.3845ZM102.34 43.3256L100.295 43.5045L100.368 44.3335L102.412 44.1547L102.34 43.3256ZM100.746 43.8827L100.444 40.4279L99.6149 40.5004L99.9172 43.9552L100.746 43.8827ZM99.9932 40.0497L96.8133 40.3279L96.8859 41.1569L100.066 40.8787L99.9932 40.0497ZM96.4351 40.7786L96.7373 44.2334L97.5664 44.1609L97.2641 40.7061L96.4351 40.7786ZM97.1156 43.7827L95.0714 43.9615L95.1439 44.7905L97.1881 44.6117L97.1156 43.7827ZM95.5222 44.3398L94.788 35.9478L93.9589 36.0203L94.6931 44.4123L95.5222 44.3398ZM94.4097 36.3986L96.4539 36.2198L96.3814 35.3907L94.3372 35.5696L94.4097 36.3986ZM96.0031 35.8415L96.2907 39.1289L97.1198 39.0564L96.8322 35.769L96.0031 35.8415ZM96.7415 39.5072L99.9214 39.229L99.8489 38.4L96.669 38.6782L96.7415 39.5072ZM100.3 38.7782L100.012 35.4908L99.183 35.5633L99.4706 38.8507L100.3 38.7782ZM99.6338 35.9416L101.678 35.7627L101.605 34.9337L99.5612 35.1125L99.6338 35.9416Z" fill="#2A9F47" fill-opacity="0.25" mask="url(#path-28-outside-2_399_3657)"/>
</g>
<g filter="url(#filter3_di_399_3657)">
<path d="M86.0433 68.8863H19C14.5817 68.8863 11 72.468 11 76.8863V145C11 149.418 14.5817 153 19 153H152C156.418 153 160 149.418 160 145V51H113.052C111.161 51 109.33 51.6701 107.886 52.8914L91.2091 66.9948C89.7649 68.2161 87.9347 68.8863 86.0433 68.8863Z" fill="#26883E"/>
</g>
</g>
<defs>
<filter id="filter0_d_399_3657" x="4" y="0.797363" width="167" height="167.203" filterUnits="userSpaceOnUse" color-interpolation-filters="sRGB">
<feFlood flood-opacity="0" result="BackgroundImageFix"/>
<feColorMatrix in="SourceAlpha" type="matrix" values="0 0 0 0 0 0 0 0 0 0 0 0 0 0 0 0 0 0 127 0" result="hardAlpha"/>
<feOffset dx="2" dy="5"/>
<feGaussianBlur stdDeviation="4.5"/>
<feComposite in2="hardAlpha" operator="out"/>
<feColorMatrix type="matrix" values="0 0 0 0 0 0 0 0 0 0 0 0 0 0 0 0 0 0 0.25 0"/>
<feBlend mode="normal" in2="BackgroundImageFix" result="effect1_dropShadow_399_3657"/>
<feBlend mode="normal" in="SourceGraphic" in2="effect1_dropShadow_399_3657" result="shape"/>
</filter>
<filter id="filter1_d_399_3657" x="33.7305" y="1.79736" width="131.527" height="149.25" filterUnits="userSpaceOnUse" color-interpolation-filters="sRGB">
<feFlood flood-opacity="0" result="BackgroundImageFix"/>
<feColorMatrix in="SourceAlpha" type="matrix" values="0 0 0 0 0 0 0 0 0 0 0 0 0 0 0 0 0 0 127 0" result="hardAlpha"/>
<feOffset dx="2" dy="7"/>
<feGaussianBlur stdDeviation="5"/>
<feComposite in2="hardAlpha" operator="out"/>
<feColorMatrix type="matrix" values="0 0 0 0 0 0 0 0 0 0 0 0 0 0 0 0 0 0 0.55 0"/>
<feBlend mode="normal" in2="BackgroundImageFix" result="effect1_dropShadow_399_3657"/>
<feBlend mode="normal" in="SourceGraphic" in2="effect1_dropShadow_399_3657" result="shape"/>
</filter>
<filter id="filter2_d_399_3657" x="8.17188" y="5.16602" width="122.656" height="142.514" filterUnits="userSpaceOnUse" color-interpolation-filters="sRGB">
<feFlood flood-opacity="0" result="BackgroundImageFix"/>
<feColorMatrix in="SourceAlpha" type="matrix" values="0 0 0 0 0 0 0 0 0 0 0 0 0 0 0 0 0 0 127 0" result="hardAlpha"/>
<feOffset dx="2" dy="7"/>
<feGaussianBlur stdDeviation="5"/>
<feComposite in2="hardAlpha" operator="out"/>
<feColorMatrix type="matrix" values="0 0 0 0 0 0 0 0 0 0 0 0 0 0 0 0 0 0 0.55 0"/>
<feBlend mode="normal" in2="BackgroundImageFix" result="effect1_dropShadow_399_3657"/>
<feBlend mode="normal" in="SourceGraphic" in2="effect1_dropShadow_399_3657" result="shape"/>
</filter>
<filter id="filter3_di_399_3657" x="0" y="33" width="171" height="129" filterUnits="userSpaceOnUse" color-interpolation-filters="sRGB">
<feFlood flood-opacity="0" result="BackgroundImageFix"/>
<feColorMatrix in="SourceAlpha" type="matrix" values="0 0 0 0 0 0 0 0 0 0 0 0 0 0 0 0 0 0 127 0" result="hardAlpha"/>
<feOffset dy="-7"/>
<feGaussianBlur stdDeviation="5.5"/>
<feComposite in2="hardAlpha" operator="out"/>
<feColorMatrix type="matrix" values="0 0 0 0 0 0 0 0 0 0 0 0 0 0 0 0 0 0 0.25 0"/>
<feBlend mode="normal" in2="BackgroundImageFix" result="effect1_dropShadow_399_3657"/>
<feBlend mode="normal" in="SourceGraphic" in2="effect1_dropShadow_399_3657" result="shape"/>
<feColorMatrix in="SourceAlpha" type="matrix" values="0 0 0 0 0 0 0 0 0 0 0 0 0 0 0 0 0 0 127 0" result="hardAlpha"/>
<feOffset dy="9"/>
<feGaussianBlur stdDeviation="10"/>
<feComposite in2="hardAlpha" operator="arithmetic" k2="-1" k3="1"/>
<feColorMatrix type="matrix" values="0 0 0 0 1 0 0 0 0 1 0 0 0 0 1 0 0 0 0.25 0"/>
<feBlend mode="normal" in2="shape" result="effect2_innerShadow_399_3657"/>
</filter>
</defs>
</svg>
