<svg width="219" height="262" viewBox="0 0 219 262" fill="none" xmlns="http://www.w3.org/2000/svg">
<g style="mix-blend-mode:overlay">
<path d="M76.0944 75.854C74.611 73.2725 72.7612 71.3461 70.5265 70.0746C68.5422 68.9187 66.8471 68.6297 65.46 69.2077L64.9784 69.4389C63.495 70.2865 62.7243 71.9818 62.7243 74.5247V101.399C62.7243 103.942 63.495 106.504 64.9784 109.086C66.4618 111.667 68.311 113.594 70.5265 114.865C72.7612 116.156 74.611 116.368 76.0944 115.501C77.597 114.653 78.3481 112.958 78.3481 110.415V83.5406C78.3481 80.9977 77.597 78.4355 76.0944 75.854ZM76.0944 75.854C74.611 73.2725 72.7612 71.3461 70.5265 70.0746C68.5422 68.9187 66.8471 68.6297 65.46 69.2077L64.9784 69.4389C63.495 70.2865 62.7243 71.9818 62.7243 74.5247V101.399C62.7243 103.942 63.495 106.504 64.9784 109.086C66.4618 111.667 68.311 113.594 70.5265 114.865C72.7612 116.156 74.611 116.368 76.0944 115.501C77.597 114.653 78.3481 112.958 78.3481 110.415V83.5406C78.3481 80.9977 77.597 78.4355 76.0944 75.854ZM76.0944 75.854C74.611 73.2725 72.7612 71.3461 70.5265 70.0746C68.5422 68.9187 66.8471 68.6297 65.46 69.2077L64.9784 69.4389C63.495 70.2865 62.7243 71.9818 62.7243 74.5247V101.399C62.7243 103.942 63.495 106.504 64.9784 109.086C66.4618 111.667 68.311 113.594 70.5265 114.865C72.7612 116.156 74.611 116.368 76.0944 115.501C77.597 114.653 78.3481 112.958 78.3481 110.415V83.5406C78.3481 80.9977 77.597 78.4355 76.0944 75.854ZM76.0944 75.854C74.611 73.2725 72.7612 71.3461 70.5265 70.0746C68.5422 68.9187 66.8471 68.6297 65.46 69.2077L64.9784 69.4389C63.495 70.2865 62.7243 71.9818 62.7243 74.5247V101.399C62.7243 103.942 63.495 106.504 64.9784 109.086C66.4618 111.667 68.311 113.594 70.5265 114.865C72.7612 116.156 74.611 116.368 76.0944 115.501C77.597 114.653 78.3481 112.958 78.3481 110.415V83.5406C78.3481 80.9977 77.597 78.4355 76.0944 75.854ZM76.0944 75.854C74.611 73.2725 72.7612 71.3461 70.5265 70.0746C68.5422 68.9187 66.8471 68.6297 65.46 69.2077L64.9784 69.4389C63.495 70.2865 62.7243 71.9818 62.7243 74.5247V101.399C62.7243 103.942 63.495 106.504 64.9784 109.086C66.4618 111.667 68.311 113.594 70.5265 114.865C72.7612 116.156 74.611 116.368 76.0944 115.501C77.597 114.653 78.3481 112.958 78.3481 110.415V83.5406C78.3481 80.9977 77.597 78.4355 76.0944 75.854ZM76.0944 75.854C74.611 73.2725 72.7612 71.3461 70.5265 70.0746C68.5422 68.9187 66.8471 68.6297 65.46 69.2077L64.9784 69.4389C63.495 70.2865 62.7243 71.9818 62.7243 74.5247V101.399C62.7243 103.942 63.495 106.504 64.9784 109.086C66.4618 111.667 68.311 113.594 70.5265 114.865C72.7612 116.156 74.611 116.368 76.0944 115.501C77.597 114.653 78.3481 112.958 78.3481 110.415V83.5406C78.3481 80.9977 77.597 78.4355 76.0944 75.854ZM76.0944 75.854C74.611 73.2725 72.7612 71.3461 70.5265 70.0746C68.5422 68.9187 66.8471 68.6297 65.46 69.2077L64.9784 69.4389C63.495 70.2865 62.7243 71.9818 62.7243 74.5247V101.399C62.7243 103.942 63.495 106.504 64.9784 109.086C66.4618 111.667 68.311 113.594 70.5265 114.865C72.7612 116.156 74.611 116.368 76.0944 115.501C77.597 114.653 78.3481 112.958 78.3481 110.415V83.5406C78.3481 80.9977 77.597 78.4355 76.0944 75.854ZM76.0944 75.854C74.611 73.2725 72.7612 71.3461 70.5265 70.0746C68.5422 68.9187 66.8471 68.6297 65.46 69.2077L64.9784 69.4389C63.495 70.2865 62.7243 71.9818 62.7243 74.5247V101.399C62.7243 103.942 63.495 106.504 64.9784 109.086C66.4618 111.667 68.311 113.594 70.5265 114.865C72.7612 116.156 74.611 116.368 76.0944 115.501C77.597 114.653 78.3481 112.958 78.3481 110.415V83.5406C78.3481 80.9977 77.597 78.4355 76.0944 75.854ZM76.0944 75.854C74.611 73.2725 72.7612 71.3461 70.5265 70.0746C68.5422 68.9187 66.8471 68.6297 65.46 69.2077L64.9784 69.4389C63.495 70.2865 62.7243 71.9818 62.7243 74.5247V101.399C62.7243 103.942 63.495 106.504 64.9784 109.086C66.4618 111.667 68.311 113.594 70.5265 114.865C72.7612 116.156 74.611 116.368 76.0944 115.501C77.597 114.653 78.3481 112.958 78.3481 110.415V83.5406C78.3481 80.9977 77.597 78.4355 76.0944 75.854ZM53.5543 27.3262L56.213 25.9969C55.3075 26.3822 54.4212 26.8446 53.5543 27.3262ZM76.0944 75.854C74.611 73.2725 72.7612 71.3461 70.5265 70.0746C68.5422 68.9187 66.8471 68.6297 65.46 69.2077L64.9784 69.4389C63.495 70.2865 62.7243 71.9818 62.7243 74.5247V101.399C62.7243 103.942 63.495 106.504 64.9784 109.086C66.4618 111.667 68.311 113.594 70.5265 114.865C72.7612 116.156 74.611 116.368 76.0944 115.501C77.597 114.653 78.3481 112.958 78.3481 110.415V83.5406C78.3481 80.9977 77.597 78.4355 76.0944 75.854ZM76.0944 75.854C74.611 73.2725 72.7612 71.3461 70.5265 70.0746C68.5422 68.9187 66.8471 68.6297 65.46 69.2077L64.9784 69.4389C63.495 70.2865 62.7243 71.9818 62.7243 74.5247V101.399C62.7243 103.942 63.495 106.504 64.9784 109.086C66.4618 111.667 68.311 113.594 70.5265 114.865C72.7612 116.156 74.611 116.368 76.0944 115.501C77.597 114.653 78.3481 112.958 78.3481 110.415V83.5406C78.3481 80.9977 77.597 78.4355 76.0944 75.854ZM76.0944 75.854C74.611 73.2725 72.7612 71.3461 70.5265 70.0746C68.5422 68.9187 66.8471 68.6297 65.46 69.2077L64.9784 69.4389C63.495 70.2865 62.7243 71.9818 62.7243 74.5247V101.399C62.7243 103.942 63.495 106.504 64.9784 109.086C66.4618 111.667 68.311 113.594 70.5265 114.865C72.7612 116.156 74.611 116.368 76.0944 115.501C77.597 114.653 78.3481 112.958 78.3481 110.415V83.5406C78.3481 80.9977 77.597 78.4355 76.0944 75.854ZM76.0944 75.854C74.611 73.2725 72.7612 71.3461 70.5265 70.0746C68.5422 68.9187 66.8471 68.6297 65.46 69.2077L64.9784 69.4389C63.495 70.2865 62.7243 71.9818 62.7243 74.5247V101.399C62.7243 103.942 63.495 106.504 64.9784 109.086C66.4618 111.667 68.311 113.594 70.5265 114.865C72.7612 116.156 74.611 116.368 76.0944 115.501C77.597 114.653 78.3481 112.958 78.3481 110.415V83.5406C78.3481 80.9977 77.597 78.4355 76.0944 75.854ZM76.0944 75.854C74.611 73.2725 72.7612 71.3461 70.5265 70.0746C68.5422 68.9187 66.8471 68.6297 65.46 69.2077L64.9784 69.4389C63.495 70.2865 62.7243 71.9818 62.7243 74.5247V101.399C62.7243 103.942 63.495 106.504 64.9784 109.086C66.4618 111.667 68.311 113.594 70.5265 114.865C72.7612 116.156 74.611 116.368 76.0944 115.501C77.597 114.653 78.3481 112.958 78.3481 110.415V83.5406C78.3481 80.9977 77.597 78.4355 76.0944 75.854ZM76.0944 75.854C74.611 73.2725 72.7612 71.3461 70.5265 70.0746C68.5422 68.9187 66.8471 68.6297 65.46 69.2077L64.9784 69.4389C63.495 70.2865 62.7243 71.9818 62.7243 74.5247V101.399C62.7243 103.942 63.495 106.504 64.9784 109.086C66.4618 111.667 68.311 113.594 70.5265 114.865C72.7612 116.156 74.611 116.368 76.0944 115.501C77.597 114.653 78.3481 112.958 78.3481 110.415V83.5406C78.3481 80.9977 77.597 78.4355 76.0944 75.854ZM76.0944 75.854C74.611 73.2725 72.7612 71.3461 70.5265 70.0746C68.5422 68.9187 66.8471 68.6297 65.46 69.2077L64.9784 69.4389C63.495 70.2865 62.7243 71.9818 62.7243 74.5247V101.399C62.7243 103.942 63.495 106.504 64.9784 109.086C66.4618 111.667 68.311 113.594 70.5265 114.865C72.7612 116.156 74.611 116.368 76.0944 115.501C77.597 114.653 78.3481 112.958 78.3481 110.415V83.5406C78.3481 80.9977 77.597 78.4355 76.0944 75.854ZM76.0944 75.854C74.611 73.2725 72.7612 71.3461 70.5265 70.0746C68.5422 68.9187 66.8471 68.6297 65.46 69.2077L64.9784 69.4389C63.495 70.2865 62.7243 71.9818 62.7243 74.5247V101.399C62.7243 103.942 63.495 106.504 64.9784 109.086C66.4618 111.667 68.311 113.594 70.5265 114.865C72.7612 116.156 74.611 116.368 76.0944 115.501C77.597 114.653 78.3481 112.958 78.3481 110.415V83.5406C78.3481 80.9977 77.597 78.4355 76.0944 75.854ZM76.0944 75.854C74.611 73.2725 72.7612 71.3461 70.5265 70.0746C68.5422 68.9187 66.8471 68.6297 65.46 69.2077L64.9784 69.4389C63.495 70.2865 62.7243 71.9818 62.7243 74.5247V101.399C62.7243 103.942 63.495 106.504 64.9784 109.086C66.4618 111.667 68.311 113.594 70.5265 114.865C72.7612 116.156 74.611 116.368 76.0944 115.501C77.597 114.653 78.3481 112.958 78.3481 110.415V83.5406C78.3481 80.9977 77.597 78.4355 76.0944 75.854ZM76.0944 75.854C74.611 73.2725 72.7612 71.3461 70.5265 70.0746C68.5422 68.9187 66.8471 68.6297 65.46 69.2077L64.9784 69.4389C63.495 70.2865 62.7243 71.9818 62.7243 74.5247V101.399C62.7243 103.942 63.495 106.504 64.9784 109.086C66.4618 111.667 68.311 113.594 70.5265 114.865C72.7612 116.156 74.611 116.368 76.0944 115.501C77.597 114.653 78.3481 112.958 78.3481 110.415V83.5406C78.3481 80.9977 77.597 78.4355 76.0944 75.854Z" stroke="white" stroke-width="1.77828" stroke-linecap="round" stroke-linejoin="round"/>
<path d="M186.095 243.417L147.277 176.416C150.86 173.198 153.769 169.056 155.966 163.99C156.293 163.219 156.601 162.429 156.929 161.601C158.74 156.708 159.857 151.102 160.185 144.783C160.3 143.184 160.339 141.527 160.339 139.832C160.339 137.366 160.242 134.881 160.049 132.396C159.818 129.101 159.414 125.769 158.836 122.436C158.104 118.275 157.141 114.094 155.927 109.914C154.444 104.828 152.594 99.7228 150.34 94.5984C148.548 90.4565 146.487 86.2953 144.195 82.1148C143.559 80.9204 142.865 79.7068 142.172 78.5123C137.972 71.2688 133.445 64.661 128.591 58.7275C126.722 56.3965 124.776 54.181 122.772 52.0619C115.182 43.9515 106.879 37.3051 97.863 32.0844C97.7281 32.0073 97.574 31.911 97.4199 31.834C90.5809 27.9232 84.1851 25.3418 78.1552 24.051C70.2181 22.375 63.0131 22.9722 56.4824 25.8619L56.3865 25.9002L56.2129 25.9968L53.5542 27.326C41.4559 34.2421 35.3876 47.6888 35.3876 67.7048C35.3876 87.7209 41.4559 108.161 53.5542 129.044C65.6524 149.907 80.4284 165.377 97.863 175.452C105.145 179.652 112.042 182.33 118.553 183.486C125.065 184.622 130.999 184.353 136.335 182.638L175.192 249.659C176.598 252.125 178.428 253.996 180.644 255.267C182.84 256.558 184.67 256.787 186.095 255.959C187.54 255.149 188.272 253.475 188.272 250.932C188.272 248.389 187.54 245.883 186.095 243.417ZM143.964 140.448C143.906 140.949 143.809 141.431 143.694 141.893C142.519 147.904 140.207 152.759 136.835 156.438C135.159 158.249 133.233 159.771 131.056 161.004C121.944 166.205 110.886 165.049 97.863 157.536C84.8401 150.023 73.7821 138.406 64.6699 122.686C55.5577 106.986 51.0114 91.6509 51.0114 76.7207C51.0114 61.7906 55.5577 51.7151 64.6699 46.5329C67.5789 44.8762 70.7192 43.8551 74.0713 43.4891C79.0801 42.9497 84.59 43.9129 90.5813 46.3788C92.9509 47.3421 95.3586 48.5557 97.863 50.0006C98.7684 50.5207 99.6933 51.0601 100.58 51.6381C100.946 51.8693 101.311 52.1195 101.697 52.3892C104.509 54.2194 107.207 56.2807 109.846 58.5347C112.254 60.6345 114.623 62.9079 116.877 65.3738C121.077 69.901 124.969 75.0447 128.591 80.7856C129.419 82.0956 130.247 83.4634 131.056 84.8504C134.1 90.0904 136.662 95.2919 138.666 100.455C140.149 104.25 141.363 108.026 142.287 111.783C143.925 118.198 144.715 124.555 144.715 130.816C144.715 134.284 144.484 137.501 143.964 140.448Z" stroke="white" stroke-width="1.77828" stroke-linecap="round" stroke-linejoin="round"/>
<path d="M144.715 130.816C144.715 134.284 144.484 137.501 143.963 140.448L142.287 141.296H142.268L130.748 147.056C132.25 146.209 133.002 144.513 133.002 141.97V124.054C133.002 121.839 132.443 119.604 131.287 117.35C131.114 117.023 130.96 116.695 130.748 116.367C129.264 113.786 127.415 111.86 125.219 110.588C123.216 109.451 121.501 109.162 120.094 109.721L130.305 104.616L138.666 100.455C140.149 104.25 141.362 108.026 142.287 111.782C143.925 118.198 144.715 124.555 144.715 130.816Z" stroke="white" stroke-width="1.77828" stroke-linecap="round" stroke-linejoin="round"/>
<path d="M143.694 141.893C142.519 147.904 140.207 152.758 136.835 156.438C135.159 158.249 133.233 159.771 131.056 161.004C121.944 166.205 110.886 165.049 97.8629 157.536C84.84 150.023 73.782 138.406 64.6698 122.686C55.5576 106.986 51.0114 91.6507 51.0114 76.7205C51.0114 61.7904 55.5576 51.715 64.6698 46.5327C67.5788 44.876 70.7191 43.855 74.0712 43.4889C79.08 42.9495 84.5899 43.9127 90.5813 46.3786C89.8877 49.6344 89.5793 53.2176 89.5408 57.1476L65.4599 69.2073L64.9783 69.4385C63.4949 70.2861 62.7241 71.9816 62.7241 74.5246V101.399C62.7241 103.942 63.4949 106.504 64.9783 109.085C66.4616 111.667 68.3109 113.593 70.5263 114.865C72.761 116.156 74.6108 116.367 76.0942 115.5L90.0611 108.527V117.176C90.0611 119.719 90.793 122.282 92.2956 124.863C93.8175 127.445 95.6475 129.371 97.8629 130.643C100.098 131.933 101.928 132.145 103.45 131.278L106.031 129.987L117.398 124.304V132.954C117.398 135.497 118.129 138.06 119.632 140.641C121.135 143.223 122.984 145.149 125.219 146.42C127.415 147.711 129.264 147.923 130.748 147.056L142.268 141.296H142.287C142.75 141.508 143.231 141.7 143.694 141.893Z" stroke="white" stroke-width="1.77828" stroke-linecap="round" stroke-linejoin="round"/>
<path d="M138.666 100.454L130.305 104.616L120.094 109.721L119.632 109.952C118.129 110.8 117.397 112.495 117.397 115.038V124.304L106.031 129.987L103.45 131.278C104.278 130.796 104.895 130.045 105.241 129.005C105.53 128.234 105.665 127.29 105.665 126.192V81.4017C105.665 78.8587 104.914 76.2965 103.45 73.7151C102.776 72.5977 102.063 71.5959 101.253 70.729C100.252 69.5924 99.1344 68.6484 97.8629 67.9356C95.8786 66.7798 94.1643 66.4908 92.7579 67.0687L101.253 62.8305L109.846 58.5345C112.254 60.6343 114.623 62.9075 116.877 65.3734C121.077 69.9006 124.969 75.0443 128.59 80.7852C129.419 82.0952 130.247 83.463 131.056 84.85C134.1 90.09 136.662 95.2915 138.666 100.454Z" stroke="white" stroke-width="1.77828" stroke-linecap="round" stroke-linejoin="round"/>
<path d="M109.846 58.535L101.254 62.8313L92.7581 67.0695L92.2957 67.3007C91.4673 67.763 90.8703 68.4951 90.5428 69.4776C90.2153 70.2674 90.0612 71.2497 90.0612 72.3864V108.527L76.0943 115.501C77.5969 114.653 78.3481 112.958 78.3481 110.415V83.5408C78.3481 80.9979 77.5969 78.4357 76.0943 75.8542C74.6109 73.2727 72.7611 71.3463 70.5264 70.0748C68.5421 68.9189 66.847 68.6299 65.46 69.2079L89.5408 57.1482L100.58 51.6385C100.946 51.8696 101.311 52.1199 101.697 52.3896C104.509 54.2197 107.207 56.2811 109.846 58.535Z" stroke="white" stroke-width="1.77828" stroke-linecap="round" stroke-linejoin="round"/>
<path d="M198.868 120.567C198.868 128.928 197.731 136.191 195.458 142.336C193.166 148.501 189.949 153.433 185.807 157.151L171.666 164.202L147.277 176.416C150.86 173.198 153.769 169.056 155.966 163.99C156.293 163.219 156.601 162.429 156.929 161.601C158.74 156.708 159.857 151.102 160.185 144.783C160.3 143.184 160.339 141.527 160.339 139.832C160.339 137.366 160.242 134.881 160.05 132.396C159.818 129.101 159.414 125.769 158.836 122.436C158.104 118.275 157.141 114.094 155.927 109.914C154.444 104.828 152.594 99.7228 150.34 94.5984C148.549 90.4565 146.487 86.2953 144.195 82.1148C143.559 80.9204 142.865 79.7068 142.172 78.5123C137.972 71.2688 133.445 64.661 128.591 58.7275C126.722 56.3965 124.776 54.181 122.773 52.0619C115.182 43.9515 106.879 37.3051 97.8631 32.0844C97.7282 32.0073 97.5741 31.911 97.42 31.834C90.581 27.9232 84.1851 25.3418 78.1553 24.051C70.2182 22.375 63.0132 22.9722 56.4825 25.8619L93.9527 7.07882C105.685 1.33793 119.844 3.26437 136.392 12.8197C153.827 22.8951 168.603 38.3647 180.701 59.2476C192.819 80.1113 198.868 100.551 198.868 120.567Z" stroke="white" stroke-width="1.77828" stroke-linecap="round" stroke-linejoin="round"/>
<path d="M226.802 231.666C226.802 234.209 226.069 235.885 224.625 236.694L186.095 255.959C187.54 255.149 188.273 253.473 188.273 250.93C188.273 248.388 187.54 245.883 186.095 243.417L147.277 176.415L171.666 164.201L185.807 157.15L224.625 224.153C226.069 226.618 226.802 229.123 226.802 231.666Z" stroke="white" stroke-width="1.77828" stroke-linecap="round" stroke-linejoin="round"/>
<path d="M133.002 124.054V141.97C133.002 144.513 132.25 146.208 130.748 147.056C129.264 147.923 127.415 147.711 125.219 146.42C122.985 145.149 121.135 143.222 119.632 140.641C118.129 138.059 117.398 135.497 117.398 132.954V115.038C117.398 112.495 118.129 110.8 119.632 109.952L120.094 109.721C121.501 109.162 123.216 109.451 125.219 110.588C127.415 111.859 129.264 113.786 130.748 116.367C130.96 116.695 131.114 117.022 131.287 117.35C132.443 119.604 133.002 121.838 133.002 124.054Z" stroke="white" stroke-width="1.77828" stroke-linecap="round" stroke-linejoin="round"/>
<path d="M105.665 81.4022V126.193C105.665 127.291 105.531 128.235 105.242 129.005C104.895 130.045 104.278 130.797 103.45 131.278C101.928 132.145 100.098 131.934 97.8631 130.643C95.6477 129.371 93.8177 127.445 92.2958 124.863C90.7931 122.282 90.0613 119.72 90.0613 117.177V72.3862C90.0613 71.2495 90.2154 70.2672 90.5429 69.4774C90.8704 68.4949 91.4674 67.7628 92.2958 67.3005L92.7581 67.0693C94.1645 66.4914 95.8788 66.7801 97.8631 67.936C99.1346 68.6488 100.252 69.5928 101.254 70.7294C102.063 71.5963 102.776 72.5981 103.45 73.7154C104.914 76.2969 105.665 78.8593 105.665 81.4022Z" stroke="white" stroke-width="1.77828" stroke-linecap="round" stroke-linejoin="round"/>
<path d="M100.58 51.6385L89.5409 57.1482" stroke="white" stroke-width="1.77828" stroke-linecap="round" stroke-linejoin="round"/>
</g>
</svg>
