<svg width="64" height="64" viewBox="0 0 64 64" fill="none" xmlns="http://www.w3.org/2000/svg">
<g id="Frame">
<path id="Vector" d="M37.0879 55.0101V57.0388C37.0879 58.434 36.6592 59.3812 35.7888 59.874C34.9248 60.3668 33.8815 60.2644 32.6655 59.5604L6.12473 44.2388C4.90874 43.5348 3.86545 42.4405 3.00145 40.9429C2.13745 39.4517 1.70239 38.0053 1.70239 36.6101V34.5812C1.70239 33.1412 2.0224 32.0021 2.6688 31.1701C3.0016 30.7413 3.38548 30.4277 3.82708 30.2165L3.87192 30.1972C4.28152 30.0052 4.73585 29.9029 5.24145 29.8965C7.52623 29.9029 9.84955 30.2612 12.2048 30.9652C13.0304 31.2148 13.8623 31.5028 14.7007 31.842C16.2495 32.4564 17.8176 33.2244 19.3984 34.1332C21.8304 35.5412 24.2239 37.25 26.5855 39.266C28.9407 41.2884 31.264 43.6116 33.5488 46.242C33.568 46.2676 33.5935 46.2932 33.6127 46.3188C34.6495 47.5476 35.4878 48.9428 36.1214 50.4852C36.7678 52.066 37.0879 53.5701 37.0879 55.0101Z" fill="#F2F2F7" stroke="#34C759" stroke-width="1.92" stroke-linecap="round" stroke-linejoin="round"/>
<path id="Vector_2" d="M49.8878 48.61V50.6387C49.8878 52.0339 49.4591 52.9811 48.5887 53.4739L48.3134 53.6083L35.7887 59.8739C36.6591 59.3811 37.0878 58.4339 37.0878 57.0387V55.01C37.0878 53.57 36.7678 52.0659 36.1214 50.4851C35.4878 48.9427 34.6494 47.5475 33.6126 46.3187C33.5934 46.2931 33.5679 46.2675 33.5487 46.2419C31.2639 43.6115 28.9406 41.2883 26.5854 39.2659C24.2238 37.2499 21.8302 35.5411 19.3982 34.1331C17.8174 33.2243 16.2494 32.4563 14.7006 31.8419C13.8622 31.5027 13.0302 31.2147 12.2046 30.9651C9.84943 30.2611 7.52616 29.9028 5.24136 29.8964C4.73576 29.9028 4.28143 30.0051 3.87183 30.1971L13.395 25.4292C13.7662 26.0436 14.1566 26.626 14.5598 27.1636C15.9806 29.0772 17.5934 30.5555 19.3982 31.5987C21.8302 33.0003 23.9102 33.2115 25.6446 32.2195C25.6446 32.2195 25.6575 32.2131 25.6831 32.2003L25.7214 32.1811C26.1822 31.9507 28.7294 30.6835 31.411 29.3395C31.3982 29.4035 31.3982 29.4739 31.3982 29.5443C31.3982 30.2419 31.6158 30.9715 32.0574 31.7395L36.7614 39.8419C37.203 40.6099 37.7151 41.1603 38.3039 41.4995C38.8991 41.8387 39.411 41.8835 39.8526 41.6339L45.459 38.8307C45.7534 39.1635 46.0543 39.5027 46.3487 39.8419C47.4175 41.0899 48.275 42.5107 48.9214 44.0851C49.5678 45.6659 49.8878 47.17 49.8878 48.61Z" fill="#F2F2F7" stroke="#34C759" stroke-width="1.92" stroke-linecap="round" stroke-linejoin="round"/>
<path id="Vector_3" d="M49.9197 34.8502C49.9197 35.5478 49.6957 36.0214 49.2541 36.271L45.2159 38.5749L39.8525 41.6341C39.4109 41.8837 38.899 41.839 38.3038 41.4998C37.715 41.1606 37.2029 40.6101 36.7613 39.8421L32.0574 31.7398C31.6158 30.9718 31.3982 30.2422 31.3982 29.5446C31.3982 29.4742 31.3982 29.4038 31.411 29.3398C31.443 28.751 31.6606 28.3478 32.0574 28.1238L32.1982 28.0533C32.3198 28.0021 32.4479 27.9702 32.5823 27.9638C32.8895 27.9446 33.2349 28.0406 33.5997 28.2454H33.6061C34.0413 28.495 34.4382 28.8662 34.7966 29.3526C34.9182 29.519 35.0397 29.7046 35.1549 29.903L38.3038 35.3366L40.6525 33.9798L46.1054 30.831L46.2461 30.7605C46.6557 30.5877 47.1357 30.6646 47.6797 30.9782C47.9805 31.151 48.2622 31.375 48.5246 31.6502H48.531C48.7934 31.9382 49.0301 32.2709 49.2541 32.6485C49.4653 33.0133 49.6317 33.3782 49.7405 33.7302C49.8621 34.1142 49.9197 34.4854 49.9197 34.8438V34.8502Z" fill="#F2F2F7" stroke="#34C759" stroke-width="1.92" stroke-linecap="round" stroke-linejoin="round"/>
<path id="Vector_4" d="M62.7197 28.4501C62.7197 29.1477 62.4957 29.6213 62.0541 29.8709L52.6525 35.234L39.8525 41.634L45.2159 38.5748L49.2541 36.2709C49.6957 36.0213 49.9197 35.5477 49.9197 34.8501C49.9197 34.4917 49.8621 34.1205 49.7405 33.7365C49.6317 33.3845 49.4653 33.0196 49.2541 32.6548C49.0301 32.2772 48.7934 31.9445 48.531 31.6629H48.5246C48.2622 31.3813 47.9805 31.1573 47.6797 30.9845C47.1357 30.6709 46.6557 30.594 46.2461 30.7668L47.6094 30.082L50.8349 28.4757L58.9054 24.4373C59.347 24.1813 59.8717 24.2325 60.4797 24.5845C61.0877 24.9365 61.6125 25.4932 62.0541 26.2548C62.4957 27.0164 62.7197 27.7525 62.7197 28.4501Z" fill="#F2F2F7" stroke="#34C759" stroke-width="1.92" stroke-linecap="round" stroke-linejoin="round"/>
<path id="Vector_5" d="M50.8352 28.4759L47.6097 30.0822L46.2464 30.7671L46.1056 30.8375L40.6528 33.9863L38.3041 35.3431L35.1552 29.9095C35.04 29.7111 34.9185 29.5255 34.7969 29.3591C34.4385 28.8727 34.0416 28.5015 33.6064 28.2519H33.6C33.2352 28.0471 32.8897 27.9511 32.5825 27.9703C32.4481 27.9767 32.3201 28.0087 32.1985 28.0599L32.4928 27.9127L35.5136 26.4022L40.1985 24.0599L44.8577 21.7303C45.2993 21.4743 45.8176 21.5191 46.4064 21.8583C46.9952 22.1975 47.5136 22.7543 47.9552 23.5159L50.8352 28.4822V28.4759Z" fill="#F2F2F7" stroke="#34C759" stroke-width="1.92" stroke-linecap="round" stroke-linejoin="round"/>
<path id="Vector_6" d="M28.2432 26.5492C28.2432 29.3076 27.4047 31.1763 25.7215 32.1811L25.6832 32.2004L25.6448 32.2196C23.9104 33.2115 21.8304 33.0003 19.3984 31.5987C17.5936 30.5555 15.9807 29.0772 14.5599 27.1636C14.1567 26.626 13.7663 26.0436 13.3951 25.4292C13.3119 25.2948 13.2287 25.1476 13.1455 25.0068C11.4175 22.018 10.5471 19.1251 10.5471 16.3347C10.5471 13.5443 11.4175 11.6564 13.1455 10.6644L13.5104 10.4851C15.168 9.71075 17.1328 9.98595 19.3984 11.2916C21.5616 12.5459 23.4496 14.4212 25.0624 16.93C25.2608 17.2436 25.4528 17.5572 25.6448 17.8836C25.9776 18.4532 26.2783 19.0228 26.5407 19.586C27.5391 21.6852 28.1024 23.7332 28.2176 25.7364C28.2368 26.0052 28.2432 26.2804 28.2432 26.5492Z" fill="#F2F2F7" stroke="#34C759" stroke-width="1.92" stroke-linecap="round" stroke-linejoin="round"/>
<path id="Vector_7" d="M41.0435 20.1493C41.0435 21.7493 40.7619 23.0484 40.1987 24.0532L35.5138 26.3957L32.4931 27.906L32.1987 28.0532L32.0579 28.1237C31.6611 28.3477 31.4435 28.7508 31.4115 29.3396C28.7299 30.6836 26.1826 31.9508 25.7218 32.1812C27.405 31.1764 28.2435 29.3077 28.2435 26.5493C28.2435 26.2805 28.2435 26.0053 28.2179 25.7365C28.1027 23.7333 27.5394 21.6853 26.541 19.5861C26.2786 19.0229 25.9779 18.4533 25.6451 17.8837C25.4531 17.5573 25.2611 17.2437 25.0627 16.9365C23.4499 14.4213 21.5619 12.5461 19.3987 11.2917C17.1331 9.98607 15.1683 9.71087 13.5107 10.4853L25.9459 4.26448C27.6803 3.27888 29.7667 3.49007 32.1987 4.89167C34.6307 6.29967 36.7107 8.4949 38.4451 11.4837C40.1795 14.4725 41.0435 17.3589 41.0435 20.1493Z" fill="#F2F2F7" stroke="#34C759" stroke-width="1.92" stroke-linecap="round" stroke-linejoin="round"/>
</g>
</svg>
