<svg xmlns="http://www.w3.org/2000/svg" width="82" height="80" viewBox="0 0 82 80">
  <g id="Chat_Bot" data-name="Chat Bot" transform="translate(1999.87 -1650.813)">
    <g id="Rectangle_55" data-name="Rectangle 55" transform="translate(-1974.87 1672.813)" fill="#01099b" stroke="#fff" stroke-width="3">
      <path d="M28.5,0h0A28.5,28.5,0,0,1,57,28.5V53.448A4.552,4.552,0,0,1,52.448,58H28.5A28.5,28.5,0,0,1,0,29.5v-1A28.5,28.5,0,0,1,28.5,0Z" stroke="none"/>
      <path d="M28.5,1.5h0a27,27,0,0,1,27,27V52.426A4.074,4.074,0,0,1,51.426,56.5H28.5a27,27,0,0,1-27-27v-1A27,27,0,0,1,28.5,1.5Z" fill="none"/>
    </g>
    <g id="Rectangle_54" data-name="Rectangle 54" transform="translate(-1999.87 1650.813)" fill="#09ff39" stroke="#fff" stroke-width="3">
      <path d="M36.5,0h0A36.5,36.5,0,0,1,73,36.5v0A36.5,36.5,0,0,1,36.5,73H5.83A5.83,5.83,0,0,1,0,67.17V36.5A36.5,36.5,0,0,1,36.5,0Z" stroke="none"/>
      <path d="M36.5,1.5h0a35,35,0,0,1,35,35v0a35,35,0,0,1-35,35H6.781A5.281,5.281,0,0,1,1.5,66.219V36.5a35,35,0,0,1,35-35Z" fill="none"/>
    </g>
    <g id="Group_50" data-name="Group 50" transform="translate(-1983.742 1681.931)">
      <circle id="Ellipse_46" data-name="Ellipse 46" cx="5.5" cy="5.5" r="5.5" transform="translate(-0.128 -0.117)" fill="#fff"/>
      <circle id="Ellipse_47" data-name="Ellipse 47" cx="5.5" cy="5.5" r="5.5" transform="translate(14.872 -0.117)" fill="#fff"/>
      <ellipse id="Ellipse_48" data-name="Ellipse 48" cx="5" cy="5.5" rx="5" ry="5.5" transform="translate(29.872 -0.117)" fill="#fff"/>
    </g>
  </g>
</svg>
