<svg width="151" height="150" viewBox="0 0 151 150" fill="none" xmlns="http://www.w3.org/2000/svg">
<path d="M75.5 121.99C103.819 121.99 126.776 112.984 126.776 101.875C126.776 90.7657 103.819 81.7598 75.5 81.7598C47.1809 81.7598 24.2236 90.7657 24.2236 101.875C24.2236 112.984 47.1809 121.99 75.5 121.99Z" fill="white"/>
<path d="M42.2621 89.2291C41.9565 88.7333 41.3065 88.5791 40.8093 88.8847L39.9107 89.4388L39.3565 88.5402C39.051 88.0444 38.401 87.8902 37.9037 88.1958C37.4079 88.5013 37.2537 89.1513 37.5593 89.6485L38.1135 90.5472L39.2218 92.3444L41.019 91.2361L41.9176 90.6819C42.4135 90.3749 42.5676 89.7249 42.2621 89.2291Z" fill="#34C759"/>
<path d="M44.4018 53.8206H40.4365L44.7004 51.947L44.4018 53.8206Z" fill="#2C802C"/>
<path d="M44.4016 54.1332H40.4364C40.2891 54.1332 40.1614 54.0291 40.1308 53.8846C40.1002 53.7402 40.1752 53.5943 40.3114 53.5346L44.5752 51.6624C44.6794 51.6166 44.8016 51.6318 44.8919 51.7013C44.9822 51.7707 45.028 51.8846 45.01 51.9985L44.7114 53.8707C44.685 54.0207 44.5544 54.1332 44.4016 54.1332ZM41.9239 53.5082H44.1336L44.3002 52.4652L41.9239 53.5082Z" fill="#EAF4EA"/>
<path d="M97.7179 30.6304L94.3484 51.7623L94.0193 53.8207L93.6123 56.3734L95.2081 55.4415L97.3151 58.3137L97.6429 56.2554L101.014 35.1234L97.7179 30.6304Z" fill="#EAF4EA"/>
<path d="M97.315 58.6263C97.2164 58.6263 97.1233 58.5804 97.0636 58.4985L95.1233 55.8527L93.7705 56.6429C93.6664 56.704 93.5358 56.6999 93.4358 56.6304C93.3358 56.561 93.2844 56.4429 93.3039 56.3235L97.4094 30.5804C97.4289 30.4554 97.5219 30.3554 97.6441 30.3263C97.7664 30.2971 97.8955 30.3429 97.9691 30.4457L101.265 34.9388C101.315 35.0054 101.334 35.0902 101.322 35.1735L97.6233 58.3638C97.6039 58.4888 97.5108 58.5888 97.3886 58.6179C97.3636 58.6235 97.34 58.6263 97.315 58.6263ZM95.208 55.129C95.3053 55.129 95.3997 55.1735 95.4608 55.2568L97.1247 57.5263L100.684 35.204L97.908 31.4193L94.0247 55.7707L95.0497 55.1707C95.0997 55.1429 95.1539 55.129 95.208 55.129Z" fill="#EAF4EA"/>
<path d="M40.4336 53.8208H44.4017L43.9933 56.3777L40.4336 53.8208Z" fill="#A0CBA0"/>
<path d="M43.993 56.6902C43.9292 56.6902 43.8653 56.6708 43.8111 56.6319L40.2514 54.075C40.1417 53.9958 40.0944 53.8541 40.1361 53.725C40.1778 53.5958 40.2972 53.5083 40.4333 53.5083H44.4C44.4917 53.5083 44.5778 53.5486 44.6375 53.618C44.6972 53.6875 44.7222 53.7791 44.7083 53.8694L44.3 56.4264C44.2833 56.5333 44.2111 56.6236 44.1111 56.6652C44.075 56.6819 44.0333 56.6902 43.993 56.6902ZM41.4042 54.1333L43.7639 55.8277L44.0347 54.1333H41.4042Z" fill="#EAF4EA"/>
<path d="M97.7182 30.6306L94.3487 51.7626L94.0196 53.8209L93.6126 56.3737L72.2293 68.8723H63.4098L63.2015 70.1778L43.9932 56.3778L44.4015 53.8209L44.7001 51.9473L46.0598 43.4153H59.0876L61.0918 30.8473L61.3529 30.6306H97.7182Z" fill="#EAF4EA"/>
<path d="M62.5023 74.5569L59.894 90.9124H34.5176L53.0592 80.0763L62.5023 74.5569Z" fill="#74B374"/>
<path d="M59.894 90.9126L63.1898 95.4056H37.8134L34.5176 90.9126H59.894Z" fill="#A0CBA0"/>
<path d="M63.8069 95.7182H37.6555L33.9014 90.6001H60.0528L63.8069 95.7182ZM37.9722 95.0932H62.5736L59.7361 91.2251H35.1347L37.9722 95.0932Z" fill="#EAF4EA"/>
<path d="M97.9824 53.8208L101.278 58.3139L98.8769 73.3652L95.5811 68.8722L97.9824 53.8208Z" fill="#A0CBA0"/>
<path d="M98.8764 73.6778C98.7778 73.6778 98.6847 73.632 98.625 73.55L95.3292 69.057C95.2792 68.9903 95.2597 68.9056 95.2722 68.8223L97.6722 53.7709C97.6917 53.6459 97.7847 53.5459 97.907 53.5167C98.0292 53.4875 98.1583 53.5334 98.232 53.6361L101.528 58.1292C101.578 58.1959 101.597 58.2806 101.585 58.3639L99.1847 73.4153C99.1653 73.5403 99.0722 73.6403 98.95 73.6695C98.9264 73.675 98.9014 73.6778 98.8764 73.6778ZM95.9097 68.7931L98.6861 72.5778L100.949 58.3945L98.1722 54.6098L95.9097 68.7931Z" fill="#EAF4EA"/>
<path d="M111.895 68.8721L115.191 73.3651L110.347 103.737L107.051 99.2443L111.895 68.8721Z" fill="#A0CBA0"/>
<path d="M110.347 104.05C110.248 104.05 110.155 104.004 110.096 103.922L106.8 99.4291C106.75 99.3624 106.73 99.2777 106.743 99.1944L111.587 68.8221C111.607 68.6971 111.7 68.5971 111.822 68.568C111.944 68.5388 112.073 68.5846 112.147 68.6874L115.443 73.1805C115.493 73.2471 115.512 73.3319 115.5 73.4152L110.655 103.787C110.636 103.912 110.543 104.012 110.421 104.042C110.397 104.047 110.372 104.05 110.347 104.05ZM107.38 99.1652L110.157 102.95L114.862 73.4457L112.086 69.661L107.38 99.1652Z" fill="#EAF4EA"/>
<path d="M97.8745 99.2444L97.6856 100.428L96.4453 108.203L99.7411 112.697L100.981 104.921L101.17 103.737L97.8745 99.2444Z" fill="#A0CBA0"/>
<path d="M99.7416 113.01C99.643 113.01 99.55 112.964 99.4902 112.882L96.1944 108.388C96.1444 108.321 96.125 108.236 96.1375 108.153L97.5666 99.1945C97.5861 99.0695 97.6791 98.9695 97.8014 98.9403C97.9236 98.9111 98.0527 98.957 98.1263 99.0597L101.422 103.553C101.472 103.619 101.492 103.704 101.479 103.788L100.05 112.746C100.031 112.871 99.9375 112.971 99.8152 113C99.7902 113.007 99.7666 113.01 99.7416 113.01ZM96.775 108.124L99.5514 111.908L100.842 103.818L98.0652 100.033L96.775 108.124Z" fill="#EAF4EA"/>
<path d="M88.5879 99.2444L89.6268 100.428L96.4462 108.203L97.6865 100.428L97.8754 99.2444H88.5879Z" fill="#A0CBA0"/>
<path d="M96.4459 108.515C96.357 108.515 96.2708 108.478 96.2111 108.408L88.3528 99.4499C88.2722 99.3583 88.2528 99.2263 88.3028 99.1152C88.3528 99.0041 88.4653 98.9319 88.5875 98.9319H97.8736C97.9653 98.9319 98.0514 98.9722 98.1111 99.0416C98.1708 99.111 98.1958 99.2027 98.182 99.293L96.7528 108.251C96.7334 108.371 96.6472 108.469 96.5306 108.503C96.5042 108.512 96.475 108.515 96.4459 108.515ZM89.2778 99.5569L96.2417 107.497L97.5084 99.5569H89.2778Z" fill="#EAF4EA"/>
<path d="M40.4338 53.8208L43.9936 56.3777L63.2019 70.1777L62.5033 74.5569L53.0602 80.0764L34.5186 90.9125L40.4338 53.8208Z" fill="#34C759"/>
<path d="M34.5184 91.2249C34.4573 91.2249 34.3948 91.2068 34.3421 91.1707C34.2421 91.1027 34.1907 90.9832 34.2101 90.8638L40.1254 53.7721C40.1421 53.6652 40.2143 53.5749 40.3143 53.5332C40.4143 53.4916 40.5282 53.5041 40.6171 53.568L63.3851 69.9249C63.4809 69.9943 63.5296 70.111 63.5115 70.2277L62.8129 74.6068C62.7976 74.6999 62.7434 74.7805 62.6615 74.8277L34.6768 91.1818C34.6268 91.211 34.5726 91.2249 34.5184 91.2249ZM40.6629 54.3693L34.9309 90.3096L62.2184 74.361L62.8629 70.318L40.6629 54.3693Z" fill="#EAF4EA"/>
<path d="M97.9813 53.8208L95.5799 68.8722H72.2285L97.9813 53.8208Z" fill="#34C759"/>
<path d="M95.5803 69.1848H72.229C72.0873 69.1848 71.9637 69.0903 71.9276 68.9542C71.8915 68.8181 71.9498 68.6737 72.072 68.6028L97.8248 53.5515C97.929 53.4903 98.0595 53.4945 98.1595 53.564C98.2595 53.632 98.3109 53.7515 98.2915 53.8709L95.8887 68.9209C95.8651 69.0737 95.7345 69.1848 95.5803 69.1848ZM73.3831 68.5598H95.3137L97.5678 54.4237L73.3831 68.5598Z" fill="#EAF4EA"/>
<path d="M95.5807 68.8723H111.896L107.052 99.2445H97.8751H88.589H58.5654L59.8946 90.9126L62.5029 74.557L63.2015 70.1779L63.4099 68.8723H72.2293H95.5807ZM98.989 86.5765C99.4321 86.5765 99.8446 86.232 99.9127 85.807C99.9807 85.3806 99.6779 85.0348 99.2349 85.0348H70.5182C70.0779 85.0348 69.664 85.3806 69.596 85.807C69.5279 86.232 69.8307 86.5765 70.271 86.5765H98.989ZM100.086 79.6931C100.529 79.6931 100.942 79.3473 101.01 78.9209C101.078 78.4959 100.775 78.1515 100.332 78.1515H71.6168C71.1765 78.1515 70.7627 78.4973 70.696 78.9209C70.6279 79.3473 70.9307 79.6931 71.371 79.6931H100.086ZM97.8904 93.4598C98.3335 93.4598 98.746 93.1154 98.814 92.6876C98.8821 92.2626 98.5793 91.9168 98.1363 91.9168H81.4488C81.0057 91.9168 80.5932 92.2626 80.5251 92.6876C80.4571 93.114 80.7599 93.4598 81.2029 93.4598H97.8904Z" fill="#A0CBA0"/>
<path d="M107.051 99.557H58.565C58.4733 99.557 58.3872 99.5168 58.3275 99.4473C58.2678 99.3779 58.2428 99.2862 58.2567 99.1959L63.1011 68.8237C63.1247 68.6723 63.2567 68.5598 63.4095 68.5598H111.896C111.987 68.5598 112.073 68.6001 112.133 68.6695C112.193 68.739 112.218 68.8306 112.204 68.9209L107.359 99.2931C107.336 99.4459 107.205 99.557 107.051 99.557ZM58.9317 98.932H106.784L111.529 69.1848H63.6761L58.9317 98.932ZM97.89 93.7723H81.2011C80.8956 93.7723 80.6136 93.6473 80.4275 93.4307C80.2442 93.2154 80.1678 92.9334 80.215 92.639C80.3081 92.0598 80.8483 91.6056 81.447 91.6056H98.1358C98.4414 91.6056 98.7233 91.7307 98.9094 91.9473C99.0928 92.1626 99.1692 92.4431 99.1219 92.7362C99.0303 93.3181 98.4886 93.7723 97.89 93.7723ZM81.4483 92.2306C81.1595 92.2306 80.8775 92.4626 80.8344 92.7376C80.8164 92.8501 80.8414 92.9501 80.9053 93.0251C80.9733 93.1043 81.0789 93.1473 81.2025 93.1473H97.8914C98.1803 93.1473 98.4622 92.914 98.5067 92.639C98.5247 92.5279 98.4997 92.4279 98.4358 92.3529C98.3678 92.2737 98.2622 92.2293 98.1372 92.2293H81.4483V92.2306ZM98.9886 86.889H70.2719C69.9664 86.889 69.6858 86.764 69.4997 86.5473C69.3164 86.332 69.24 86.0515 69.2872 85.757C69.3803 85.1765 69.9206 84.7223 70.5178 84.7223H99.2344C99.54 84.7223 99.8219 84.8473 100.008 85.064C100.191 85.2793 100.268 85.5612 100.221 85.8556C100.128 86.4348 99.5872 86.889 98.9886 86.889ZM70.5178 85.3473C70.2289 85.3473 69.9483 85.5806 69.9053 85.8556C69.8872 85.9654 69.9122 86.0681 69.9761 86.1418C70.0442 86.2209 70.1483 86.264 70.2719 86.264H98.9886C99.2775 86.264 99.5594 86.032 99.6025 85.757C99.6206 85.6445 99.5956 85.5445 99.5317 85.4695C99.4636 85.3904 99.3581 85.3473 99.2344 85.3473H70.5178ZM100.086 80.0056H71.3692C71.0636 80.0056 70.7831 79.8806 70.5983 79.664C70.4136 79.4487 70.3386 79.1668 70.3858 78.8723C70.4789 78.2931 71.0192 77.839 71.6164 77.839H100.333C100.639 77.839 100.921 77.964 101.107 78.1807C101.29 78.3959 101.366 78.6765 101.319 78.9695C101.226 79.5515 100.684 80.0056 100.086 80.0056ZM71.6164 78.464C71.3275 78.464 71.047 78.6959 71.0039 78.9709C70.9858 79.082 71.0108 79.1848 71.0747 79.2584C71.1414 79.3376 71.2469 79.3806 71.3706 79.3806H100.087C100.376 79.3806 100.658 79.1473 100.703 78.8723C100.721 78.7612 100.696 78.6612 100.632 78.5876C100.564 78.5084 100.458 78.464 100.333 78.464H71.6164Z" fill="#EAF4EA"/>
<path d="M100.332 78.1514C100.775 78.1514 101.077 78.4972 101.009 78.9208C100.941 79.3472 100.529 79.693 100.086 79.693H71.3691C70.9289 79.693 70.6261 79.3472 70.6941 78.9208C70.7622 78.4958 71.1747 78.1514 71.615 78.1514H100.332Z" fill="#34C759"/>
<path d="M100.086 80.0126H71.3692C71.0622 80.0126 70.7789 79.8876 70.5928 79.6681C70.408 79.4515 70.3317 79.1681 70.3789 78.8709C70.4719 78.289 71.015 77.832 71.615 77.832H100.332C100.64 77.832 100.923 77.957 101.111 78.1765C101.296 78.3931 101.372 78.6751 101.325 78.9709C101.232 79.5556 100.687 80.0126 100.086 80.0126ZM71.6164 78.4709C71.3316 78.4709 71.0539 78.7001 71.0094 78.9723C70.9914 79.0834 71.0164 79.1806 71.0789 79.2543C71.1455 79.332 71.2483 79.3737 71.3705 79.3737H100.087C100.373 79.3737 100.652 79.1431 100.696 78.8709C100.714 78.7612 100.689 78.664 100.626 78.5904C100.559 78.5126 100.455 78.4695 100.333 78.4695H71.6164V78.4709Z" fill="#34C759"/>
<path d="M99.2349 85.0347C99.678 85.0347 99.9808 85.3805 99.9127 85.8069C99.8447 86.2319 99.4322 86.5763 98.9891 86.5763H70.2724C69.8322 86.5763 69.5294 86.2305 69.5974 85.8069C69.6655 85.3805 70.078 85.0347 70.5197 85.0347H99.2349Z" fill="#34C759"/>
<path d="M98.9891 86.8945H70.2725C69.9655 86.8945 69.6822 86.7695 69.4961 86.55C69.3114 86.3334 69.235 86.0501 69.2822 85.7556C69.3752 85.1723 69.9183 84.7153 70.5183 84.7153H99.235C99.5433 84.7153 99.8266 84.8403 100.013 85.0598C100.197 85.2764 100.274 85.5598 100.227 85.857C100.134 86.4389 99.5905 86.8945 98.9891 86.8945ZM70.5183 85.3528C70.2336 85.3528 69.9558 85.5834 69.9114 85.8556C69.8933 85.9653 69.9183 86.0626 69.9808 86.1362C70.0475 86.2139 70.1502 86.257 70.2725 86.257H98.9891C99.2752 86.257 99.5544 86.0278 99.5975 85.7556C99.6155 85.6445 99.5905 85.5473 99.528 85.4737C99.4614 85.3959 99.3572 85.3528 99.235 85.3528H70.5183Z" fill="#34C759"/>
<path d="M98.1367 91.918C98.5798 91.918 98.8825 92.2638 98.8145 92.6874C98.7464 93.1138 98.3339 93.4596 97.8909 93.4596H81.202C80.7589 93.4596 80.4561 93.1138 80.5242 92.6874C80.5923 92.2624 81.0048 91.918 81.4478 91.918H98.1367Z" fill="#34C759"/>
<path d="M97.8905 93.7792H81.2016C80.8933 93.7792 80.6099 93.6542 80.4238 93.4347C80.2391 93.2181 80.1627 92.9347 80.2099 92.6375C80.303 92.0556 80.846 91.5986 81.4474 91.5986H98.1363C98.4446 91.5986 98.728 91.7236 98.9155 91.9431C99.1002 92.1597 99.1766 92.4417 99.1294 92.7375C99.0363 93.3222 98.4919 93.7792 97.8905 93.7792ZM81.4488 92.2375C81.1627 92.2375 80.8835 92.4667 80.8405 92.7389C80.8224 92.85 80.8474 92.9472 80.9099 93.0209C80.9766 93.0986 81.0808 93.1417 81.203 93.1417H97.8919C98.178 93.1417 98.4571 92.9111 98.5002 92.6389C98.5183 92.5292 98.4933 92.432 98.4308 92.3584C98.3641 92.2806 98.2599 92.2375 98.1377 92.2375H81.4488Z" fill="#34C759"/>
<path d="M88.5867 99.2444L91.8825 103.737H61.8603L58.5645 99.2444H88.5867Z" fill="#A0CBA0"/>
<path d="M91.883 104.05H61.8608C61.7608 104.05 61.6677 104.003 61.6094 103.922L58.3135 99.4291C58.2441 99.3347 58.233 99.2083 58.2872 99.1027C58.3399 98.9972 58.4483 98.9319 58.5663 98.9319H88.5885C88.6885 98.9319 88.7816 98.9791 88.8399 99.0597L92.1358 103.553C92.2052 103.647 92.2163 103.774 92.1621 103.879C92.1094 103.985 92.001 104.05 91.883 104.05ZM62.0191 103.425H91.2663L88.4288 99.5569H59.183L62.0191 103.425Z" fill="#EAF4EA"/>
<path d="M96.4462 108.203L89.6268 100.428L88.5879 99.2446L91.8837 103.738L92.9212 104.921L99.7421 112.697L96.4462 108.203Z" fill="#A0CBA0"/>
<path d="M99.7421 113.01C99.6546 113.01 99.5685 112.974 99.5074 112.903L91.6491 103.945C91.6435 103.938 91.638 103.931 91.6324 103.924L88.3366 99.4307C88.238 99.2959 88.263 99.107 88.3935 99.0015C88.5241 98.8973 88.7143 98.914 88.8241 99.039L96.6824 107.997C96.688 108.004 96.6935 108.011 96.6991 108.018L99.9949 112.511C100.094 112.646 100.069 112.835 99.938 112.94C99.8796 112.986 99.8116 113.01 99.7421 113.01Z" fill="#EAF4EA"/>
<path d="M107.051 99.2444L110.347 103.737H101.171L97.875 99.2444H107.051Z" fill="#A0CBA0"/>
<path d="M110.348 104.05H101.171C101.071 104.05 100.978 104.003 100.92 103.922L97.6241 99.4291C97.5546 99.3347 97.5435 99.2083 97.5977 99.1027C97.6505 98.9972 97.7588 98.9319 97.8769 98.9319H107.053C107.153 98.9319 107.246 98.9791 107.305 99.0597L110.6 103.553C110.67 103.647 110.681 103.774 110.627 103.879C110.574 103.985 110.466 104.05 110.348 104.05ZM101.33 103.425H109.731L106.894 99.5569H98.4921L101.33 103.425Z" fill="#EAF4EA"/>
<path d="M63.201 70.4902C63.1372 70.4902 63.0733 70.4707 63.0191 70.4318L43.8108 56.6318C43.7149 56.5624 43.6663 56.4457 43.6844 56.3291L45.751 43.3679C45.7635 43.2929 45.801 43.2263 45.8594 43.1777L60.8913 30.6096L61.1538 30.3916C61.2094 30.3443 61.2802 30.3193 61.3538 30.3193H97.7191C97.8108 30.3193 97.8969 30.3596 97.9566 30.4291C98.0163 30.4985 98.0413 30.5902 98.0274 30.6804L93.9219 56.4235C93.9066 56.5166 93.8524 56.5971 93.7705 56.6443L72.3872 69.1429C72.3399 69.1707 72.2844 69.186 72.2288 69.186H63.676L63.5094 70.2277C63.4927 70.3346 63.4205 70.4249 63.3205 70.4666C63.283 70.4818 63.2427 70.4902 63.201 70.4902ZM44.3316 56.236L62.9719 69.6291L63.0997 68.8235C63.1233 68.6721 63.2552 68.5596 63.408 68.5596H72.1427L93.326 56.1777L97.351 30.9416H61.4663L61.2913 31.086L46.3497 43.5777L44.3316 56.236Z" fill="#EAF4EA"/>
<path d="M61.0915 30.8472L59.0873 43.4152H46.0596L61.0915 30.8472Z" fill="#A0CBA0"/>
<path d="M59.0874 43.7278H46.0596C45.9276 43.7278 45.811 43.6458 45.7665 43.5222C45.7221 43.3986 45.7596 43.2597 45.8596 43.1764L60.8915 30.6083C60.9915 30.525 61.1332 30.5125 61.2457 30.5764C61.3596 30.6403 61.4207 30.768 61.3999 30.8972L59.3957 43.4653C59.3721 43.6167 59.2415 43.7278 59.0874 43.7278ZM46.9207 43.1028H58.8207L60.6513 31.6222L46.9207 43.1028Z" fill="#EAF4EA"/>
<path d="M97.9133 25.1777C103.186 25.1777 106.801 29.2986 105.99 34.3833C105.179 39.468 100.248 43.5888 94.9772 43.5888C89.705 43.5888 86.0897 39.468 86.9008 34.3833C87.7119 29.2986 92.6411 25.1777 97.9133 25.1777ZM98.4244 28.8652C98.5703 28.2555 98.1369 27.7277 97.5133 27.7277C97.4855 27.7277 97.4591 27.7291 97.4314 27.7305C96.8175 27.7708 96.2786 28.2791 96.2258 28.8652L95.4161 38.0819C95.3966 38.2902 95.5425 38.4611 95.7619 38.4763C95.7716 38.4763 95.7814 38.4777 95.7925 38.4777C96.023 38.4777 96.2439 38.3055 96.2966 38.0819L98.4244 28.8652ZM95.3841 41.0388C95.9466 41.0388 96.473 40.6 96.5591 40.0569C96.6453 39.5138 96.2605 39.075 95.698 39.075C95.1355 39.075 94.6091 39.5138 94.523 40.0569C94.4355 40.5986 94.8216 41.0388 95.3841 41.0388Z" fill="#34C759"/>
<path d="M94.9777 43.9013C92.293 43.9013 89.9402 42.8777 88.3527 41.018C86.8166 39.218 86.1916 36.8444 86.5916 34.3347C87.4249 29.1138 92.5027 24.8652 97.9138 24.8652C100.599 24.8652 102.951 25.8888 104.539 27.7486C106.075 29.5486 106.7 31.9222 106.3 34.4319C105.467 39.6541 100.387 43.9013 94.9777 43.9013ZM97.9138 25.4902C92.7971 25.4902 87.9957 29.5013 87.2096 34.4333C86.8388 36.7597 87.4138 38.9541 88.8291 40.6125C90.2943 42.3305 92.4791 43.2763 94.9777 43.2763C100.094 43.2763 104.896 39.2652 105.682 34.3333C106.053 32.0069 105.478 29.8125 104.062 28.1541C102.597 26.4361 100.412 25.4902 97.9138 25.4902ZM95.3846 41.3513C95.0207 41.3513 94.6846 41.2041 94.4652 40.9458C94.2471 40.6902 94.1582 40.3569 94.2138 40.0069C94.3207 39.3402 94.918 38.8125 95.5985 38.7652C95.4652 38.7291 95.3485 38.6569 95.2596 38.5527C95.143 38.4152 95.0874 38.2388 95.1055 38.0541L95.9152 28.8388C95.9818 28.0944 96.6388 27.4722 97.411 27.4208C97.4443 27.418 97.4791 27.4166 97.5138 27.4166C97.9124 27.4166 98.2763 27.5861 98.5096 27.8833C98.7388 28.175 98.8193 28.5583 98.7291 28.9375L96.5999 38.1541C96.5235 38.4763 96.243 38.7277 95.918 38.7819C96.1943 38.8291 96.4416 38.9638 96.6152 39.1694C96.8332 39.425 96.9221 39.7583 96.8666 40.1083C96.7569 40.8041 96.1041 41.3513 95.3846 41.3513ZM95.6971 39.3861C95.2902 39.3861 94.893 39.7152 94.8305 40.1055C94.8041 40.2722 94.843 40.4263 94.9402 40.5402C95.043 40.6597 95.1999 40.7263 95.3846 40.7263C95.7916 40.7263 96.1888 40.3972 96.2513 40.0069C96.2777 39.8402 96.2388 39.6861 96.1416 39.5722C96.0388 39.4527 95.8805 39.3861 95.6971 39.3861ZM97.5138 28.0402C97.4943 28.0402 97.4749 28.0416 97.4541 28.043C96.9943 28.0736 96.5763 28.4625 96.5374 28.893L95.7277 38.1097C95.7263 38.1263 95.7291 38.1388 95.736 38.1472C95.7443 38.1569 95.7624 38.1638 95.7832 38.1652C95.8777 38.1652 95.9721 38.0916 95.9916 38.0111L98.1207 28.7958C98.1207 28.7944 98.1207 28.7944 98.1207 28.793C98.168 28.5986 98.1305 28.4125 98.0193 28.2694C97.9041 28.1236 97.7207 28.0402 97.5138 28.0402Z" fill="#EAF4EA"/>
<path d="M95.6971 39.0737C96.2596 39.0737 96.6457 39.5126 96.5582 40.0557C96.4707 40.5987 95.9457 41.0376 95.3832 41.0376C94.8207 41.0376 94.4346 40.5987 94.5221 40.0557C94.6096 39.5126 95.1346 39.0737 95.6971 39.0737Z" fill="#EAF4EA"/>
<path d="M95.3851 41.1084C95.0878 41.1084 94.8267 40.9945 94.6503 40.7876C94.4795 40.5876 94.4101 40.3237 94.4545 40.0459C94.5462 39.4723 95.1045 39.0056 95.6976 39.0056C95.9948 39.0056 96.2559 39.1195 96.4323 39.3264C96.6031 39.5264 96.6726 39.7903 96.6281 40.0695C96.5365 40.6403 95.9781 41.1084 95.3851 41.1084ZM95.6976 39.1431C95.1684 39.1431 94.6726 39.557 94.5906 40.0667C94.5531 40.3042 94.6115 40.5278 94.7545 40.6973C94.9045 40.8723 95.1267 40.9695 95.3837 40.9695C95.9128 40.9695 96.4087 40.5556 96.4906 40.0459C96.5281 39.8084 96.4698 39.5848 96.3267 39.4153C96.1767 39.2403 95.9545 39.1431 95.6976 39.1431Z" fill="#EAF4EA"/>
<path d="M97.5134 27.7278C98.137 27.7278 98.5704 28.2542 98.4245 28.8653L96.2954 38.0819C96.2426 38.3056 96.0218 38.4778 95.7912 38.4778C95.7815 38.4778 95.7718 38.4778 95.7607 38.4764C95.5412 38.4611 95.3954 38.2903 95.4148 38.0819L96.2245 28.8653C96.2773 28.2792 96.8162 27.7722 97.4301 27.7306C97.4593 27.7292 97.4857 27.7278 97.5134 27.7278Z" fill="#EAF4EA"/>
<path d="M95.7912 38.5473C95.7801 38.5473 95.7676 38.5473 95.7565 38.5459C95.6301 38.5375 95.519 38.4834 95.444 38.3945C95.3704 38.3084 95.3356 38.1945 95.3468 38.075L96.1565 28.8584C96.212 28.2417 96.7815 27.7042 97.4259 27.6611C97.7829 27.6348 98.1134 27.7736 98.3176 28.032C98.5009 28.2653 98.5648 28.5736 98.4912 28.8806L96.362 38.0973C96.3037 38.3542 96.0579 38.5473 95.7912 38.5473ZM97.5134 27.7973C97.4884 27.7973 97.462 27.7986 97.4356 27.8C96.8551 27.8389 96.344 28.3195 96.2954 28.8709L95.4856 38.0875C95.4787 38.1695 95.5009 38.2459 95.5509 38.3042C95.6023 38.3639 95.6787 38.4014 95.7676 38.407C95.969 38.4195 96.1829 38.2653 96.2287 38.0667L98.3579 28.85C98.4218 28.5806 98.3704 28.3209 98.2106 28.1195C98.0481 27.9153 97.794 27.7973 97.5134 27.7973Z" fill="#EAF4EA"/>
</svg>
