<svg width="46" height="46" viewBox="0 0 46 46" fill="none" xmlns="http://www.w3.org/2000/svg">
<rect x="0.0991211" y="0.785156" width="45.0098" height="45.0098" rx="22.5049" fill="#CBBA20" fill-opacity="0.25"/>
<path d="M22.604 12.3188C20.4341 12.3188 18.3129 12.9623 16.5087 14.1678C14.7045 15.3733 13.2983 17.0868 12.4679 19.0915C11.6376 21.0962 11.4203 23.3022 11.8436 25.4303C12.2669 27.5585 13.3118 29.5134 14.8462 31.0477C16.3805 32.5821 18.3354 33.627 20.4636 34.0503C22.5918 34.4736 24.7977 34.2564 26.8024 33.426C28.8071 32.5956 30.5206 31.1894 31.7261 29.3852C32.9316 27.581 33.5751 25.4599 33.5751 23.29C33.572 20.3812 32.4151 17.5924 30.3583 15.5356C28.3015 13.4788 25.5127 12.3219 22.604 12.3188ZM22.604 32.5733C20.7679 32.5733 18.9731 32.0288 17.4464 31.0087C15.9198 29.9887 14.73 28.5388 14.0273 26.8425C13.3247 25.1462 13.1409 23.2797 13.4991 21.4789C13.8573 19.6781 14.7414 18.024 16.0397 16.7257C17.338 15.4274 18.9921 14.5433 20.7929 14.1851C22.5937 13.8269 24.4602 14.0107 26.1565 14.7134C27.8528 15.416 29.3027 16.6058 30.3227 18.1325C31.3428 19.6591 31.8872 21.4539 31.8872 23.29C31.8844 25.7512 30.9055 28.1108 29.1651 29.8512C27.4248 31.5915 25.0652 32.5705 22.604 32.5733ZM23.8699 23.29C23.8699 23.5404 23.7956 23.7851 23.6565 23.9933C23.5174 24.2015 23.3197 24.3637 23.0884 24.4595C22.8571 24.5553 22.6025 24.5804 22.357 24.5316C22.1114 24.4827 21.8859 24.3621 21.7088 24.1851C21.5318 24.0081 21.4112 23.7825 21.3624 23.5369C21.3135 23.2914 21.3386 23.0369 21.4344 22.8055C21.5302 22.5742 21.6925 22.3765 21.9007 22.2374C22.1088 22.0983 22.3536 22.0241 22.604 22.0241C22.9397 22.0241 23.2617 22.1575 23.4991 22.3949C23.7365 22.6323 23.8699 22.9542 23.8699 23.29ZM28.5115 23.29C28.5115 23.5404 28.4372 23.7851 28.2981 23.9933C28.159 24.2015 27.9613 24.3637 27.73 24.4595C27.4987 24.5553 27.2442 24.5804 26.9986 24.5316C26.7531 24.4827 26.5275 24.3621 26.3505 24.1851C26.1734 24.0081 26.0529 23.7825 26.004 23.5369C25.9552 23.2914 25.9802 23.0369 26.076 22.8055C26.1719 22.5742 26.3341 22.3765 26.5423 22.2374C26.7505 22.0983 26.9952 22.0241 27.2456 22.0241C27.5813 22.0241 27.9033 22.1575 28.1407 22.3949C28.3781 22.6323 28.5115 22.9542 28.5115 23.29ZM19.2282 23.29C19.2282 23.5404 19.154 23.7851 19.0149 23.9933C18.8758 24.2015 18.6781 24.3637 18.4468 24.4595C18.2154 24.5553 17.9609 24.5804 17.7154 24.5316C17.4698 24.4827 17.2442 24.3621 17.0672 24.1851C16.8902 24.0081 16.7696 23.7825 16.7207 23.5369C16.6719 23.2914 16.697 23.0369 16.7928 22.8055C16.8886 22.5742 17.0508 22.3765 17.259 22.2374C17.4672 22.0983 17.7119 22.0241 17.9623 22.0241C18.2981 22.0241 18.62 22.1575 18.8574 22.3949C19.0948 22.6323 19.2282 22.9542 19.2282 23.29Z" fill="black"/>
</svg>
