<svg width="81" height="80" viewBox="0 0 81 80" fill="none" xmlns="http://www.w3.org/2000/svg">
<g id="SealCheck">
<path id="Vector" d="M71.0813 32.1313C69.9031 30.9 68.6844 29.6313 68.225 28.5156C67.8 27.4937 67.775 25.8 67.75 24.1594C67.7031 21.1094 67.6531 17.6531 65.25 15.25C62.8469 12.8469 59.3906 12.7969 56.3406 12.75C54.7 12.725 53.0062 12.7 51.9844 12.275C50.8719 11.8156 49.6 10.5969 48.3687 9.41875C46.2125 7.34687 43.7625 5 40.5 5C37.2375 5 34.7906 7.34687 32.6313 9.41875C31.4 10.5969 30.1313 11.8156 29.0156 12.275C28 12.7 26.3 12.725 24.6594 12.75C21.6094 12.7969 18.1531 12.8469 15.75 15.25C13.3469 17.6531 13.3125 21.1094 13.25 24.1594C13.225 25.8 13.2 27.4937 12.775 28.5156C12.3156 29.6281 11.0969 30.9 9.91875 32.1313C7.84687 34.2875 5.5 36.7375 5.5 40C5.5 43.2625 7.84687 45.7094 9.91875 47.8687C11.0969 49.1 12.3156 50.3688 12.775 51.4844C13.2 52.5062 13.225 54.2 13.25 55.8406C13.2969 58.8906 13.3469 62.3469 15.75 64.75C18.1531 67.1531 21.6094 67.2031 24.6594 67.25C26.3 67.275 27.9937 67.3 29.0156 67.725C30.1281 68.1844 31.4 69.4031 32.6313 70.5813C34.7875 72.6531 37.2375 75 40.5 75C43.7625 75 46.2094 72.6531 48.3687 70.5813C49.6 69.4031 50.8688 68.1844 51.9844 67.725C53.0062 67.3 54.7 67.275 56.3406 67.25C59.3906 67.2031 62.8469 67.1531 65.25 64.75C67.6531 62.3469 67.7031 58.8906 67.75 55.8406C67.775 54.2 67.8 52.5062 68.225 51.4844C68.6844 50.3719 69.9031 49.1 71.0813 47.8687C73.1531 45.7125 75.5 43.2625 75.5 40C75.5 36.7375 73.1531 34.2906 71.0813 32.1313ZM54.7688 34.2688L37.2688 51.7688C37.0366 52.0012 36.7608 52.1856 36.4574 52.3114C36.1539 52.4372 35.8285 52.502 35.5 52.502C35.1715 52.502 34.8461 52.4372 34.5426 52.3114C34.2392 52.1856 33.9634 52.0012 33.7312 51.7688L26.2312 44.2688C25.7621 43.7996 25.4986 43.1634 25.4986 42.5C25.4986 41.8366 25.7621 41.2004 26.2312 40.7312C26.7003 40.2621 27.3366 39.9986 28 39.9986C28.6634 39.9986 29.2997 40.2621 29.7688 40.7312L35.5 46.4656L51.2312 30.7312C51.4635 30.499 51.7393 30.3147 52.0428 30.189C52.3462 30.0633 52.6715 29.9986 53 29.9986C53.3285 29.9986 53.6538 30.0633 53.9572 30.189C54.2607 30.3147 54.5365 30.499 54.7688 30.7312C55.001 30.9635 55.1853 31.2393 55.311 31.5428C55.4367 31.8462 55.5014 32.1715 55.5014 32.5C55.5014 32.8285 55.4367 33.1538 55.311 33.4572C55.1853 33.7607 55.001 34.0365 54.7688 34.2688Z" fill="#34C759"/>
</g>
</svg>
