<svg width="46" height="46" viewBox="0 0 46 46" fill="none" xmlns="http://www.w3.org/2000/svg">
<rect x="0.773926" y="0.785156" width="45.0098" height="45.0098" rx="22.5049" fill="#2A449F" fill-opacity="0.25"/>
<path d="M34.0029 32.8205L28.721 27.5396C30.2519 25.7016 31.0153 23.3441 30.8523 20.9577C30.6894 18.5712 29.6127 16.3394 27.8462 14.7265C26.0796 13.1137 23.7593 12.244 21.3679 12.2983C18.9764 12.3526 16.698 13.3269 15.0066 15.0183C13.3152 16.7097 12.3409 18.9882 12.2866 21.3796C12.2322 23.771 13.1019 26.0913 14.7148 27.8579C16.3276 29.6244 18.5594 30.7011 20.9459 30.8641C23.3324 31.027 25.6899 30.2636 27.5278 28.7327L32.8088 34.0146C32.8872 34.0931 32.9802 34.1552 33.0827 34.1977C33.1851 34.2401 33.2949 34.262 33.4058 34.262C33.5167 34.262 33.6265 34.2401 33.729 34.1977C33.8314 34.1552 33.9245 34.0931 34.0029 34.0146C34.0813 33.9362 34.1435 33.8431 34.186 33.7407C34.2284 33.6382 34.2502 33.5284 34.2502 33.4176C34.2502 33.3067 34.2284 33.1969 34.186 33.0944C34.1435 32.992 34.0813 32.8989 34.0029 32.8205ZM13.9954 21.6025C13.9954 20.1003 14.4408 18.6318 15.2754 17.3827C16.11 16.1336 17.2963 15.1601 18.6841 14.5852C20.072 14.0104 21.5992 13.86 23.0726 14.153C24.5459 14.4461 25.8993 15.1695 26.9615 16.2317C28.0238 17.294 28.7472 18.6473 29.0402 20.1207C29.3333 21.5941 29.1829 23.1212 28.608 24.5091C28.0331 25.897 27.0596 27.0832 25.8105 27.9178C24.5615 28.7524 23.093 29.1979 21.5908 29.1979C19.577 29.1957 17.6464 28.3947 16.2225 26.9708C14.7985 25.5468 13.9976 23.6162 13.9954 21.6025Z" fill="black"/>
</svg>
