<svg width="64" height="64" viewBox="0 0 64 64" fill="none" xmlns="http://www.w3.org/2000/svg">
<g id="Frame">
<path id="Vector" d="M27.6049 49.2097C27.6049 49.9847 27.3749 50.5045 26.9149 50.7645C26.4599 51.0245 25.8898 50.9645 25.2148 50.5695L6.11485 39.5447C5.43485 39.1547 4.86985 38.5647 4.40985 37.7747C3.95485 36.9847 3.72485 36.1997 3.72485 35.4247C3.72485 34.6497 3.95485 34.1297 4.40985 33.8697L4.54985 33.7997C4.98485 33.6247 5.50485 33.7147 6.11485 34.0647L25.2148 45.0897C25.8898 45.4847 26.4599 46.0747 26.9149 46.8597C27.3749 47.6497 27.6049 48.4347 27.6049 49.2097Z" fill="#F2F2F7" stroke="#34C759" stroke-width="1.5" stroke-linecap="round" stroke-linejoin="round"/>
<path id="Vector_2" d="M15.6649 28.6196C15.6649 28.6996 15.6648 28.7746 15.6548 28.8446C15.6148 29.4946 15.3899 29.9396 14.9799 30.1746C14.6249 30.3746 14.2148 30.3846 13.7348 30.1996C13.5848 30.1446 13.4348 30.0696 13.2748 29.9796L12.7698 29.6896L6.11485 25.8446C5.43485 25.4546 4.86985 24.8646 4.40985 24.0746C3.95485 23.2846 3.72485 22.4996 3.72485 21.7246C3.72485 20.9496 3.95485 20.4296 4.40985 20.1696L4.54985 20.0996C4.98485 19.9246 5.50485 20.0146 6.11485 20.3646L13.2748 24.4995C13.9548 24.8895 14.5199 25.4796 14.9799 26.2696C15.4349 27.0596 15.6649 27.8396 15.6649 28.6196Z" fill="#F2F2F7" stroke="#34C759" stroke-width="1.5" stroke-linecap="round" stroke-linejoin="round"/>
<path id="Vector_3" d="M39.5399 36.9247C39.5399 37.7997 39.4349 38.5647 39.2299 39.2197C38.9049 40.2747 38.3148 41.0497 37.4548 41.5397C37.2698 41.6447 37.0748 41.7347 36.8798 41.8047C35.5998 42.2697 34.1048 41.9997 32.3798 41.0097C30.3898 39.8597 28.6998 38.0847 27.3048 35.6797C27.2598 35.6047 27.2148 35.5247 27.1748 35.4497C25.8648 33.1297 25.2148 30.8597 25.2148 28.6547C25.2148 26.4497 25.9098 24.8297 27.3048 24.0347C28.2798 23.4797 29.3999 23.3997 30.6649 23.7997C31.2099 23.9647 31.7798 24.2247 32.3798 24.5697C33.6798 25.3197 34.8498 26.3347 35.8948 27.6197C36.2348 28.6297 36.7048 29.6497 37.3048 30.6797C37.7848 31.5097 38.3049 32.2647 38.8549 32.9397C39.3099 34.2897 39.5399 35.6147 39.5399 36.9247Z" fill="#F2F2F7" stroke="#34C759" stroke-width="1.5" stroke-linecap="round" stroke-linejoin="round"/>
<path id="Vector_4" d="M49.8099 59.0146L42.2899 46.0449C42.9649 45.3399 43.4699 44.4349 43.8099 43.3249C43.9099 42.9999 43.9949 42.6599 44.0599 42.3149C44.2349 41.4899 44.3149 40.6149 44.3149 39.6799C44.3149 38.7449 44.2399 37.7499 44.0899 36.7749C43.6499 33.9049 42.5649 30.9699 40.8249 27.9749C39.2749 25.2999 37.5099 23.0899 35.5249 21.3549C34.5349 20.4849 33.4849 19.7299 32.3799 19.0899C31.7949 18.7499 31.2249 18.4649 30.6699 18.2299C28.3649 17.2499 26.3299 17.1399 24.5549 17.9049L24.5349 17.9149L23.9299 18.2199C23.4649 18.4849 23.0499 18.7999 22.6849 19.1599C21.6199 20.1899 20.9349 21.6249 20.6349 23.4549C20.5049 24.1999 20.4399 25.0149 20.4399 25.8949C20.4399 26.3999 20.4599 26.9049 20.5049 27.4149C20.6299 28.9749 20.9499 30.5549 21.4699 32.1549C22.0399 33.9449 22.8599 35.7649 23.9299 37.6049C24.3999 38.4149 24.8849 39.1799 25.3949 39.8999C27.4099 42.7699 29.7399 44.9649 32.3799 46.4899C32.8949 46.7899 33.4099 47.0449 33.9249 47.2599C34.5549 47.5299 35.1849 47.7399 35.8099 47.8849C36.9449 48.1549 37.9899 48.1749 38.9449 47.9499L46.4649 60.9246C46.9049 61.6796 47.4599 62.2496 48.1399 62.6396C48.8149 63.0296 49.3699 63.1046 49.8099 62.8546C50.2449 62.6046 50.4649 62.0896 50.4649 61.3146C50.4649 60.5396 50.2449 59.7696 49.8099 59.0146ZM39.2299 39.2199C38.9049 40.2749 38.3149 41.0499 37.4549 41.5399C37.2699 41.6449 37.0749 41.7349 36.8799 41.8049C35.5999 42.2699 34.1049 41.9999 32.3799 41.0099C30.3899 39.8599 28.6999 38.0849 27.3049 35.6799C27.2599 35.6049 27.2149 35.5249 27.1749 35.4499C25.8649 33.1299 25.2149 30.8599 25.2149 28.6549C25.2149 26.4499 25.9099 24.8299 27.3049 24.0349C28.2799 23.4799 29.3999 23.3999 30.6649 23.7999C31.2099 23.9649 31.7799 24.2249 32.3799 24.5699C33.6799 25.3199 34.8499 26.3349 35.8949 27.6199C36.4499 28.3049 36.9699 29.0599 37.4549 29.8949C38.0499 30.9199 38.5149 31.9349 38.8549 32.9399C39.3099 34.2899 39.5399 35.6149 39.5399 36.9249C39.5399 37.7999 39.4349 38.5649 39.2299 39.2199Z" fill="#F2F2F7" stroke="#34C759" stroke-width="1.5" stroke-linecap="round" stroke-linejoin="round"/>
<path id="Vector_5" d="M20.6348 23.4548C20.5048 24.1998 20.4398 25.0148 20.4398 25.8948C20.4398 26.3998 20.4598 26.9048 20.5048 27.4148L16.6198 29.3548L14.9798 30.1748C15.3898 29.9398 15.6148 29.4948 15.6548 28.8448C15.6648 28.7748 15.6648 28.6998 15.6648 28.6198C15.6648 27.8398 15.4348 27.0598 14.9798 26.2698C14.5198 25.4798 13.9548 24.8898 13.2748 24.4998L6.11481 20.3648C5.50481 20.0148 4.9848 19.9248 4.5498 20.0998L12.7698 15.9898L13.2748 16.2798C13.4348 16.3698 13.5848 16.4448 13.7348 16.4998C14.2148 16.6848 14.6248 16.6748 14.9798 16.4748L16.6198 15.6548L22.6848 19.1598C21.6198 20.1898 20.9348 21.6248 20.6348 23.4548Z" fill="#F2F2F7" stroke="#34C759" stroke-width="1.5" stroke-linecap="round" stroke-linejoin="round"/>
<path id="Vector_6" d="M15.6649 14.9198C15.6649 14.9998 15.6648 15.0748 15.6548 15.1448C15.6148 15.7948 15.3899 16.2398 14.9799 16.4748C14.6249 16.6748 14.2148 16.6848 13.7348 16.4998C13.5848 16.4448 13.4348 16.3698 13.2748 16.2798L12.7698 15.9898L6.11485 12.1448C5.43485 11.7548 4.86985 11.1648 4.40985 10.3748C3.95485 9.58484 3.72485 8.79984 3.72485 8.02484C3.72485 7.24984 3.95485 6.72984 4.40985 6.46984L4.54985 6.39984C4.98485 6.22484 5.50485 6.31484 6.11485 6.66484L13.2748 10.7998C13.9548 11.1898 14.5199 11.7798 14.9799 12.5698C15.4349 13.3598 15.6649 14.1398 15.6649 14.9198Z" fill="#F2F2F7" stroke="#34C759" stroke-width="1.5" stroke-linecap="round" stroke-linejoin="round"/>
<path id="Vector_7" d="M54.315 34.6795C54.315 36.0045 54.15 37.2195 53.81 38.3245C53.47 39.4345 52.965 40.3395 52.2899 41.0445L48.2449 43.0695H48.2399L42.2899 46.0445C42.9649 45.3395 43.4699 44.4345 43.8099 43.3245C43.9099 42.9995 43.9949 42.6595 44.0599 42.3145C44.2349 41.4895 44.3149 40.6145 44.3149 39.6795C44.3149 38.7445 44.2399 37.7495 44.0899 36.7745C43.6499 33.9045 42.5649 30.9695 40.8249 27.9745C39.2749 25.2995 37.5099 23.0895 35.5249 21.3545C34.5349 20.4845 33.4849 19.7295 32.3799 19.0895C31.7949 18.7495 31.2249 18.4645 30.6699 18.2295C28.3649 17.2495 26.3299 17.1395 24.5549 17.9045L25.7199 17.3245L34.1999 13.0745C36.4749 11.9145 39.1999 12.2545 42.3799 14.0895C45.6799 15.9945 48.4949 18.9545 50.8249 22.9745C53.155 26.9895 54.315 30.8895 54.315 34.6795Z" fill="#F2F2F7" stroke="#34C759" stroke-width="1.5" stroke-linecap="round" stroke-linejoin="round"/>
<path id="Vector_8" d="M60.465 56.3147C60.465 57.0897 60.245 57.6047 59.81 57.8547L49.81 62.8547C50.245 62.6047 50.465 62.0897 50.465 61.3147C50.465 60.5397 50.245 59.7697 49.81 59.0147L42.29 46.0449L48.24 43.0699H48.245L52.29 41.0449L59.81 54.0147C60.245 54.7697 60.465 55.5397 60.465 56.3147Z" fill="#F2F2F7" stroke="#34C759" stroke-width="1.5" stroke-linecap="round" stroke-linejoin="round"/>
<path id="Vector_9" d="M27.6048 49.21C27.6048 48.435 27.3748 47.65 26.9148 46.86C26.4598 46.075 25.8898 45.485 25.2148 45.09L6.11481 34.065C5.50481 33.715 4.9848 33.625 4.5498 33.8L12.7698 29.69L13.2748 29.98C13.4348 30.07 13.5848 30.145 13.7348 30.2C14.2148 30.385 14.6248 30.375 14.9798 30.175L16.6198 29.355L21.4698 32.155C22.0398 33.945 22.8598 35.765 23.9298 37.605C24.3998 38.415 24.8848 39.18 25.3948 39.9C27.4098 42.77 29.7398 44.965 32.3798 46.49C32.8948 46.79 33.4098 47.045 33.9248 47.26L26.9148 50.7647C27.3748 50.5047 27.6048 49.985 27.6048 49.21Z" fill="#F2F2F7" stroke="#34C759" stroke-width="1.5" stroke-linecap="round" stroke-linejoin="round"/>
<path id="Vector_10" d="M25.6648 9.91946C25.6648 10.6945 25.4348 11.2145 24.9798 11.4745L24.8398 11.5445L16.6198 15.6545L14.9798 16.4745C15.3898 16.2395 15.6148 15.7945 15.6548 15.1445C15.6648 15.0745 15.6648 14.9995 15.6648 14.9195C15.6648 14.1395 15.4348 13.3595 14.9798 12.5695C14.5198 11.7795 13.9548 11.1895 13.2748 10.7995L6.11481 6.66446C5.50481 6.31446 4.9848 6.22446 4.5498 6.39946L14.4098 1.46948C14.8698 1.20948 15.4348 1.27448 16.1148 1.66448L23.2748 5.79946C23.9548 6.18946 24.5198 6.77946 24.9798 7.56946C25.4348 8.35946 25.6648 9.13946 25.6648 9.91946Z" fill="#F2F2F7" stroke="#34C759" stroke-width="1.5" stroke-linecap="round" stroke-linejoin="round"/>
<g id="Vector_11">
<path d="M24.5551 17.9048L24.5351 17.9148L23.9301 18.2198C23.4651 18.4848 23.0501 18.7998 22.6851 19.1598" fill="#F2F2F7"/>
<path d="M24.5551 17.9048L24.5351 17.9148L23.9301 18.2198C23.4651 18.4848 23.0501 18.7998 22.6851 19.1598" stroke="#34C759" stroke-width="1.5" stroke-linecap="round" stroke-linejoin="round"/>
</g>
</g>
</svg>
