<svg width="64" height="64" viewBox="0 0 64 64" fill="none" xmlns="http://www.w3.org/2000/svg">
<g id="Frame">
<path id="Vector" d="M18.1187 18.3286L17.4142 18.6836C17.6454 18.5437 17.8767 18.4308 18.1187 18.3286Z" fill="#F2F2F7" stroke="#34C759" stroke-width="1.5" stroke-linecap="round" stroke-linejoin="round"/>
<path id="Vector_2" d="M35.7751 50.7373L35.716 50.775L35.4364 50.9148L35.3611 50.9471L35.7751 50.7373Z" fill="#F2F2F7" stroke="#34C759" stroke-width="1.5" stroke-linecap="round" stroke-linejoin="round"/>
<path id="Vector_3" d="M59.1806 41.9011C59.1806 45.3593 58.6106 48.2796 57.465 50.6621C56.3197 53.0447 54.7707 54.7924 52.8077 55.9111L51.8128 56.4113L41.7987 61.4291C41.8847 61.3807 41.9707 61.3377 42.0514 61.2893C43.6595 60.375 44.9879 59.0358 46.0474 57.2718C46.2841 56.8846 46.5046 56.4704 46.7089 56.0402C47.3704 54.6634 47.8383 53.1146 48.118 51.3774C48.3224 50.1082 48.4245 48.7421 48.4245 47.2793C48.4245 46.1983 48.3708 45.1119 48.2578 44.0201C48.0535 41.9388 47.6447 39.8198 47.037 37.6685C46.7573 36.6789 46.4508 35.6947 46.1066 34.7213C45.3106 32.4517 44.3425 30.2198 43.1969 28.0147C42.799 27.2403 42.2988 26.6756 41.6964 26.3045C41.5136 26.1915 41.3361 26.1055 41.1694 26.0517C40.8467 25.9495 40.5509 25.9495 40.282 26.0625L50.9038 20.7489C51.3395 20.5015 51.8558 20.5606 52.4527 20.9263C53.0551 21.2974 53.5553 21.8621 53.9532 22.6366C55.5882 25.7882 56.8683 29.0043 57.7931 32.2904C58.7181 35.5764 59.1806 38.7764 59.1806 41.9011Z" fill="#F2F2F7" stroke="#34C759" stroke-width="1.5" stroke-linecap="round" stroke-linejoin="round"/>
<path id="Vector_4" d="M24.4595 23.7608V24.1372C24.4433 24.0082 24.4325 23.8791 24.4218 23.75C24.4325 23.7554 24.4487 23.7554 24.4595 23.7608Z" fill="#F2F2F7" stroke="#34C759" stroke-width="1.5" stroke-linecap="round" stroke-linejoin="round"/>
<path id="Vector_5" d="M48.4245 47.2794C48.4245 48.7423 48.3224 50.1083 48.118 51.3775C47.8383 53.1147 47.3704 54.6636 46.7089 56.0404C46.5045 56.4706 46.284 56.8848 46.0474 57.272C44.9879 59.036 43.6594 60.3752 42.0514 61.2895C41.9707 61.3379 41.8847 61.3809 41.7987 61.4293L41.3684 61.6444C39.5613 62.4996 37.4853 62.8276 35.1351 62.6394C32.4836 62.4189 29.6547 61.4401 26.6376 59.7029C23.6258 57.9604 20.797 55.6693 18.1455 52.8296C15.4941 49.9846 13.1869 46.8707 11.2292 43.4932C9.26622 40.1103 7.71729 36.5661 6.57174 32.8659C5.4262 29.1658 4.85608 25.5839 4.85608 22.1258C4.85608 18.6676 5.4262 15.7473 6.57174 13.3701C7.71729 10.9876 9.26622 9.23972 11.2292 8.12107C11.482 7.97586 11.7347 7.84678 11.9983 7.72309C13.7408 6.91636 15.7415 6.59367 17.9895 6.7604C18.0379 6.7604 18.0918 6.76578 18.1455 6.77115C20.1086 6.9325 22.1684 7.50796 24.3304 8.50292C25.0887 8.8525 25.8578 9.25586 26.6376 9.70762C27.2561 10.0626 27.7724 10.6004 28.1919 11.3211C28.5146 11.8804 28.7189 12.4343 28.7889 12.9883C28.8104 13.1496 28.8212 13.3056 28.8212 13.467V31.6505C29.4719 32.4841 29.9989 33.3822 30.3969 34.3449C30.7949 35.3022 30.9993 36.2596 30.9993 37.2222C30.9993 37.7278 30.9401 38.1688 30.8218 38.5507C30.6282 39.2175 30.2571 39.7016 29.7193 40.0135C29.0632 40.3846 28.3048 40.4115 27.4443 40.0888C27.1862 39.992 26.9173 39.8629 26.6376 39.7016C25.4436 39.0132 24.4164 37.9322 23.5613 36.4586C22.7115 34.9849 22.2813 33.5651 22.2813 32.1883C22.2813 31.7634 22.3189 31.387 22.405 31.0481C22.5018 30.6233 22.6631 30.2629 22.8836 29.9725C23.0826 29.709 23.3139 29.5154 23.5775 29.3755C23.841 29.2357 24.1314 29.155 24.4595 29.1335V23.7607C24.4595 23.7607 24.4326 23.7554 24.4218 23.75C23.0557 23.3896 21.8618 23.4434 20.8454 23.9059L20.4904 24.0834C20.4904 24.0834 20.4312 24.1211 20.3989 24.1426C20.1838 24.2663 19.9794 24.4169 19.7804 24.589C18.608 25.5893 17.995 27.1651 17.9304 29.3056C17.925 29.4239 17.925 29.5476 17.925 29.6713C17.925 32.4249 18.7802 35.27 20.485 38.2118C22.1415 41.0569 24.1099 43.1812 26.4064 44.5634C26.4817 44.6118 26.5623 44.6602 26.6376 44.7033C28.7996 45.951 30.682 46.236 32.2847 45.5691C32.4568 45.4938 32.6289 45.4132 32.7956 45.3164C33.8013 44.7463 34.5166 43.8589 34.9253 42.6596C35.2104 41.8367 35.3556 40.8579 35.3556 39.7338C35.3556 39.0723 35.3018 38.4054 35.1996 37.7493C35.1781 37.6041 35.1512 37.4589 35.1189 37.3137C35.0705 37.0394 35.0114 36.7705 34.9469 36.5016C34.6726 35.4259 34.3015 34.3342 33.8282 33.2317C33.4678 32.4357 33.3012 31.6989 33.3388 31.0105C33.3657 30.5049 33.4894 30.1285 33.7099 29.8703C33.7905 29.7789 33.8874 29.6982 33.995 29.6391L34.1348 29.5691C34.5382 29.4024 35.0114 29.4777 35.5439 29.7843C36.1462 30.1285 36.6248 30.6986 36.9852 31.4945C37.4961 32.5701 37.9371 33.6565 38.319 34.7537C38.4158 35.028 38.5072 35.3022 38.5933 35.5765C38.7277 36.0122 38.8568 36.4478 38.9751 36.8888C39.2817 38.0397 39.4968 39.1745 39.6097 40.2932C39.6635 40.8202 39.6957 41.3419 39.7065 41.8636C39.7119 41.9927 39.7119 42.1217 39.7119 42.2508C39.7119 43.3802 39.6205 44.4075 39.4322 45.3379C39.0934 47.0105 38.4588 48.3604 37.5123 49.3876C37.0497 49.8986 36.5119 50.3234 35.8988 50.673C35.8612 50.6945 35.8181 50.716 35.7805 50.7375H35.7751L35.361 50.9473L35.2803 50.9849C35.1513 51.0441 35.0168 51.0979 34.8877 51.1463C34.8286 51.1678 34.764 51.1893 34.6994 51.2108C34.5704 51.2538 34.4359 51.2969 34.3068 51.3291C34.1401 51.3722 33.9734 51.4098 33.8013 51.4421C33.6346 51.4743 33.4571 51.5012 33.285 51.5174C31.322 51.7325 29.1062 51.1248 26.6376 49.7049C23.0073 47.6075 19.9257 44.3644 17.3818 39.9812C14.8433 35.598 13.5687 31.3224 13.5687 27.1597C13.5687 24.0028 14.3055 21.6095 15.7737 19.996C16.048 19.6895 16.3439 19.4152 16.6719 19.1678C16.8978 18.9957 17.129 18.8397 17.371 18.7053L17.4141 18.6838L18.1186 18.3288H18.1402C18.7318 18.076 19.3503 17.9254 20.0118 17.8663C21.3509 17.7426 22.8353 18.0007 24.4595 18.6354V13.5745C23.3086 13.0797 22.2114 12.7194 21.1627 12.5043C19.2481 12.1009 17.5002 12.1601 15.9136 12.6925C15.0961 12.956 14.327 13.3486 13.5956 13.8649C10.6752 15.9248 9.21244 19.5174 9.21244 24.6428C9.21244 30.2253 10.9011 35.9261 14.2786 41.7506C17.6561 47.5752 21.7757 51.8938 26.6376 54.7012C31.5048 57.5086 35.6245 57.955 39.002 56.0296C39.2655 55.8791 39.5129 55.7231 39.7549 55.5456C41.1317 54.5775 42.1751 53.2438 42.8904 51.5604C43.4874 50.1621 43.8531 48.5217 43.9929 46.6286C44.009 46.4673 44.0145 46.3059 44.0252 46.1392C44.0575 45.6928 44.0682 45.2357 44.0682 44.7678C44.0682 43.1705 43.9177 41.5517 43.6165 39.9006C43.4605 39.0508 43.2669 38.1903 43.0303 37.3244C42.643 35.8992 42.1698 34.4901 41.5997 33.0865C41.1587 31.9785 40.6531 30.8814 40.0937 29.7843C39.6904 29.0098 39.4914 28.273 39.4914 27.5631C39.4914 27.2888 39.5237 27.0468 39.5936 26.8424C39.6313 26.7133 39.685 26.6058 39.7495 26.5036C39.8517 26.3476 39.9862 26.2239 40.1475 26.1271L40.282 26.0626C40.5509 25.9496 40.8467 25.9496 41.1694 26.0518C41.3361 26.1056 41.5136 26.1917 41.6964 26.3046C42.2988 26.6757 42.7989 27.2404 43.1969 28.0149C44.3425 30.2199 45.3106 32.4518 46.1066 34.7214C46.4508 35.6949 46.7573 36.6791 47.037 37.6686C47.6447 39.8199 48.0534 41.9389 48.2578 44.0202C48.3708 45.112 48.4245 46.1984 48.4245 47.2794Z" fill="#F2F2F7" stroke="#34C759" stroke-width="1.5" stroke-linecap="round" stroke-linejoin="round"/>
<path id="Vector_6" d="M39.7495 26.5037C39.685 26.6059 39.6312 26.7135 39.5936 26.8372L34.1348 29.5693L33.9949 29.6392C33.8874 29.6983 33.7905 29.779 33.7099 29.8704C33.4893 30.1286 33.3657 30.5051 33.3388 31.0106C33.3012 31.699 33.4678 32.4358 33.8282 33.2318C34.3014 34.3343 34.6726 35.4261 34.9469 36.5017C35.0114 36.7706 35.0705 37.0395 35.1189 37.3138L34.8608 37.4429L31.3488 39.1962L29.7193 40.0136C30.2571 39.7017 30.6282 39.2177 30.8218 38.5508C30.9401 38.1689 30.9993 37.7279 30.9993 37.2224C30.9993 36.2597 30.7949 35.3024 30.3969 34.3451C29.9989 33.3824 29.4719 32.4842 28.8212 31.6506L30.2518 30.9353L33.4947 29.3165L39.5775 26.2725C39.6366 26.3478 39.6957 26.423 39.7495 26.5037Z" fill="#F2F2F7" stroke="#34C759" stroke-width="1.5" stroke-linecap="round" stroke-linejoin="round"/>
<path id="Vector_7" d="M18.1187 18.3286L17.4142 18.6836C17.6454 18.5437 17.8767 18.4308 18.1187 18.3286Z" fill="#F2F2F7" stroke="#34C759" stroke-width="1.5" stroke-linecap="round" stroke-linejoin="round"/>
<path id="Vector_8" d="M35.7751 50.7373L35.716 50.775L35.4364 50.9148L35.3611 50.9471L35.7751 50.7373Z" fill="#F2F2F7" stroke="#34C759" stroke-width="1.5" stroke-linecap="round" stroke-linejoin="round"/>
<path id="Vector_9" d="M37.9749 49.6455L35.7805 50.7373L37.9695 49.6401H37.9749V49.6455Z" fill="#F2F2F7" stroke="#34C759" stroke-width="1.5" stroke-linecap="round" stroke-linejoin="round"/>
<path id="Vector_10" d="M34.8608 37.4429L31.3543 39.2015L31.3489 39.1961L34.8608 37.4429Z" fill="#F2F2F7" stroke="#34C759" stroke-width="1.5" stroke-linecap="round" stroke-linejoin="round"/>
<path id="Vector_11" d="M44.0682 44.7677C44.0682 45.2356 44.0575 45.6927 44.0252 46.139C44.0144 46.3058 44.009 46.4671 43.9929 46.6285L37.9694 49.6403L35.7804 50.7374C35.8181 50.7159 35.8612 50.6944 35.8988 50.6729C36.5119 50.3233 37.0497 49.8984 37.5122 49.3875C38.4588 48.3603 39.0934 47.0104 39.4322 45.3377C39.6204 44.4073 39.7119 43.3801 39.7119 42.2507C39.7119 42.1216 39.7119 41.9925 39.7065 41.8635C39.6957 41.3418 39.6635 40.8201 39.6097 40.293C39.4967 39.1744 39.2817 38.0396 38.9751 36.8887C38.8568 36.4477 38.7277 36.012 38.5933 35.5764C38.5072 35.3021 38.4158 35.0278 38.319 34.7535C37.9371 33.6564 37.4961 32.57 36.9851 31.4944C36.6248 30.6984 36.1462 30.1283 35.5438 29.7841C35.0114 29.4776 34.5381 29.4023 34.1348 29.569L39.5936 26.8423C39.5237 27.0467 39.4914 27.2887 39.4914 27.563C39.4914 28.2729 39.6903 29.0097 40.0937 29.7841C40.653 30.8813 41.1586 31.9784 41.5996 33.0863C42.1697 34.49 42.643 35.8991 43.0302 37.3243C43.2669 38.1902 43.4605 39.0507 43.6164 39.9004C43.9176 41.5515 44.0682 43.1704 44.0682 44.7677Z" fill="#F2F2F7" stroke="#34C759" stroke-width="1.5" stroke-linecap="round" stroke-linejoin="round"/>
<path id="Vector_12" d="M24.4595 15.1611V18.6354C22.8353 18.0008 21.3509 17.7426 20.0117 17.8663C19.3502 17.9255 18.7317 18.0761 18.1401 18.3235L20.0439 17.3662L24.4595 15.1611Z" fill="#F2F2F7" stroke="#34C759" stroke-width="1.5" stroke-linecap="round" stroke-linejoin="round"/>
<path id="Vector_13" d="M42.8904 51.5603C42.1751 53.2437 41.1317 54.5774 39.7549 55.5454C39.5129 55.7229 39.2655 55.8789 39.0019 56.0295C35.6245 57.9549 31.5048 57.5085 26.6376 54.7011C21.7757 51.8937 17.656 47.5751 14.2786 41.7505C10.9011 35.926 9.2124 30.2252 9.2124 24.6426C9.2124 19.5173 10.6752 15.9247 13.5955 13.8648C14.327 13.3485 15.0961 12.9559 15.9136 12.6924C17.5001 12.16 19.248 12.1008 21.1627 12.5042C22.2114 12.7193 23.3085 13.0796 24.4595 13.5744V15.161L20.0439 17.366L18.1401 18.3233H18.1186C17.8766 18.4309 17.6453 18.5438 17.4141 18.6836L17.371 18.7052C17.129 18.8396 16.8978 18.9956 16.6719 19.1677C16.3438 19.4151 16.048 19.6894 15.7737 19.9959C14.3055 21.6094 13.5687 24.0026 13.5687 27.1596C13.5687 31.3223 14.8433 35.5979 17.3818 39.9811C19.9256 44.3643 23.0073 47.6073 26.6376 49.7048C29.1061 51.1247 31.322 51.7324 33.285 51.5173C33.4571 51.5011 33.6346 51.4742 33.8013 51.442C33.9734 51.4151 34.1401 51.3721 34.3068 51.3291C34.4359 51.2968 34.5703 51.2538 34.6994 51.2108C34.7639 51.1893 34.8285 51.1677 34.8877 51.1462C35.0168 51.0978 35.1512 51.044 35.2803 50.9848L35.361 50.9472L35.4363 50.9149L35.7159 50.7751L35.775 50.7374H35.7804L37.9748 49.6457C39.7119 50.5923 41.3469 51.2268 42.8904 51.5603Z" fill="#F2F2F7" stroke="#34C759" stroke-width="1.5" stroke-linecap="round" stroke-linejoin="round"/>
<path id="Vector_14" d="M39.5775 8.08892V26.2724L33.4948 29.3165L30.2518 30.9353L28.8212 31.6506V13.4671C28.8212 13.3057 28.8104 13.1498 28.7889 12.9884C28.719 12.4345 28.5146 11.8805 28.1919 11.3212C27.7724 10.6005 27.2561 10.0627 26.6376 9.70774C25.8578 9.25598 25.0888 8.85262 24.3304 8.50304C22.1684 7.50808 20.1086 6.93262 18.1456 6.77127C18.0918 6.77127 18.038 6.76052 17.9896 6.76052C15.7415 6.59379 13.7408 6.91648 11.9983 7.72321L22.2437 2.59781L22.6255 2.40958C24.4433 1.53294 26.5355 1.19412 28.9019 1.39311C31.5533 1.60824 34.3822 2.58705 37.3939 4.32958C38.0124 4.68453 38.5287 5.22235 38.9482 5.94304C39.3677 6.66371 39.5775 7.379 39.5775 8.08892Z" fill="#F2F2F7" stroke="#34C759" stroke-width="1.5" stroke-linecap="round" stroke-linejoin="round"/>
<g id="Vector_15">
<path d="M42.1644 47.5483L37.9749 49.6458L42.1644 47.5483Z" fill="#F2F2F7"/>
<path d="M42.1644 47.5483L37.9749 49.6458" stroke="#34C759" stroke-width="1.5" stroke-linecap="round" stroke-linejoin="round"/>
</g>
<path id="Vector_16" d="M35.3557 39.7337C35.3557 40.8577 35.2104 41.8365 34.9254 42.6593C34.5166 43.8587 33.8014 44.7461 32.7957 45.3161C32.629 45.413 32.4568 45.4936 32.2847 45.5689C30.682 46.2358 28.7997 45.9508 26.6377 44.7031C26.5624 44.6601 26.4817 44.6116 26.4064 44.5632C24.11 43.181 22.1416 41.0567 20.4851 38.2116C18.7802 35.2698 17.925 32.4247 17.925 29.6711C17.925 29.5474 17.9251 29.4238 17.9305 29.3054C17.995 27.1649 18.6081 25.5891 19.7805 24.5888C19.9795 24.4167 20.1839 24.2661 20.399 24.1424C20.4313 24.1209 20.4636 24.1047 20.4905 24.0832L20.8454 23.9057C21.8619 23.4432 23.0558 23.3894 24.4219 23.7498C24.4326 23.8788 24.4434 24.008 24.4596 24.137V28.9343L23.5775 29.3754C23.314 29.5152 23.0827 29.7088 22.8837 29.9723C22.6632 30.2628 22.5019 30.6231 22.405 31.048C22.319 31.3868 22.2814 31.7633 22.2814 32.1881C22.2814 33.5649 22.7116 34.9848 23.5614 36.4584C24.4165 37.932 25.4437 39.013 26.6377 39.7014C26.9173 39.8628 27.1862 39.9918 27.4444 40.0886C28.3049 40.4113 29.0633 40.3844 29.7194 40.0133L31.3489 39.1959H31.3543L34.8608 37.4426L35.119 37.3135C35.1513 37.4587 35.1782 37.6039 35.1997 37.7491C35.3019 38.4052 35.3557 39.0722 35.3557 39.7337Z" fill="#F2F2F7" stroke="#34C759" stroke-width="1.5" stroke-linecap="round" stroke-linejoin="round"/>
<g id="Vector_17">
<path d="M31.3542 39.2012L29.6117 40.0724L31.3542 39.2012Z" fill="#F2F2F7"/>
<path d="M31.3542 39.2012L29.6117 40.0724" stroke="#34C759" stroke-width="1.5" stroke-linecap="round" stroke-linejoin="round"/>
</g>
<g id="Vector_18">
<path d="M29.7193 40.0132L29.4934 40.1261L29.7193 40.0132Z" fill="#F2F2F7"/>
<path d="M29.7193 40.0132L29.4934 40.1261" stroke="#34C759" stroke-width="1.5" stroke-linecap="round" stroke-linejoin="round"/>
</g>
<path id="Vector_19" d="M24.4595 28.9346V29.1336C24.1315 29.1551 23.841 29.2357 23.5775 29.3756L24.4595 28.9346Z" fill="#F2F2F7" stroke="#34C759" stroke-width="1.5" stroke-linecap="round" stroke-linejoin="round"/>
</g>
</svg>
