<svg width="61" height="61" viewBox="0 0 61 61" fill="none" xmlns="http://www.w3.org/2000/svg">
<rect x="0.856934" y="0.857422" width="59.5238" height="59.5238" rx="29.7619" fill="#9F3F2A" fill-opacity="0.25"/>
<path d="M31.7351 23.9225V29.987L36.7742 33.0102C37.028 33.1626 37.2109 33.4096 37.2825 33.6969C37.3542 33.9842 37.3089 34.2881 37.1564 34.542C37.004 34.7958 36.757 34.9787 36.4697 35.0503C36.1824 35.122 35.8784 35.0767 35.6246 34.9242L30.0443 31.576C29.8791 31.4768 29.7424 31.3365 29.6476 31.1688C29.5527 31.0011 29.5029 30.8117 29.503 30.619V23.9225C29.503 23.6265 29.6206 23.3427 29.8299 23.1334C30.0392 22.9241 30.323 22.8065 30.619 22.8065C30.915 22.8065 31.1989 22.9241 31.4082 23.1334C31.6175 23.3427 31.7351 23.6265 31.7351 23.9225ZM30.619 17.2261C28.8584 17.2217 27.1144 17.5666 25.488 18.2407C23.8615 18.9148 22.3849 19.9047 21.1436 21.1533C20.1294 22.1801 19.2281 23.1678 18.3423 24.2016V21.6904C18.3423 21.3944 18.2247 21.1105 18.0154 20.9012C17.8061 20.6919 17.5222 20.5743 17.2262 20.5743C16.9302 20.5743 16.6463 20.6919 16.437 20.9012C16.2277 21.1105 16.1101 21.3944 16.1101 21.6904V27.2708C16.1101 27.5668 16.2277 27.8506 16.437 28.0599C16.6463 28.2692 16.9302 28.3868 17.2262 28.3868H22.8065C23.1025 28.3868 23.3864 28.2692 23.5957 28.0599C23.805 27.8506 23.9226 27.5668 23.9226 27.2708C23.9226 26.9748 23.805 26.6909 23.5957 26.4816C23.3864 26.2723 23.1025 26.1547 22.8065 26.1547H19.5978C20.5953 24.98 21.5886 23.8737 22.7214 22.727C24.2726 21.1758 26.2464 20.1162 28.3963 19.6805C30.5463 19.2447 32.7769 19.4522 34.8096 20.277C36.8422 21.1018 38.5868 22.5073 39.8252 24.3179C41.0637 26.1285 41.7411 28.264 41.7728 30.4574C41.8045 32.6508 41.1892 34.8049 40.0036 36.6505C38.8181 38.4962 37.1149 39.9516 35.107 40.8348C33.099 41.7181 30.8753 41.99 28.7137 41.6167C26.552 41.2433 24.5484 40.2412 22.953 38.7356C22.8464 38.6348 22.721 38.5561 22.5839 38.5038C22.4468 38.4515 22.3008 38.4267 22.1542 38.4309C22.0075 38.435 21.8631 38.468 21.7292 38.5279C21.5953 38.5879 21.4745 38.6736 21.3738 38.7802C21.273 38.8869 21.1942 39.0123 21.142 39.1494C21.0897 39.2864 21.0649 39.4325 21.069 39.5791C21.0732 39.7258 21.1062 39.8701 21.1661 40.004C21.2261 40.1379 21.3118 40.2587 21.4184 40.3595C23.0081 41.8596 24.9407 42.9478 27.0476 43.5293C29.1545 44.1107 31.3718 44.1676 33.5058 43.6951C35.6398 43.2226 37.6257 42.2349 39.2902 40.8184C40.9547 39.4018 42.2473 37.5994 43.055 35.5685C43.8628 33.5375 44.1612 31.3397 43.9242 29.1669C43.6873 26.9941 42.9221 24.9123 41.6956 23.1033C40.469 21.2942 38.8183 19.8128 36.8876 18.7883C34.9569 17.7639 32.8047 17.2275 30.619 17.2261Z" fill="black"/>
</svg>
