<svg width="40" height="40" viewBox="0 0 40 40" fill="none" xmlns="http://www.w3.org/2000/svg">
<g id="UserCheck" clip-path="url(#clip0_92_1175)">
<path id="Vector" d="M39.6343 20.8843L34.6343 25.8843C34.5183 26.0005 34.3804 26.0927 34.2286 26.1556C34.0769 26.2185 33.9142 26.2509 33.75 26.2509C33.5857 26.2509 33.423 26.2185 33.2713 26.1556C33.1195 26.0927 32.9817 26.0005 32.8656 25.8843L30.3656 23.3843C30.131 23.1497 29.9993 22.8316 29.9993 22.4999C29.9993 22.1682 30.131 21.8501 30.3656 21.6155C30.6001 21.381 30.9183 21.2492 31.25 21.2492C31.5817 21.2492 31.8998 21.381 32.1343 21.6155L33.75 23.2327L37.8656 19.1155C38.1001 18.881 38.4183 18.7492 38.75 18.7492C39.0817 18.7492 39.3998 18.881 39.6343 19.1155C39.8689 19.3501 40.0007 19.6682 40.0007 19.9999C40.0007 20.3316 39.8689 20.6497 39.6343 20.8843ZM22.5 24.6374C24.4595 23.4169 25.9682 21.5915 26.7979 19.4372C27.6276 17.2829 27.733 14.917 27.0983 12.6975C26.4636 10.4779 25.1233 8.52547 23.2802 7.13549C21.437 5.74552 19.1913 4.99365 16.8828 4.99365C14.5743 4.99365 12.3286 5.74552 10.4854 7.13549C8.64224 8.52547 7.30193 10.4779 6.66724 12.6975C6.03255 14.917 6.13802 17.2829 6.96768 19.4372C7.79735 21.5915 9.30607 23.4169 11.2656 24.6374C8.03903 25.6937 5.13591 27.6671 2.80153 30.4452C2.64871 30.6269 2.55077 30.8483 2.51918 31.0836C2.48758 31.3189 2.52364 31.5583 2.62313 31.7738C2.72263 31.9893 2.88144 32.1721 3.08099 32.3007C3.28054 32.4293 3.51258 32.4984 3.74997 32.4999H30C30.2382 32.5001 30.4715 32.4323 30.6724 32.3044C30.8733 32.1766 31.0336 31.9939 31.1342 31.778C31.2348 31.5622 31.2717 31.322 31.2404 31.0859C31.2092 30.8498 31.1111 30.6275 30.9578 30.4452C28.6218 27.6671 25.7187 25.6937 22.5 24.6374Z" fill="#34C759"/>
</g>
<defs>
<clipPath id="clip0_92_1175">
<rect width="40" height="40" fill="white"/>
</clipPath>
</defs>
</svg>
