<svg width="20" height="12" viewBox="0 0 20 12" fill="none" xmlns="http://www.w3.org/2000/svg">
<path d="M11.2501 2.24971C11.2501 2.08395 11.316 1.92498 11.4332 1.80777C11.5504 1.69056 11.7094 1.62471 11.8751 1.62471H19.3751C19.5409 1.62471 19.6998 1.69056 19.8171 1.80777C19.9343 1.92498 20.0001 2.08395 20.0001 2.24971C20.0001 2.41547 19.9343 2.57444 19.8171 2.69165C19.6998 2.80886 19.5409 2.87471 19.3751 2.87471H11.8751C11.7094 2.87471 11.5504 2.80886 11.4332 2.69165C11.316 2.57444 11.2501 2.41547 11.2501 2.24971ZM19.3751 5.37471H11.8751C11.7094 5.37471 11.5504 5.44056 11.4332 5.55777C11.316 5.67498 11.2501 5.83395 11.2501 5.99971C11.2501 6.16547 11.316 6.32444 11.4332 6.44166C11.5504 6.55887 11.7094 6.62471 11.8751 6.62471H19.3751C19.5409 6.62471 19.6998 6.55887 19.8171 6.44166C19.9343 6.32444 20.0001 6.16547 20.0001 5.99971C20.0001 5.83395 19.9343 5.67498 19.8171 5.55777C19.6998 5.44056 19.5409 5.37471 19.3751 5.37471ZM19.3751 9.12471H13.7501C13.5844 9.12471 13.4254 9.19056 13.3082 9.30777C13.191 9.42498 13.1251 9.58395 13.1251 9.74971C13.1251 9.91547 13.191 10.0744 13.3082 10.1917C13.4254 10.3089 13.5844 10.3747 13.7501 10.3747H19.3751C19.5409 10.3747 19.6998 10.3089 19.8171 10.1917C19.9343 10.0744 20.0001 9.91547 20.0001 9.74971C20.0001 9.58395 19.9343 9.42498 19.8171 9.30777C19.6998 9.19056 19.5409 9.12471 19.3751 9.12471ZM11.8556 10.8435C11.876 10.923 11.8806 11.0057 11.869 11.087C11.8575 11.1683 11.83 11.2465 11.7882 11.3172C11.7464 11.3878 11.6911 11.4496 11.6255 11.4988C11.5598 11.5481 11.4851 11.584 11.4056 11.6044C11.3546 11.6181 11.3021 11.625 11.2493 11.6247C11.1107 11.6248 10.976 11.5788 10.8664 11.4939C10.7568 11.4091 10.6785 11.2902 10.6439 11.156C10.1626 9.28565 8.27355 7.87471 6.24933 7.87471C4.22511 7.87471 2.33605 9.28487 1.8548 11.156C1.81336 11.3165 1.70983 11.4541 1.56698 11.5383C1.42413 11.6226 1.25366 11.6466 1.09308 11.6052C0.9325 11.5637 0.794959 11.4602 0.710714 11.3174C0.626469 11.1745 0.602421 11.004 0.643862 10.8435C1.08058 9.14737 2.35011 7.77393 3.96105 7.09346C3.34076 6.6157 2.88557 5.95576 2.65932 5.20621C2.43306 4.45666 2.4471 3.65509 2.69944 2.91392C2.95179 2.17275 3.4298 1.52915 4.06643 1.07339C4.70306 0.617625 5.46638 0.372559 6.24933 0.372559C7.03228 0.372559 7.7956 0.617625 8.43223 1.07339C9.06886 1.52915 9.54687 2.17275 9.79922 2.91392C10.0516 3.65509 10.0656 4.45666 9.83934 5.20621C9.61309 5.95576 9.1579 6.6157 8.53761 7.09346C10.1493 7.77393 11.4189 9.14737 11.8556 10.8435ZM6.25011 6.62471C6.74457 6.62471 7.22791 6.47809 7.63904 6.20339C8.05016 5.92868 8.37059 5.53824 8.55981 5.08142C8.74903 4.62461 8.79854 4.12194 8.70208 3.63699C8.60561 3.15203 8.36751 2.70658 8.01788 2.35695C7.66825 2.00731 7.22279 1.76921 6.73784 1.67275C6.25288 1.57629 5.75022 1.62579 5.2934 1.81501C4.83659 2.00423 4.44614 2.32466 4.17144 2.73579C3.89673 3.14691 3.75011 3.63026 3.75011 4.12471C3.75011 4.78775 4.0135 5.42364 4.48234 5.89248C4.95119 6.36132 5.58707 6.62471 6.25011 6.62471Z" fill="#667085"/>
</svg>
