<svg width="46" height="46" viewBox="0 0 46 46" fill="none" xmlns="http://www.w3.org/2000/svg">
<rect x="0.424316" y="0.785156" width="45.0098" height="45.0098" rx="22.5049" fill="#2A9F47" fill-opacity="0.25"/>
<path d="M33.0565 14.8506H12.8021C12.3545 14.8506 11.9252 15.0284 11.6086 15.345C11.2921 15.6615 11.1143 16.0908 11.1143 16.5385V30.0414C11.1143 30.489 11.2921 30.9184 11.6086 31.2349C11.9252 31.5514 12.3545 31.7293 12.8021 31.7293H33.0565C33.5042 31.7293 33.9335 31.5514 34.25 31.2349C34.5666 30.9184 34.7444 30.489 34.7444 30.0414V16.5385C34.7444 16.0908 34.5666 15.6615 34.25 15.345C33.9335 15.0284 33.5042 14.8506 33.0565 14.8506ZM33.0565 16.5385V19.0703H12.8021V16.5385H33.0565ZM33.0565 30.0414H12.8021V20.7581H33.0565V30.0414ZM31.3687 27.5096C31.3687 27.7334 31.2797 27.9481 31.1215 28.1063C30.9632 28.2646 30.7486 28.3535 30.5247 28.3535H27.149C26.9252 28.3535 26.7105 28.2646 26.5522 28.1063C26.394 27.9481 26.3051 27.7334 26.3051 27.5096C26.3051 27.2858 26.394 27.0711 26.5522 26.9128C26.7105 26.7546 26.9252 26.6657 27.149 26.6657H30.5247C30.7486 26.6657 30.9632 26.7546 31.1215 26.9128C31.2797 27.0711 31.3687 27.2858 31.3687 27.5096ZM24.6172 27.5096C24.6172 27.7334 24.5283 27.9481 24.37 28.1063C24.2117 28.2646 23.9971 28.3535 23.7733 28.3535H22.0854C21.8616 28.3535 21.6469 28.2646 21.4886 28.1063C21.3304 27.9481 21.2415 27.7334 21.2415 27.5096C21.2415 27.2858 21.3304 27.0711 21.4886 26.9128C21.6469 26.7546 21.8616 26.6657 22.0854 26.6657H23.7733C23.9971 26.6657 24.2117 26.7546 24.37 26.9128C24.5283 27.0711 24.6172 27.2858 24.6172 27.5096Z" fill="black"/>
</svg>
